<svg xmlns="http://www.w3.org/2000/svg" xmlns:xlink="http://www.w3.org/1999/xlink" width="1080" zoomAndPan="magnify" viewBox="0 0 810 809.999993" height="1080" preserveAspectRatio="xMidYMid meet" version="1.0"><defs><clipPath id="eb299b2a2b"><path d="M 245.023438 353 L 280 353 L 280 388 L 245.023438 388 Z M 245.023438 353 " clip-rule="nonzero"/></clipPath><clipPath id="b0a39a5ea1"><path d="M 245.023438 422 L 280 422 L 280 457 L 245.023438 457 Z M 245.023438 422 " clip-rule="nonzero"/></clipPath></defs><rect x="-81" width="972" fill="#ffffff" y="-80.999999" height="971.999992" fill-opacity="1"/><rect x="-81" width="972" fill="#007b7f" y="-80.999999" height="971.999992" fill-opacity="1"/><path fill="#ff7428" d="M 457.480469 467.351562 L 352.328125 467.351562 C 341.507812 467.351562 332.585938 458.429688 332.585938 447.613281 L 332.585938 362.386719 C 332.585938 351.378906 341.507812 342.457031 352.328125 342.457031 L 457.480469 342.457031 C 468.488281 342.457031 477.410156 351.378906 477.410156 362.386719 L 477.410156 447.613281 C 477.410156 458.429688 468.488281 467.351562 457.480469 467.351562 Z M 355.933594 427.871094 C 355.554688 427.871094 355.171875 427.871094 354.792969 427.683594 C 353.085938 427.113281 352.328125 425.214844 353.085938 423.507812 L 359.917969 406.421875 L 359.917969 406.234375 L 372.257812 375.484375 C 372.257812 375.484375 372.257812 375.296875 372.257812 375.296875 C 372.445312 374.914062 372.636719 374.535156 373.015625 374.347656 C 373.203125 373.964844 373.585938 373.777344 373.964844 373.585938 C 373.964844 373.585938 373.964844 373.585938 374.152344 373.585938 C 374.535156 373.398438 374.722656 373.398438 375.101562 373.398438 C 375.484375 373.398438 375.863281 373.398438 376.242188 373.585938 C 376.242188 373.585938 376.433594 373.585938 376.433594 373.585938 C 376.8125 373.777344 377.191406 373.964844 377.378906 374.347656 C 377.761719 374.535156 377.949219 374.914062 378.140625 375.296875 C 378.140625 375.296875 378.140625 375.484375 378.140625 375.484375 L 390.476562 406.234375 L 390.476562 406.421875 L 397.308594 423.507812 C 397.878906 425.214844 397.121094 427.113281 395.601562 427.683594 C 393.894531 428.25 391.996094 427.492188 391.425781 425.972656 L 385.351562 410.789062 L 365.042969 410.789062 L 358.96875 425.972656 C 358.398438 427.113281 357.261719 427.871094 355.933594 427.871094 Z M 428.25 428.0625 L 411.355469 428.0625 C 409.648438 428.0625 408.320312 426.734375 408.320312 425.023438 C 408.320312 423.125 409.648438 421.796875 411.355469 421.796875 L 425.023438 421.796875 L 425.023438 379.472656 L 411.355469 379.472656 C 409.648438 379.472656 408.320312 378.140625 408.320312 376.433594 C 408.320312 374.535156 409.648438 373.207031 411.355469 373.207031 L 444.953125 373.207031 C 446.660156 373.207031 448.179688 374.535156 448.179688 376.433594 C 448.179688 378.140625 446.660156 379.472656 444.953125 379.472656 L 431.285156 379.472656 L 431.285156 421.796875 L 444.953125 421.796875 C 446.660156 421.796875 448.179688 423.125 448.179688 425.023438 C 448.179688 426.734375 446.660156 428.0625 444.953125 428.0625 Z M 382.886719 404.335938 L 375.101562 385.164062 L 367.511719 404.335938 Z M 382.886719 404.335938 " fill-opacity="1" fill-rule="evenodd"/><path fill="#ff7428" d="M 388.199219 348.914062 C 386.492188 348.914062 384.972656 347.394531 384.972656 345.683594 L 384.972656 274.128906 C 384.972656 272.421875 386.492188 270.902344 388.199219 270.902344 C 389.90625 270.902344 391.238281 272.421875 391.238281 274.128906 L 391.238281 345.683594 C 391.238281 347.394531 389.90625 348.914062 388.199219 348.914062 Z M 388.199219 348.914062 " fill-opacity="1" fill-rule="evenodd"/><path fill="#ff7428" d="M 388.199219 277.355469 C 378.710938 277.355469 370.925781 269.574219 370.925781 260.082031 C 370.925781 250.78125 378.710938 243 388.199219 243 C 397.691406 243 405.28125 250.78125 405.28125 260.082031 C 405.28125 269.574219 397.691406 277.355469 388.199219 277.355469 Z M 388.199219 277.355469 " fill-opacity="1" fill-rule="evenodd"/><path fill="#ff7428" d="M 421.796875 348.914062 C 420.085938 348.914062 418.570312 347.394531 418.570312 345.683594 L 418.570312 316.074219 C 418.570312 314.367188 420.085938 312.847656 421.796875 312.847656 C 423.503906 312.847656 425.023438 314.367188 425.023438 316.074219 L 425.023438 345.683594 C 425.023438 347.394531 423.503906 348.914062 421.796875 348.914062 Z M 421.796875 348.914062 " fill-opacity="1" fill-rule="evenodd"/><path fill="#ff7428" d="M 421.796875 319.300781 C 412.304688 319.300781 404.714844 311.519531 404.714844 302.03125 C 404.714844 292.730469 412.304688 284.949219 421.796875 284.949219 C 431.285156 284.949219 438.878906 292.730469 438.878906 302.03125 C 438.878906 311.519531 431.285156 319.300781 421.796875 319.300781 Z M 421.796875 319.300781 " fill-opacity="1" fill-rule="evenodd"/><path fill="#ff7428" d="M 455.390625 348.914062 C 453.683594 348.914062 452.164062 347.394531 452.164062 345.683594 L 452.164062 299.371094 C 452.164062 290.070312 459.757812 282.480469 469.058594 282.480469 L 489.175781 282.480469 C 490.886719 282.480469 492.402344 284 492.402344 285.707031 C 492.402344 287.414062 490.886719 288.933594 489.175781 288.933594 L 469.058594 288.933594 C 463.363281 288.933594 458.617188 293.488281 458.617188 299.371094 L 458.617188 345.683594 C 458.617188 347.394531 457.097656 348.914062 455.390625 348.914062 Z M 455.390625 348.914062 " fill-opacity="1" fill-rule="evenodd"/><path fill="#ff7428" d="M 503.222656 302.789062 C 493.730469 302.789062 485.949219 295.195312 485.949219 285.707031 C 485.949219 276.214844 493.730469 268.625 503.222656 268.625 C 512.714844 268.625 520.304688 276.214844 520.304688 285.707031 C 520.304688 295.195312 512.714844 302.789062 503.222656 302.789062 Z M 503.222656 302.789062 " fill-opacity="1" fill-rule="evenodd"/><path fill="#ff7428" d="M 354.605469 348.914062 C 352.707031 348.914062 351.378906 347.394531 351.378906 345.683594 L 351.378906 299.371094 C 351.378906 293.488281 346.632812 288.933594 340.9375 288.933594 L 320.820312 288.933594 C 318.921875 288.933594 317.589844 287.414062 317.589844 285.707031 C 317.589844 284 318.921875 282.480469 320.820312 282.480469 L 340.9375 282.480469 C 350.238281 282.480469 357.640625 290.070312 357.640625 299.371094 L 357.640625 345.683594 C 357.640625 347.394531 356.3125 348.914062 354.605469 348.914062 Z M 354.605469 348.914062 " fill-opacity="1" fill-rule="evenodd"/><path fill="#ff7428" d="M 306.773438 302.789062 C 297.28125 302.789062 289.691406 295.195312 289.691406 285.707031 C 289.691406 276.214844 297.28125 268.625 306.773438 268.625 C 316.261719 268.625 323.855469 276.214844 323.855469 285.707031 C 323.855469 295.195312 316.261719 302.789062 306.773438 302.789062 Z M 306.773438 302.789062 " fill-opacity="1" fill-rule="evenodd"/><path fill="#ff7428" d="M 533.78125 373.777344 L 474.183594 373.777344 C 472.472656 373.777344 470.957031 372.257812 470.957031 370.550781 C 470.957031 368.84375 472.472656 367.511719 474.183594 367.511719 L 533.78125 367.511719 C 535.488281 367.511719 536.820312 368.84375 536.820312 370.550781 C 536.820312 372.257812 535.488281 373.777344 533.78125 373.777344 Z M 533.78125 373.777344 " fill-opacity="1" fill-rule="evenodd"/><path fill="#ff7428" d="M 547.636719 387.824219 C 538.335938 387.824219 530.554688 380.039062 530.554688 370.550781 C 530.554688 361.058594 538.335938 353.46875 547.636719 353.46875 C 557.128906 353.46875 564.910156 361.058594 564.910156 370.550781 C 564.910156 380.039062 557.128906 387.824219 547.636719 387.824219 Z M 547.636719 387.824219 " fill-opacity="1" fill-rule="evenodd"/><path fill="#ff7428" d="M 492.023438 408.132812 L 474.183594 408.132812 C 472.472656 408.132812 470.957031 406.804688 470.957031 404.90625 C 470.957031 403.195312 472.472656 401.867188 474.183594 401.867188 L 492.023438 401.867188 C 493.730469 401.867188 495.0625 403.195312 495.0625 404.90625 C 495.0625 406.804688 493.730469 408.132812 492.023438 408.132812 Z M 492.023438 408.132812 " fill-opacity="1" fill-rule="evenodd"/><path fill="#ff7428" d="M 505.878906 422.175781 C 496.578125 422.175781 488.796875 414.394531 488.796875 404.90625 C 488.796875 395.605469 496.578125 387.824219 505.878906 387.824219 C 515.371094 387.824219 523.152344 395.605469 523.152344 404.90625 C 523.152344 414.394531 515.371094 422.175781 505.878906 422.175781 Z M 505.878906 422.175781 " fill-opacity="1" fill-rule="evenodd"/><path fill="#ff7428" d="M 533.78125 442.296875 L 474.183594 442.296875 C 472.472656 442.296875 470.957031 440.96875 470.957031 439.070312 C 470.957031 437.363281 472.472656 436.035156 474.183594 436.035156 L 533.78125 436.035156 C 535.488281 436.035156 536.820312 437.363281 536.820312 439.070312 C 536.820312 440.96875 535.488281 442.296875 533.78125 442.296875 Z M 533.78125 442.296875 " fill-opacity="1" fill-rule="evenodd"/><path fill="#ff7428" d="M 547.636719 456.34375 C 538.335938 456.34375 530.554688 448.5625 530.554688 439.070312 C 530.554688 429.769531 538.335938 421.988281 547.636719 421.988281 C 557.128906 421.988281 564.910156 429.769531 564.910156 439.070312 C 564.910156 448.5625 557.128906 456.34375 547.636719 456.34375 Z M 547.636719 456.34375 " fill-opacity="1" fill-rule="evenodd"/><path fill="#ff7428" d="M 388.199219 538.910156 C 386.492188 538.910156 384.972656 537.578125 384.972656 535.871094 L 384.972656 464.316406 C 384.972656 462.417969 386.492188 461.085938 388.199219 461.085938 C 389.90625 461.085938 391.238281 462.417969 391.238281 464.316406 L 391.238281 535.871094 C 391.238281 537.578125 389.90625 538.910156 388.199219 538.910156 Z M 388.199219 538.910156 " fill-opacity="1" fill-rule="evenodd"/><path fill="#ff7428" d="M 388.199219 567 C 378.710938 567 370.925781 559.21875 370.925781 549.726562 C 370.925781 540.238281 378.710938 532.644531 388.199219 532.644531 C 397.691406 532.644531 405.28125 540.238281 405.28125 549.726562 C 405.28125 559.21875 397.691406 567 388.199219 567 Z M 388.199219 567 " fill-opacity="1" fill-rule="evenodd"/><path fill="#ff7428" d="M 421.796875 496.960938 C 420.085938 496.960938 418.570312 495.632812 418.570312 493.925781 L 418.570312 464.316406 C 418.570312 462.417969 420.085938 461.085938 421.796875 461.085938 C 423.503906 461.085938 425.023438 462.417969 425.023438 464.316406 L 425.023438 493.925781 C 425.023438 495.632812 423.503906 496.960938 421.796875 496.960938 Z M 421.796875 496.960938 " fill-opacity="1" fill-rule="evenodd"/><path fill="#ff7428" d="M 421.796875 525.050781 C 412.304688 525.050781 404.714844 517.269531 404.714844 507.78125 C 404.714844 498.289062 412.304688 490.699219 421.796875 490.699219 C 431.285156 490.699219 438.878906 498.289062 438.878906 507.78125 C 438.878906 517.269531 431.285156 525.050781 421.796875 525.050781 Z M 421.796875 525.050781 " fill-opacity="1" fill-rule="evenodd"/><path fill="#ff7428" d="M 489.175781 527.332031 L 469.058594 527.332031 C 459.757812 527.332031 452.164062 519.929688 452.164062 510.628906 L 452.164062 464.316406 C 452.164062 462.417969 453.683594 461.085938 455.390625 461.085938 C 457.097656 461.085938 458.617188 462.417969 458.617188 464.316406 L 458.617188 510.628906 C 458.617188 516.320312 463.363281 521.066406 469.058594 521.066406 L 489.175781 521.066406 C 490.886719 521.066406 492.402344 522.394531 492.402344 524.292969 C 492.402344 526 490.886719 527.332031 489.175781 527.332031 Z M 489.175781 527.332031 " fill-opacity="1" fill-rule="evenodd"/><path fill="#ff7428" d="M 503.222656 541.375 C 493.730469 541.375 485.949219 533.59375 485.949219 524.292969 C 485.949219 514.804688 493.730469 507.019531 503.222656 507.019531 C 512.714844 507.019531 520.304688 514.804688 520.304688 524.292969 C 520.304688 533.59375 512.714844 541.375 503.222656 541.375 Z M 503.222656 541.375 " fill-opacity="1" fill-rule="evenodd"/><path fill="#ff7428" d="M 340.9375 527.332031 L 320.820312 527.332031 C 318.921875 527.332031 317.589844 526 317.589844 524.292969 C 317.589844 522.394531 318.921875 521.066406 320.820312 521.066406 L 340.9375 521.066406 C 346.632812 521.066406 351.378906 516.320312 351.378906 510.628906 L 351.378906 464.316406 C 351.378906 462.417969 352.707031 461.085938 354.605469 461.085938 C 356.3125 461.085938 357.640625 462.417969 357.640625 464.316406 L 357.640625 510.628906 C 357.640625 519.929688 350.238281 527.332031 340.9375 527.332031 Z M 340.9375 527.332031 " fill-opacity="1" fill-rule="evenodd"/><path fill="#ff7428" d="M 306.773438 541.375 C 297.28125 541.375 289.691406 533.59375 289.691406 524.292969 C 289.691406 514.804688 297.28125 507.019531 306.773438 507.019531 C 316.261719 507.019531 323.855469 514.804688 323.855469 524.292969 C 323.855469 533.59375 316.261719 541.375 306.773438 541.375 Z M 306.773438 541.375 " fill-opacity="1" fill-rule="evenodd"/><path fill="#ff7428" d="M 335.8125 373.777344 L 276.214844 373.777344 C 274.503906 373.777344 272.988281 372.449219 272.988281 370.738281 C 272.988281 368.84375 274.503906 367.511719 276.214844 367.511719 L 335.8125 367.511719 C 337.519531 367.511719 338.851562 368.84375 338.851562 370.738281 C 338.851562 372.449219 337.519531 373.777344 335.8125 373.777344 Z M 335.8125 373.777344 " fill-opacity="1" fill-rule="evenodd"/><g clip-path="url(#eb299b2a2b)"><path fill="#ff7428" d="M 262.167969 387.824219 C 252.867188 387.824219 245.085938 380.230469 245.085938 370.738281 C 245.085938 361.25 252.867188 353.46875 262.167969 353.46875 C 271.660156 353.46875 279.441406 361.25 279.441406 370.738281 C 279.441406 380.230469 271.660156 387.824219 262.167969 387.824219 Z M 262.167969 387.824219 " fill-opacity="1" fill-rule="evenodd"/></g><path fill="#ff7428" d="M 335.8125 408.132812 L 317.972656 408.132812 C 316.261719 408.132812 314.746094 406.804688 314.746094 405.09375 C 314.746094 403.386719 316.261719 401.867188 317.972656 401.867188 L 335.8125 401.867188 C 337.519531 401.867188 338.851562 403.386719 338.851562 405.09375 C 338.851562 406.804688 337.519531 408.132812 335.8125 408.132812 Z M 335.8125 408.132812 " fill-opacity="1" fill-rule="evenodd"/><path fill="#ff7428" d="M 303.925781 422.175781 C 294.433594 422.175781 286.84375 414.585938 286.84375 405.09375 C 286.84375 395.605469 294.433594 387.824219 303.925781 387.824219 C 313.414062 387.824219 321.199219 395.605469 321.199219 405.09375 C 321.199219 414.585938 313.414062 422.175781 303.925781 422.175781 Z M 303.925781 422.175781 " fill-opacity="1" fill-rule="evenodd"/><path fill="#ff7428" d="M 335.8125 442.488281 L 276.214844 442.488281 C 274.503906 442.488281 272.988281 440.96875 272.988281 439.261719 C 272.988281 437.550781 274.503906 436.035156 276.214844 436.035156 L 335.8125 436.035156 C 337.519531 436.035156 338.851562 437.550781 338.851562 439.261719 C 338.851562 440.96875 337.519531 442.488281 335.8125 442.488281 Z M 335.8125 442.488281 " fill-opacity="1" fill-rule="evenodd"/><g clip-path="url(#b0a39a5ea1)"><path fill="#ff7428" d="M 262.167969 456.34375 C 252.867188 456.34375 245.085938 448.75 245.085938 439.261719 C 245.085938 429.769531 252.867188 422.175781 262.167969 422.175781 C 271.660156 422.175781 279.441406 429.769531 279.441406 439.261719 C 279.441406 448.75 271.660156 456.34375 262.167969 456.34375 Z M 262.167969 456.34375 " fill-opacity="1" fill-rule="evenodd"/></g></svg>