<svg xmlns="http://www.w3.org/2000/svg" xmlns:xlink="http://www.w3.org/1999/xlink" width="1080" zoomAndPan="magnify" viewBox="0 0 810 809.999993" height="1080" preserveAspectRatio="xMidYMid meet" version="1.0"><defs><clipPath id="92f94b1c40"><path d="M 349 178.265625 L 400 178.265625 L 400 228 L 349 228 Z M 349 178.265625 " clip-rule="nonzero"/></clipPath><clipPath id="a87523cbee"><path d="M 579 337 L 628.742188 337 L 628.742188 387 L 579 387 Z M 579 337 " clip-rule="nonzero"/></clipPath><clipPath id="64379bc317"><path d="M 579 435 L 628.742188 435 L 628.742188 485 L 579 485 Z M 579 435 " clip-rule="nonzero"/></clipPath></defs><rect x="-81" width="972" fill="#ffffff" y="-80.999999" height="971.999992" fill-opacity="1"/><rect x="-81" width="972" fill="#ffffff" y="-80.999999" height="971.999992" fill-opacity="1"/><path fill="#ff7428" d="M 474.382812 500.753906 L 323.230469 500.753906 C 307.679688 500.753906 294.855469 487.929688 294.855469 472.378906 L 294.855469 349.875 C 294.855469 334.050781 307.679688 321.230469 323.230469 321.230469 L 474.382812 321.230469 C 490.207031 321.230469 503.027344 334.050781 503.027344 349.875 L 503.027344 472.378906 C 503.027344 487.929688 490.207031 500.753906 474.382812 500.753906 Z M 328.414062 444.003906 C 327.871094 444.003906 327.324219 444.003906 326.777344 443.730469 C 324.324219 442.914062 323.230469 440.183594 324.324219 437.726562 L 334.144531 413.171875 L 334.144531 412.902344 L 351.878906 368.703125 C 351.878906 368.703125 351.878906 368.429688 351.878906 368.429688 C 352.152344 367.882812 352.425781 367.335938 352.96875 367.066406 C 353.242188 366.519531 353.789062 366.246094 354.335938 365.972656 C 354.335938 365.972656 354.335938 365.972656 354.609375 365.972656 C 355.152344 365.699219 355.425781 365.699219 355.972656 365.699219 C 356.515625 365.699219 357.0625 365.699219 357.609375 365.972656 C 357.609375 365.972656 357.882812 365.972656 357.882812 365.972656 C 358.425781 366.246094 358.972656 366.519531 359.246094 367.066406 C 359.792969 367.335938 360.0625 367.882812 360.335938 368.429688 C 360.335938 368.429688 360.335938 368.703125 360.335938 368.703125 L 378.070312 412.902344 L 378.070312 413.171875 L 387.894531 437.726562 C 388.710938 440.183594 387.621094 442.914062 385.4375 443.730469 C 382.980469 444.550781 380.253906 443.457031 379.433594 441.273438 L 370.703125 419.449219 L 341.511719 419.449219 L 332.78125 441.273438 C 331.960938 442.914062 330.324219 444.003906 328.414062 444.003906 Z M 432.363281 444.277344 L 408.082031 444.277344 C 405.628906 444.277344 403.71875 442.367188 403.71875 439.910156 C 403.71875 437.183594 405.628906 435.273438 408.082031 435.273438 L 427.726562 435.273438 L 427.726562 374.429688 L 408.082031 374.429688 C 405.628906 374.429688 403.71875 372.519531 403.71875 370.066406 C 403.71875 367.335938 405.628906 365.425781 408.082031 365.425781 L 456.375 365.425781 C 458.828125 365.425781 461.011719 367.335938 461.011719 370.066406 C 461.011719 372.519531 458.828125 374.429688 456.375 374.429688 L 436.730469 374.429688 L 436.730469 435.273438 L 456.375 435.273438 C 458.828125 435.273438 461.011719 437.183594 461.011719 439.910156 C 461.011719 442.367188 458.828125 444.277344 456.375 444.277344 Z M 367.15625 410.171875 L 355.972656 382.617188 L 345.058594 410.171875 Z M 367.15625 410.171875 " fill-opacity="1" fill-rule="evenodd"/><path fill="#ff7428" d="M 374.796875 330.503906 C 372.339844 330.503906 370.160156 328.324219 370.160156 325.867188 L 370.160156 223.007812 C 370.160156 220.554688 372.339844 218.371094 374.796875 218.371094 C 377.253906 218.371094 379.164062 220.554688 379.164062 223.007812 L 379.164062 325.867188 C 379.164062 328.324219 377.253906 330.503906 374.796875 330.503906 Z M 374.796875 330.503906 " fill-opacity="1" fill-rule="evenodd"/><g clip-path="url(#92f94b1c40)"><path fill="#ff7428" d="M 374.796875 227.648438 C 361.15625 227.648438 349.96875 216.460938 349.96875 202.820312 C 349.96875 189.449219 361.15625 178.265625 374.796875 178.265625 C 388.4375 178.265625 399.351562 189.449219 399.351562 202.820312 C 399.351562 216.460938 388.4375 227.648438 374.796875 227.648438 Z M 374.796875 227.648438 " fill-opacity="1" fill-rule="evenodd"/></g><path fill="#ff7428" d="M 423.089844 330.503906 C 420.632812 330.503906 418.449219 328.324219 418.449219 325.867188 L 418.449219 283.304688 C 418.449219 280.847656 420.632812 278.667969 423.089844 278.667969 C 425.542969 278.667969 427.726562 280.847656 427.726562 283.304688 L 427.726562 325.867188 C 427.726562 328.324219 425.542969 330.503906 423.089844 330.503906 Z M 423.089844 330.503906 " fill-opacity="1" fill-rule="evenodd"/><path fill="#ff7428" d="M 423.089844 287.941406 C 409.445312 287.941406 398.535156 276.757812 398.535156 263.113281 C 398.535156 249.746094 409.445312 238.558594 423.089844 238.558594 C 436.730469 238.558594 447.644531 249.746094 447.644531 263.113281 C 447.644531 276.757812 436.730469 287.941406 423.089844 287.941406 Z M 423.089844 287.941406 " fill-opacity="1" fill-rule="evenodd"/><path fill="#ff7428" d="M 471.378906 330.503906 C 468.925781 330.503906 466.742188 328.324219 466.742188 325.867188 L 466.742188 259.296875 C 466.742188 245.925781 477.65625 235.011719 491.023438 235.011719 L 519.945312 235.011719 C 522.398438 235.011719 524.582031 237.195312 524.582031 239.652344 C 524.582031 242.105469 522.398438 244.289062 519.945312 244.289062 L 491.023438 244.289062 C 482.839844 244.289062 476.019531 250.835938 476.019531 259.296875 L 476.019531 325.867188 C 476.019531 328.324219 473.835938 330.503906 471.378906 330.503906 Z M 471.378906 330.503906 " fill-opacity="1" fill-rule="evenodd"/><path fill="#ff7428" d="M 540.132812 264.207031 C 526.492188 264.207031 515.304688 253.292969 515.304688 239.652344 C 515.304688 226.011719 526.492188 215.097656 540.132812 215.097656 C 553.777344 215.097656 564.6875 226.011719 564.6875 239.652344 C 564.6875 253.292969 553.777344 264.207031 540.132812 264.207031 Z M 540.132812 264.207031 " fill-opacity="1" fill-rule="evenodd"/><path fill="#ff7428" d="M 326.503906 330.503906 C 323.777344 330.503906 321.867188 328.324219 321.867188 325.867188 L 321.867188 259.296875 C 321.867188 250.835938 315.046875 244.289062 306.863281 244.289062 L 277.941406 244.289062 C 275.214844 244.289062 273.304688 242.105469 273.304688 239.652344 C 273.304688 237.195312 275.214844 235.011719 277.941406 235.011719 L 306.863281 235.011719 C 320.230469 235.011719 330.871094 245.925781 330.871094 259.296875 L 330.871094 325.867188 C 330.871094 328.324219 328.960938 330.503906 326.503906 330.503906 Z M 326.503906 330.503906 " fill-opacity="1" fill-rule="evenodd"/><path fill="#ff7428" d="M 257.75 264.207031 C 244.109375 264.207031 233.195312 253.292969 233.195312 239.652344 C 233.195312 226.011719 244.109375 215.097656 257.75 215.097656 C 271.394531 215.097656 282.308594 226.011719 282.308594 239.652344 C 282.308594 253.292969 271.394531 264.207031 257.75 264.207031 Z M 257.75 264.207031 " fill-opacity="1" fill-rule="evenodd"/><path fill="#ff7428" d="M 584.058594 366.246094 L 498.390625 366.246094 C 495.933594 366.246094 493.753906 364.0625 493.753906 361.609375 C 493.753906 359.152344 495.933594 357.242188 498.390625 357.242188 L 584.058594 357.242188 C 586.515625 357.242188 588.425781 359.152344 588.425781 361.609375 C 588.425781 364.0625 586.515625 366.246094 584.058594 366.246094 Z M 584.058594 366.246094 " fill-opacity="1" fill-rule="evenodd"/><g clip-path="url(#a87523cbee)"><path fill="#ff7428" d="M 603.976562 386.4375 C 590.609375 386.4375 579.421875 375.25 579.421875 361.609375 C 579.421875 347.964844 590.609375 337.054688 603.976562 337.054688 C 617.617188 337.054688 628.804688 347.964844 628.804688 361.609375 C 628.804688 375.25 617.617188 386.4375 603.976562 386.4375 Z M 603.976562 386.4375 " fill-opacity="1" fill-rule="evenodd"/></g><path fill="#ff7428" d="M 524.035156 415.628906 L 498.390625 415.628906 C 495.933594 415.628906 493.753906 413.71875 493.753906 410.992188 C 493.753906 408.535156 495.933594 406.625 498.390625 406.625 L 524.035156 406.625 C 526.492188 406.625 528.402344 408.535156 528.402344 410.992188 C 528.402344 413.71875 526.492188 415.628906 524.035156 415.628906 Z M 524.035156 415.628906 " fill-opacity="1" fill-rule="evenodd"/><path fill="#ff7428" d="M 543.953125 435.820312 C 530.585938 435.820312 519.398438 424.632812 519.398438 410.992188 C 519.398438 397.621094 530.585938 386.4375 543.953125 386.4375 C 557.59375 386.4375 568.78125 397.621094 568.78125 410.992188 C 568.78125 424.632812 557.59375 435.820312 543.953125 435.820312 Z M 543.953125 435.820312 " fill-opacity="1" fill-rule="evenodd"/><path fill="#ff7428" d="M 584.058594 464.738281 L 498.390625 464.738281 C 495.933594 464.738281 493.753906 462.828125 493.753906 460.101562 C 493.753906 457.644531 495.933594 455.734375 498.390625 455.734375 L 584.058594 455.734375 C 586.515625 455.734375 588.425781 457.644531 588.425781 460.101562 C 588.425781 462.828125 586.515625 464.738281 584.058594 464.738281 Z M 584.058594 464.738281 " fill-opacity="1" fill-rule="evenodd"/><g clip-path="url(#64379bc317)"><path fill="#ff7428" d="M 603.976562 484.929688 C 590.609375 484.929688 579.421875 473.742188 579.421875 460.101562 C 579.421875 446.730469 590.609375 435.546875 603.976562 435.546875 C 617.617188 435.546875 628.804688 446.730469 628.804688 460.101562 C 628.804688 473.742188 617.617188 484.929688 603.976562 484.929688 Z M 603.976562 484.929688 " fill-opacity="1" fill-rule="evenodd"/></g><path fill="#ff7428" d="M 374.796875 603.609375 C 372.339844 603.609375 370.160156 601.703125 370.160156 599.246094 L 370.160156 496.386719 C 370.160156 493.660156 372.339844 491.75 374.796875 491.75 C 377.253906 491.75 379.164062 493.660156 379.164062 496.386719 L 379.164062 599.246094 C 379.164062 601.703125 377.253906 603.609375 374.796875 603.609375 Z M 374.796875 603.609375 " fill-opacity="1" fill-rule="evenodd"/><path fill="#ff7428" d="M 374.796875 643.992188 C 361.15625 643.992188 349.96875 632.804688 349.96875 619.164062 C 349.96875 605.519531 361.15625 594.609375 374.796875 594.609375 C 388.4375 594.609375 399.351562 605.519531 399.351562 619.164062 C 399.351562 632.804688 388.4375 643.992188 374.796875 643.992188 Z M 374.796875 643.992188 " fill-opacity="1" fill-rule="evenodd"/><path fill="#ff7428" d="M 423.089844 543.316406 C 420.632812 543.316406 418.449219 541.40625 418.449219 538.949219 L 418.449219 496.386719 C 418.449219 493.660156 420.632812 491.75 423.089844 491.75 C 425.542969 491.75 427.726562 493.660156 427.726562 496.386719 L 427.726562 538.949219 C 427.726562 541.40625 425.542969 543.316406 423.089844 543.316406 Z M 423.089844 543.316406 " fill-opacity="1" fill-rule="evenodd"/><path fill="#ff7428" d="M 423.089844 583.695312 C 409.445312 583.695312 398.535156 572.507812 398.535156 558.867188 C 398.535156 545.226562 409.445312 534.3125 423.089844 534.3125 C 436.730469 534.3125 447.644531 545.226562 447.644531 558.867188 C 447.644531 572.507812 436.730469 583.695312 423.089844 583.695312 Z M 423.089844 583.695312 " fill-opacity="1" fill-rule="evenodd"/><path fill="#ff7428" d="M 519.945312 586.96875 L 491.023438 586.96875 C 477.65625 586.96875 466.742188 576.328125 466.742188 562.960938 L 466.742188 496.386719 C 466.742188 493.660156 468.925781 491.75 471.378906 491.75 C 473.835938 491.75 476.019531 493.660156 476.019531 496.386719 L 476.019531 562.960938 C 476.019531 571.144531 482.839844 577.964844 491.023438 577.964844 L 519.945312 577.964844 C 522.398438 577.964844 524.582031 579.875 524.582031 582.601562 C 524.582031 585.058594 522.398438 586.96875 519.945312 586.96875 Z M 519.945312 586.96875 " fill-opacity="1" fill-rule="evenodd"/><path fill="#ff7428" d="M 540.132812 607.15625 C 526.492188 607.15625 515.304688 595.972656 515.304688 582.601562 C 515.304688 568.960938 526.492188 557.773438 540.132812 557.773438 C 553.777344 557.773438 564.6875 568.960938 564.6875 582.601562 C 564.6875 595.972656 553.777344 607.15625 540.132812 607.15625 Z M 540.132812 607.15625 " fill-opacity="1" fill-rule="evenodd"/><path fill="#ff7428" d="M 306.863281 586.96875 L 277.941406 586.96875 C 275.214844 586.96875 273.304688 585.058594 273.304688 582.601562 C 273.304688 579.875 275.214844 577.964844 277.941406 577.964844 L 306.863281 577.964844 C 315.046875 577.964844 321.867188 571.144531 321.867188 562.960938 L 321.867188 496.386719 C 321.867188 493.660156 323.777344 491.75 326.503906 491.75 C 328.960938 491.75 330.871094 493.660156 330.871094 496.386719 L 330.871094 562.960938 C 330.871094 576.328125 320.230469 586.96875 306.863281 586.96875 Z M 306.863281 586.96875 " fill-opacity="1" fill-rule="evenodd"/><path fill="#ff7428" d="M 257.75 607.15625 C 244.109375 607.15625 233.195312 595.972656 233.195312 582.601562 C 233.195312 568.960938 244.109375 557.773438 257.75 557.773438 C 271.394531 557.773438 282.308594 568.960938 282.308594 582.601562 C 282.308594 595.972656 271.394531 607.15625 257.75 607.15625 Z M 257.75 607.15625 " fill-opacity="1" fill-rule="evenodd"/><path fill="#ff7428" d="M 299.496094 366.246094 L 213.824219 366.246094 C 211.371094 366.246094 209.1875 364.335938 209.1875 361.878906 C 209.1875 359.152344 211.371094 357.242188 213.824219 357.242188 L 299.496094 357.242188 C 301.949219 357.242188 303.859375 359.152344 303.859375 361.878906 C 303.859375 364.335938 301.949219 366.246094 299.496094 366.246094 Z M 299.496094 366.246094 " fill-opacity="1" fill-rule="evenodd"/><path fill="#ff7428" d="M 193.636719 386.4375 C 180.265625 386.4375 169.082031 375.523438 169.082031 361.878906 C 169.082031 348.238281 180.265625 337.054688 193.636719 337.054688 C 207.277344 337.054688 218.464844 348.238281 218.464844 361.878906 C 218.464844 375.523438 207.277344 386.4375 193.636719 386.4375 Z M 193.636719 386.4375 " fill-opacity="1" fill-rule="evenodd"/><path fill="#ff7428" d="M 299.496094 415.628906 L 273.847656 415.628906 C 271.394531 415.628906 269.210938 413.71875 269.210938 411.261719 C 269.210938 408.808594 271.394531 406.625 273.847656 406.625 L 299.496094 406.625 C 301.949219 406.625 303.859375 408.808594 303.859375 411.261719 C 303.859375 413.71875 301.949219 415.628906 299.496094 415.628906 Z M 299.496094 415.628906 " fill-opacity="1" fill-rule="evenodd"/><path fill="#ff7428" d="M 253.660156 435.820312 C 240.019531 435.820312 229.105469 424.90625 229.105469 411.261719 C 229.105469 397.621094 240.019531 386.4375 253.660156 386.4375 C 267.300781 386.4375 278.488281 397.621094 278.488281 411.261719 C 278.488281 424.90625 267.300781 435.820312 253.660156 435.820312 Z M 253.660156 435.820312 " fill-opacity="1" fill-rule="evenodd"/><path fill="#ff7428" d="M 299.496094 465.011719 L 213.824219 465.011719 C 211.371094 465.011719 209.1875 462.828125 209.1875 460.375 C 209.1875 457.917969 211.371094 455.734375 213.824219 455.734375 L 299.496094 455.734375 C 301.949219 455.734375 303.859375 457.917969 303.859375 460.375 C 303.859375 462.828125 301.949219 465.011719 299.496094 465.011719 Z M 299.496094 465.011719 " fill-opacity="1" fill-rule="evenodd"/><path fill="#ff7428" d="M 193.636719 484.929688 C 180.265625 484.929688 169.082031 474.015625 169.082031 460.375 C 169.082031 446.730469 180.265625 435.820312 193.636719 435.820312 C 207.277344 435.820312 218.464844 446.730469 218.464844 460.375 C 218.464844 474.015625 207.277344 484.929688 193.636719 484.929688 Z M 193.636719 484.929688 " fill-opacity="1" fill-rule="evenodd"/></svg>