<svg xmlns="http://www.w3.org/2000/svg" xmlns:xlink="http://www.w3.org/1999/xlink" width="1080" zoomAndPan="magnify" viewBox="0 0 810 809.999993" height="1080" preserveAspectRatio="xMidYMid meet" version="1.0"><defs><clipPath id="053b9fdeea"><path d="M 201 164.292969 L 426 164.292969 L 426 267 L 201 267 Z M 201 164.292969 " clip-rule="nonzero"/></clipPath><clipPath id="ea89c117a4"><path d="M 216 567 L 501 567 L 501 652.542969 L 216 652.542969 Z M 216 567 " clip-rule="nonzero"/></clipPath><clipPath id="c039f2dd77"><path d="M 441 164.292969 L 483 164.292969 L 483 206 L 441 206 Z M 441 164.292969 " clip-rule="nonzero"/></clipPath><clipPath id="10c3b34fe9"><path d="M 161.410156 350 L 342 350 L 342 554 L 161.410156 554 Z M 161.410156 350 " clip-rule="nonzero"/></clipPath></defs><rect x="-81" width="972" fill="#ffffff" y="-80.999999" height="971.999992" fill-opacity="1"/><rect x="-81" width="972" fill="#ffffff" y="-80.999999" height="971.999992" fill-opacity="1"/><g clip-path="url(#053b9fdeea)"><path fill="#f5a93b" d="M 203.972656 266.976562 C 203.445312 266.976562 202.917969 266.8125 202.464844 266.476562 C 201.339844 265.640625 201.105469 264.054688 201.941406 262.929688 C 207.5 255.449219 213.550781 248.207031 219.933594 241.40625 C 220.890625 240.386719 222.496094 240.335938 223.515625 241.292969 C 224.535156 242.25 224.585938 243.851562 223.628906 244.875 C 217.378906 251.535156 211.453125 258.625 206.007812 265.953125 C 205.511719 266.621094 204.746094 266.976562 203.972656 266.976562 Z M 241.90625 226.542969 C 241.1875 226.542969 240.472656 226.238281 239.96875 225.648438 C 239.066406 224.578125 239.199219 222.980469 240.265625 222.074219 C 247.382812 216.042969 254.921875 210.363281 262.671875 205.191406 C 263.835938 204.417969 265.410156 204.730469 266.183594 205.894531 C 266.960938 207.058594 266.648438 208.632812 265.484375 209.410156 C 257.894531 214.472656 250.511719 220.035156 243.542969 225.941406 C 243.066406 226.34375 242.484375 226.542969 241.90625 226.542969 Z M 288.023438 195.777344 C 287.101562 195.777344 286.214844 195.273438 285.765625 194.398438 C 285.128906 193.152344 285.621094 191.625 286.863281 190.988281 C 295.167969 186.734375 303.804688 182.925781 312.535156 179.664062 C 313.84375 179.171875 315.304688 179.839844 315.792969 181.148438 C 316.285156 182.460938 315.617188 183.921875 314.308594 184.410156 C 305.761719 187.605469 297.304688 191.335938 289.175781 195.5 C 288.804688 195.6875 288.410156 195.777344 288.023438 195.777344 Z M 339.941406 176.375 C 338.804688 176.375 337.769531 175.601562 337.484375 174.445312 C 337.148438 173.089844 337.976562 171.714844 339.335938 171.378906 C 348.378906 169.152344 357.65625 167.425781 366.917969 166.25 C 368.304688 166.070312 369.574219 167.054688 369.75 168.441406 C 369.925781 169.832031 368.945312 171.101562 367.554688 171.277344 C 358.488281 172.425781 349.402344 174.117188 340.550781 176.300781 C 340.347656 176.351562 340.140625 176.375 339.941406 176.375 Z M 422.675781 170.609375 C 422.589844 170.609375 422.503906 170.605469 422.417969 170.597656 C 414.347656 169.777344 406.121094 169.359375 397.964844 169.359375 C 396.964844 169.359375 395.953125 169.367188 394.964844 169.378906 C 394.953125 169.378906 394.941406 169.378906 394.933594 169.378906 C 393.546875 169.378906 392.417969 168.265625 392.398438 166.875 C 392.382812 165.476562 393.503906 164.328125 394.902344 164.3125 C 395.914062 164.300781 396.941406 164.292969 397.960938 164.292969 C 406.292969 164.292969 414.691406 164.71875 422.929688 165.554688 C 424.320312 165.695312 425.335938 166.9375 425.191406 168.332031 C 425.0625 169.636719 423.960938 170.609375 422.675781 170.609375 Z M 422.675781 170.609375 " fill-opacity="1" fill-rule="nonzero"/></g><g clip-path="url(#ea89c117a4)"><path fill="#f5a93b" d="M 390.445312 652.296875 C 390.421875 652.296875 390.394531 652.296875 390.367188 652.296875 C 381.023438 652.007812 371.621094 651.183594 362.417969 649.839844 C 361.03125 649.640625 360.074219 648.351562 360.277344 646.96875 C 360.476562 645.582031 361.761719 644.625 363.148438 644.828125 C 372.160156 646.140625 381.371094 646.949219 390.523438 647.230469 C 391.921875 647.273438 393.019531 648.441406 392.976562 649.839844 C 392.9375 651.210938 391.8125 652.296875 390.445312 652.296875 Z M 418.199219 651.574219 C 416.894531 651.574219 415.785156 650.574219 415.675781 649.25 C 415.558594 647.855469 416.597656 646.632812 417.992188 646.515625 C 427.105469 645.761719 436.257812 644.46875 445.191406 642.679688 C 446.566406 642.402344 447.898438 643.292969 448.175781 644.664062 C 448.449219 646.035156 447.5625 647.371094 446.1875 647.648438 C 437.066406 649.476562 427.71875 650.792969 418.410156 651.566406 C 418.339844 651.574219 418.269531 651.574219 418.199219 651.574219 Z M 335.585938 644.277344 C 335.367188 644.277344 335.148438 644.25 334.929688 644.191406 C 325.921875 641.789062 316.953125 638.835938 308.28125 635.40625 C 306.980469 634.890625 306.339844 633.417969 306.855469 632.117188 C 307.371094 630.816406 308.84375 630.179688 310.144531 630.691406 C 318.636719 634.050781 327.414062 636.945312 336.234375 639.296875 C 337.589844 639.65625 338.390625 641.046875 338.03125 642.398438 C 337.730469 643.53125 336.703125 644.277344 335.585938 644.277344 Z M 472.550781 640.675781 C 471.480469 640.675781 470.488281 639.992188 470.140625 638.921875 C 469.707031 637.589844 470.4375 636.164062 471.769531 635.730469 C 480.449219 632.914062 489.058594 629.558594 497.363281 625.757812 C 498.636719 625.171875 500.140625 625.734375 500.722656 627.003906 C 501.304688 628.277344 500.746094 629.78125 499.472656 630.363281 C 490.992188 634.246094 482.195312 637.675781 473.332031 640.550781 C 473.070312 640.636719 472.808594 640.675781 472.550781 640.675781 Z M 284.019531 623.902344 C 283.617188 623.902344 283.207031 623.804688 282.824219 623.597656 C 274.613281 619.199219 266.5625 614.265625 258.898438 608.945312 C 257.75 608.144531 257.464844 606.566406 258.265625 605.417969 C 259.0625 604.265625 260.640625 603.980469 261.789062 604.78125 C 269.296875 609.992188 277.179688 614.824219 285.21875 619.132812 C 286.453125 619.792969 286.917969 621.328125 286.253906 622.5625 C 285.796875 623.414062 284.921875 623.902344 284.019531 623.902344 Z M 238.484375 592.277344 C 237.890625 592.277344 237.292969 592.070312 236.8125 591.644531 C 229.8125 585.488281 223.09375 578.855469 216.84375 571.941406 C 215.902344 570.902344 215.984375 569.300781 217.023438 568.363281 C 218.0625 567.421875 219.664062 567.503906 220.601562 568.542969 C 226.722656 575.316406 233.304688 581.808594 240.160156 587.839844 C 241.210938 588.765625 241.3125 590.367188 240.386719 591.417969 C 239.886719 591.984375 239.1875 592.277344 238.484375 592.277344 Z M 238.484375 592.277344 " fill-opacity="1" fill-rule="nonzero"/></g><path fill="#f5a93b" d="M 617.824219 511 C 617.472656 511 617.117188 510.925781 616.773438 510.773438 C 615.5 510.191406 614.941406 508.6875 615.519531 507.414062 C 619.246094 499.246094 622.542969 490.777344 625.3125 482.242188 C 625.746094 480.910156 627.175781 480.183594 628.507812 480.613281 C 629.835938 481.046875 630.566406 482.476562 630.132812 483.808594 C 627.300781 492.523438 623.9375 501.175781 620.132812 509.519531 C 619.707031 510.449219 618.789062 511 617.824219 511 Z M 634.757812 458.699219 C 634.59375 458.699219 634.425781 458.679688 634.257812 458.648438 C 632.886719 458.371094 631.996094 457.035156 632.273438 455.664062 C 634.066406 446.730469 635.363281 437.574219 636.121094 428.460938 C 636.238281 427.0625 637.464844 426.027344 638.855469 426.144531 C 640.25 426.261719 641.289062 427.484375 641.171875 428.878906 C 640.394531 438.1875 639.074219 447.535156 637.242188 456.660156 C 637 457.867188 635.941406 458.699219 634.757812 458.699219 Z M 639.375 403.445312 C 638.011719 403.445312 636.886719 402.363281 636.84375 400.988281 C 636.566406 391.839844 635.761719 382.632812 634.449219 373.625 C 634.25 372.238281 635.207031 370.953125 636.59375 370.753906 C 637.976562 370.550781 639.265625 371.511719 639.464844 372.894531 C 640.804688 382.09375 641.625 391.496094 641.910156 400.835938 C 641.949219 402.234375 640.851562 403.402344 639.453125 403.445312 C 639.425781 403.445312 639.402344 403.445312 639.375 403.445312 Z M 631.378906 348.605469 C 630.261719 348.605469 629.234375 347.859375 628.933594 346.722656 C 626.585938 337.90625 623.699219 329.128906 620.347656 320.636719 C 619.832031 319.335938 620.46875 317.863281 621.773438 317.351562 C 623.074219 316.835938 624.546875 317.476562 625.058594 318.777344 C 628.484375 327.449219 631.433594 336.414062 633.832031 345.421875 C 634.191406 346.773438 633.386719 348.160156 632.035156 348.519531 C 631.816406 348.578125 631.597656 348.605469 631.378906 348.605469 Z M 611.039062 297.054688 C 610.132812 297.054688 609.257812 296.570312 608.800781 295.714844 C 604.496094 287.675781 599.671875 279.792969 594.464844 272.285156 C 593.667969 271.132812 593.953125 269.554688 595.101562 268.757812 C 596.25 267.960938 597.832031 268.246094 598.628906 269.394531 C 603.945312 277.0625 608.871094 285.113281 613.269531 293.324219 C 613.929688 294.558594 613.464844 296.09375 612.230469 296.753906 C 611.851562 296.957031 611.441406 297.054688 611.039062 297.054688 Z M 579.441406 251.507812 C 578.738281 251.507812 578.039062 251.214844 577.539062 250.644531 C 571.511719 243.789062 565.019531 237.203125 558.25 231.078125 C 557.210938 230.140625 557.132812 228.539062 558.070312 227.5 C 559.011719 226.460938 560.613281 226.382812 561.648438 227.320312 C 568.5625 233.574219 575.191406 240.296875 581.34375 247.300781 C 582.269531 248.351562 582.164062 249.953125 581.113281 250.875 C 580.632812 251.296875 580.035156 251.507812 579.441406 251.507812 Z M 579.441406 251.507812 " fill-opacity="1" fill-rule="nonzero"/><path fill="#ff7428" d="M 575.296875 408.351562 C 575.296875 411.253906 575.222656 414.152344 575.082031 417.054688 C 574.941406 419.953125 574.726562 422.84375 574.441406 425.734375 C 574.15625 428.621094 573.800781 431.5 573.375 434.371094 C 572.949219 437.242188 572.453125 440.101562 571.886719 442.949219 C 571.320312 445.792969 570.6875 448.625 569.980469 451.441406 C 569.277344 454.253906 568.503906 457.050781 567.660156 459.828125 C 566.816406 462.605469 565.90625 465.359375 564.929688 468.09375 C 563.953125 470.824219 562.90625 473.53125 561.796875 476.214844 C 560.6875 478.894531 559.511719 481.546875 558.269531 484.171875 C 557.027344 486.792969 555.722656 489.386719 554.355469 491.945312 C 552.988281 494.503906 551.558594 497.027344 550.066406 499.519531 C 548.574219 502.007812 547.023438 504.457031 545.410156 506.871094 C 543.796875 509.285156 542.125 511.65625 540.398438 513.988281 C 538.667969 516.320312 536.882812 518.605469 535.042969 520.851562 C 533.203125 523.09375 531.308594 525.289062 529.359375 527.441406 C 527.410156 529.589844 525.410156 531.691406 523.355469 533.742188 C 521.304688 535.796875 519.203125 537.796875 517.050781 539.746094 C 514.902344 541.695312 512.707031 543.589844 510.460938 545.429688 C 508.21875 547.273438 505.929688 549.058594 503.601562 550.785156 C 501.269531 552.515625 498.898438 554.183594 496.484375 555.796875 C 494.070312 557.410156 491.621094 558.960938 489.128906 560.453125 C 486.640625 561.945312 484.117188 563.375 481.558594 564.746094 C 478.996094 566.113281 476.40625 567.417969 473.78125 568.65625 C 471.160156 569.898438 468.507812 571.074219 465.824219 572.183594 C 463.144531 573.296875 460.4375 574.339844 457.703125 575.316406 C 454.972656 576.292969 452.21875 577.203125 449.441406 578.046875 C 446.664062 578.890625 443.867188 579.664062 441.050781 580.367188 C 438.238281 581.074219 435.40625 581.710938 432.558594 582.277344 C 429.714844 582.84375 426.855469 583.339844 423.984375 583.765625 C 421.113281 584.191406 418.234375 584.546875 415.34375 584.828125 C 412.457031 585.113281 409.5625 585.328125 406.664062 585.46875 C 403.765625 585.613281 400.867188 585.683594 397.964844 585.683594 C 395.0625 585.683594 392.160156 585.613281 389.261719 585.46875 C 386.363281 585.328125 383.46875 585.113281 380.582031 584.828125 C 377.695312 584.546875 374.816406 584.191406 371.945312 583.765625 C 369.074219 583.339844 366.214844 582.84375 363.367188 582.277344 C 360.523438 581.710938 357.691406 581.074219 354.875 580.367188 C 352.0625 579.664062 349.265625 578.890625 346.488281 578.046875 C 343.710938 577.207031 340.957031 576.296875 338.222656 575.316406 C 335.488281 574.339844 332.785156 573.296875 330.101562 572.183594 C 327.421875 571.074219 324.769531 569.898438 322.144531 568.65625 C 319.519531 567.417969 316.929688 566.113281 314.371094 564.746094 C 311.8125 563.375 309.285156 561.945312 306.796875 560.453125 C 304.308594 558.960938 301.855469 557.410156 299.445312 555.796875 C 297.03125 554.183594 294.660156 552.515625 292.328125 550.785156 C 289.996094 549.058594 287.710938 547.273438 285.464844 545.429688 C 283.222656 543.589844 281.027344 541.695312 278.875 539.746094 C 276.726562 537.796875 274.625 535.796875 272.570312 533.742188 C 270.519531 531.691406 268.519531 529.589844 266.570312 527.441406 C 264.621094 525.289062 262.726562 523.09375 260.882812 520.851562 C 259.042969 518.605469 257.257812 516.320312 255.53125 513.988281 C 253.800781 511.65625 252.128906 509.285156 250.519531 506.871094 C 248.90625 504.457031 247.351562 502.007812 245.863281 499.519531 C 244.371094 497.027344 242.9375 494.503906 241.570312 491.945312 C 240.203125 489.386719 238.898438 486.792969 237.65625 484.171875 C 236.417969 481.546875 235.242188 478.894531 234.128906 476.214844 C 233.019531 473.53125 231.976562 470.824219 231 468.09375 C 230.019531 465.359375 229.109375 462.605469 228.269531 459.828125 C 227.425781 457.050781 226.652344 454.253906 225.945312 451.441406 C 225.242188 448.625 224.605469 445.792969 224.039062 442.949219 C 223.472656 440.101562 222.976562 437.242188 222.550781 434.371094 C 222.125 431.5 221.769531 428.621094 221.484375 425.734375 C 221.203125 422.84375 220.988281 419.953125 220.847656 417.054688 C 220.703125 414.152344 220.632812 411.253906 220.632812 408.351562 C 220.632812 405.449219 220.703125 402.550781 220.847656 399.652344 C 220.988281 396.75 221.203125 393.859375 221.484375 390.96875 C 221.769531 388.082031 222.125 385.203125 222.550781 382.332031 C 222.976562 379.460938 223.472656 376.601562 224.039062 373.757812 C 224.605469 370.910156 225.242188 368.078125 225.945312 365.261719 C 226.652344 362.449219 227.425781 359.652344 228.269531 356.875 C 229.109375 354.097656 230.019531 351.34375 231 348.609375 C 231.976562 345.878906 233.019531 343.171875 234.128906 340.488281 C 235.242188 337.808594 236.417969 335.15625 237.65625 332.53125 C 238.898438 329.910156 240.203125 327.316406 241.570312 324.757812 C 242.9375 322.199219 244.371094 319.675781 245.863281 317.183594 C 247.351562 314.695312 248.90625 312.246094 250.519531 309.832031 C 252.128906 307.417969 253.800781 305.046875 255.53125 302.714844 C 257.257812 300.382812 259.042969 298.097656 260.882812 295.855469 C 262.726562 293.609375 264.621094 291.414062 266.570312 289.261719 C 268.519531 287.113281 270.519531 285.011719 272.570312 282.960938 C 274.625 280.90625 276.726562 278.90625 278.875 276.957031 C 281.027344 275.007812 283.222656 273.113281 285.464844 271.273438 C 287.710938 269.429688 289.996094 267.644531 292.328125 265.917969 C 294.660156 264.1875 297.03125 262.519531 299.445312 260.90625 C 301.855469 259.292969 304.308594 257.742188 306.796875 256.25 C 309.285156 254.757812 311.8125 253.328125 314.371094 251.960938 C 316.929688 250.589844 319.519531 249.285156 322.144531 248.046875 C 324.769531 246.804688 327.421875 245.628906 330.101562 244.519531 C 332.785156 243.40625 335.488281 242.363281 338.222656 241.386719 C 340.957031 240.410156 343.710938 239.5 346.488281 238.65625 C 349.265625 237.8125 352.0625 237.039062 354.875 236.335938 C 357.691406 235.628906 360.523438 234.992188 363.367188 234.425781 C 366.214844 233.859375 369.074219 233.363281 371.945312 232.9375 C 374.816406 232.511719 377.695312 232.160156 380.582031 231.875 C 383.46875 231.589844 386.363281 231.375 389.261719 231.234375 C 392.160156 231.089844 395.0625 231.019531 397.964844 231.019531 C 400.867188 231.019531 403.765625 231.089844 406.664062 231.234375 C 409.5625 231.375 412.457031 231.589844 415.34375 231.875 C 418.234375 232.160156 421.113281 232.511719 423.984375 232.9375 C 426.855469 233.363281 429.714844 233.859375 432.558594 234.425781 C 435.40625 234.992188 438.238281 235.628906 441.050781 236.335938 C 443.867188 237.039062 446.664062 237.8125 449.441406 238.65625 C 452.21875 239.5 454.972656 240.410156 457.703125 241.386719 C 460.4375 242.363281 463.144531 243.40625 465.824219 244.519531 C 468.507812 245.628906 471.160156 246.804688 473.78125 248.046875 C 476.40625 249.285156 478.996094 250.589844 481.558594 251.960938 C 484.117188 253.328125 486.640625 254.757812 489.128906 256.25 C 491.621094 257.742188 494.070312 259.292969 496.484375 260.90625 C 498.898438 262.519531 501.269531 264.1875 503.601562 265.917969 C 505.929688 267.644531 508.21875 269.429688 510.460938 271.273438 C 512.707031 273.113281 514.902344 275.007812 517.050781 276.957031 C 519.203125 278.90625 521.304688 280.90625 523.355469 282.960938 C 525.410156 285.011719 527.410156 287.113281 529.359375 289.261719 C 531.308594 291.414062 533.203125 293.609375 535.042969 295.855469 C 536.882812 298.097656 538.667969 300.382812 540.398438 302.714844 C 542.125 305.046875 543.796875 307.417969 545.410156 309.832031 C 547.023438 312.246094 548.574219 314.695312 550.066406 317.183594 C 551.558594 319.675781 552.988281 322.199219 554.355469 324.757812 C 555.722656 327.316406 557.027344 329.910156 558.269531 332.53125 C 559.511719 335.15625 560.6875 337.808594 561.796875 340.488281 C 562.90625 343.171875 563.953125 345.878906 564.929688 348.609375 C 565.90625 351.34375 566.816406 354.097656 567.660156 356.875 C 568.503906 359.652344 569.277344 362.449219 569.980469 365.261719 C 570.6875 368.078125 571.320312 370.910156 571.886719 373.757812 C 572.453125 376.601562 572.949219 379.460938 573.375 382.332031 C 573.800781 385.203125 574.15625 388.082031 574.441406 390.96875 C 574.726562 393.859375 574.941406 396.75 575.082031 399.652344 C 575.222656 402.550781 575.296875 405.449219 575.296875 408.351562 Z M 575.296875 408.351562 " fill-opacity="1" fill-rule="nonzero"/><path fill="#ffffff" d="M 567.804688 278.058594 C 567.804688 337.660156 520.5625 385.703125 461.953125 385.703125 C 403.34375 385.703125 356.105469 337.660156 356.105469 278.058594 Z M 567.804688 278.058594 " fill-opacity="1" fill-rule="nonzero"/><path fill="#f5a93b" d="M 461.953125 388.238281 C 447.28125 388.238281 433.058594 385.328125 419.691406 379.59375 C 406.773438 374.054688 395.183594 366.117188 385.242188 356.007812 C 375.304688 345.902344 367.503906 334.121094 362.0625 320.992188 C 356.425781 307.410156 353.570312 292.964844 353.570312 278.058594 C 353.570312 276.660156 354.703125 275.523438 356.105469 275.523438 L 567.804688 275.523438 C 569.203125 275.523438 570.339844 276.660156 570.339844 278.058594 C 570.339844 292.964844 567.480469 307.410156 561.847656 320.992188 C 556.402344 334.121094 548.601562 345.902344 538.664062 356.007812 C 528.722656 366.117188 517.132812 374.054688 504.21875 379.59375 C 490.847656 385.328125 476.628906 388.238281 461.953125 388.238281 Z M 358.667969 280.59375 C 359.992188 337.386719 405.816406 383.167969 461.953125 383.167969 C 518.09375 383.167969 563.917969 337.386719 565.242188 280.59375 Z M 358.667969 280.59375 " fill-opacity="1" fill-rule="nonzero"/><path fill="#ff7428" d="M 470.925781 278.058594 L 470.925781 283.441406 L 465.542969 301.382812 L 445.808594 304.96875 L 444.015625 317.527344 L 438.632812 328.292969 L 433.25 335.46875 L 433.25 344.441406 L 435.042969 353.410156 L 426.074219 349.820312 L 413.515625 342.644531 L 409.925781 331.882812 L 409.925781 315.734375 L 404.542969 294.207031 L 390.191406 290.617188 L 381.222656 278.058594 Z M 470.925781 278.058594 " fill-opacity="1" fill-rule="nonzero"/><path fill="#f5a93b" d="M 435.042969 355.945312 C 434.726562 355.945312 434.40625 355.882812 434.101562 355.761719 L 425.132812 352.175781 C 425.023438 352.132812 424.917969 352.082031 424.816406 352.023438 L 412.257812 344.84375 C 411.714844 344.535156 411.308594 344.039062 411.109375 343.445312 L 407.523438 332.683594 C 407.4375 332.425781 407.394531 332.152344 407.394531 331.882812 L 407.394531 316.046875 L 402.453125 296.296875 L 389.578125 293.074219 C 388.992188 292.929688 388.480469 292.582031 388.128906 292.089844 L 379.160156 279.53125 C 378.609375 278.757812 378.535156 277.742188 378.96875 276.898438 C 379.402344 276.054688 380.273438 275.523438 381.222656 275.523438 L 470.925781 275.523438 C 472.324219 275.523438 473.460938 276.660156 473.460938 278.058594 L 473.460938 283.441406 C 473.460938 283.6875 473.421875 283.933594 473.351562 284.167969 L 467.96875 302.109375 C 467.695312 303.023438 466.933594 303.703125 465.996094 303.875 L 448.058594 307.136719 L 446.523438 317.886719 C 446.484375 318.15625 446.402344 318.417969 446.28125 318.660156 L 440.898438 329.425781 C 440.828125 329.5625 440.75 329.691406 440.660156 329.8125 L 435.78125 336.3125 L 435.78125 344.1875 L 437.527344 352.914062 C 437.710938 353.824219 437.378906 354.761719 436.664062 355.359375 C 436.199219 355.742188 435.625 355.945312 435.042969 355.945312 Z M 427.175781 347.535156 L 431.640625 349.320312 L 430.765625 344.9375 C 430.730469 344.773438 430.714844 344.605469 430.714844 344.441406 L 430.714844 335.46875 C 430.714844 334.921875 430.894531 334.386719 431.222656 333.949219 L 436.46875 326.957031 L 441.5625 316.761719 L 443.300781 304.613281 C 443.453125 303.53125 444.28125 302.671875 445.355469 302.476562 L 463.5625 299.167969 L 468.390625 283.070312 L 468.390625 280.59375 L 386.144531 280.59375 L 391.710938 288.386719 L 405.160156 291.746094 C 406.066406 291.972656 406.773438 292.683594 407.003906 293.589844 L 412.382812 315.121094 C 412.433594 315.320312 412.460938 315.527344 412.460938 315.734375 L 412.460938 331.46875 L 415.613281 340.925781 Z M 427.175781 347.535156 " fill-opacity="1" fill-rule="nonzero"/><path fill="#ff7428" d="M 533.71875 357 L 508.601562 348.027344 L 483.484375 340.851562 L 488.867188 319.324219 L 517.570312 304.96875 L 540.894531 312.144531 L 560.628906 315.734375 L 561.179688 315.734375 C 555.410156 331.519531 546.109375 345.535156 534.246094 356.796875 Z M 533.71875 357 " fill-opacity="1" fill-rule="nonzero"/><path fill="#f5a93b" d="M 533.71875 359.53125 C 533.429688 359.53125 533.140625 359.484375 532.863281 359.382812 L 507.824219 350.441406 L 482.785156 343.289062 C 481.472656 342.914062 480.695312 341.5625 481.023438 340.238281 L 486.40625 318.707031 C 486.585938 317.992188 487.070312 317.386719 487.730469 317.054688 L 516.4375 302.703125 C 517.019531 302.414062 517.695312 302.355469 518.316406 302.546875 L 541.496094 309.679688 L 560.859375 313.199219 L 561.179688 313.199219 C 562.007812 313.203125 562.785156 313.605469 563.257812 314.285156 C 563.730469 314.960938 563.84375 315.828125 563.558594 316.605469 C 557.75 332.492188 548.21875 347.027344 535.992188 358.636719 C 535.746094 358.867188 535.457031 359.050781 535.140625 359.167969 L 534.613281 359.367188 C 534.324219 359.476562 534.019531 359.53125 533.71875 359.53125 Z M 486.535156 339.089844 L 509.296875 345.589844 C 509.347656 345.605469 509.402344 345.625 509.453125 345.640625 L 533.328125 354.167969 C 543.851562 343.949219 552.21875 331.4375 557.6875 317.773438 L 540.441406 314.640625 C 540.339844 314.621094 540.246094 314.597656 540.148438 314.566406 L 517.796875 307.691406 L 491.039062 321.066406 Z M 486.535156 339.089844 " fill-opacity="1" fill-rule="nonzero"/><path fill="#ffffff" d="M 430.109375 249.4375 L 429.660156 240.382812 C 429.660156 226.691406 448.261719 217.058594 461.953125 217.058594 C 475.644531 217.058594 494.246094 226.691406 494.246094 240.382812 L 494.246094 249.589844 Z M 430.109375 249.4375 " fill-opacity="1" fill-rule="nonzero"/><path fill="#f5a93b" d="M 494.246094 252.121094 C 492.847656 252.121094 491.714844 250.988281 491.714844 249.589844 L 491.714844 240.382812 C 491.714844 233.171875 485.539062 228.097656 481.859375 225.714844 C 476.027344 221.9375 468.402344 219.59375 461.953125 219.59375 C 455.507812 219.59375 447.882812 221.9375 442.050781 225.714844 C 438.378906 228.089844 432.230469 233.144531 432.195312 240.324219 L 432.640625 249.3125 C 432.710938 250.710938 431.632812 251.902344 430.234375 251.96875 C 428.839844 252.042969 427.648438 250.960938 427.578125 249.566406 L 427.128906 240.507812 C 427.128906 240.46875 427.128906 240.425781 427.128906 240.382812 C 427.128906 233.261719 431.449219 226.542969 439.296875 221.460938 C 446.003906 217.117188 454.472656 214.527344 461.953125 214.527344 C 469.4375 214.527344 477.90625 217.117188 484.613281 221.460938 C 492.460938 226.542969 496.78125 233.261719 496.78125 240.382812 L 496.78125 249.589844 C 496.78125 250.988281 495.648438 252.121094 494.246094 252.121094 Z M 494.246094 252.121094 " fill-opacity="1" fill-rule="nonzero"/><path fill="#f5a93b" d="M 474.511719 251.886719 L 449.394531 251.886719 C 447.996094 251.886719 446.863281 250.753906 446.863281 249.355469 C 446.863281 247.953125 447.996094 246.820312 449.394531 246.820312 L 474.511719 246.820312 C 475.910156 246.820312 477.046875 247.953125 477.046875 249.355469 C 477.046875 250.753906 475.914062 251.886719 474.511719 251.886719 Z M 474.511719 251.886719 " fill-opacity="1" fill-rule="nonzero"/><path fill="#ffffff" d="M 479.894531 184.765625 C 479.894531 185.355469 479.867188 185.941406 479.808594 186.527344 C 479.75 187.109375 479.664062 187.691406 479.550781 188.265625 C 479.4375 188.84375 479.292969 189.414062 479.121094 189.976562 C 478.953125 190.539062 478.753906 191.089844 478.53125 191.632812 C 478.304688 192.175781 478.054688 192.707031 477.777344 193.222656 C 477.5 193.742188 477.199219 194.246094 476.871094 194.734375 C 476.546875 195.222656 476.195312 195.695312 475.824219 196.148438 C 475.449219 196.601562 475.054688 197.039062 474.640625 197.453125 C 474.226562 197.867188 473.789062 198.261719 473.335938 198.636719 C 472.882812 199.007812 472.410156 199.359375 471.921875 199.683594 C 471.433594 200.011719 470.929688 200.3125 470.410156 200.589844 C 469.894531 200.867188 469.363281 201.117188 468.820312 201.34375 C 468.277344 201.566406 467.722656 201.765625 467.164062 201.933594 C 466.601562 202.105469 466.03125 202.25 465.453125 202.363281 C 464.878906 202.476562 464.296875 202.5625 463.710938 202.621094 C 463.128906 202.679688 462.542969 202.707031 461.953125 202.707031 C 461.367188 202.707031 460.78125 202.679688 460.195312 202.621094 C 459.609375 202.5625 459.03125 202.476562 458.453125 202.363281 C 457.878906 202.25 457.308594 202.105469 456.746094 201.933594 C 456.183594 201.765625 455.632812 201.566406 455.089844 201.34375 C 454.546875 201.117188 454.015625 200.867188 453.496094 200.589844 C 452.980469 200.3125 452.476562 200.011719 451.988281 199.683594 C 451.5 199.359375 451.027344 199.007812 450.574219 198.636719 C 450.117188 198.261719 449.683594 197.867188 449.269531 197.453125 C 448.851562 197.039062 448.457031 196.601562 448.085938 196.148438 C 447.714844 195.695312 447.363281 195.222656 447.035156 194.734375 C 446.710938 194.246094 446.410156 193.742188 446.132812 193.222656 C 445.855469 192.707031 445.605469 192.175781 445.378906 191.632812 C 445.152344 191.089844 444.957031 190.539062 444.785156 189.976562 C 444.617188 189.414062 444.472656 188.84375 444.359375 188.265625 C 444.242188 187.691406 444.15625 187.109375 444.101562 186.527344 C 444.042969 185.941406 444.011719 185.355469 444.011719 184.765625 C 444.011719 184.179688 444.042969 183.59375 444.101562 183.007812 C 444.15625 182.425781 444.242188 181.84375 444.359375 181.265625 C 444.472656 180.691406 444.617188 180.121094 444.785156 179.558594 C 444.957031 178.996094 445.152344 178.445312 445.378906 177.902344 C 445.605469 177.359375 445.855469 176.828125 446.132812 176.308594 C 446.410156 175.792969 446.710938 175.289062 447.035156 174.800781 C 447.363281 174.3125 447.714844 173.839844 448.085938 173.386719 C 448.457031 172.929688 448.851562 172.496094 449.269531 172.082031 C 449.683594 171.664062 450.117188 171.273438 450.574219 170.898438 C 451.027344 170.527344 451.5 170.175781 451.988281 169.851562 C 452.476562 169.523438 452.980469 169.222656 453.496094 168.945312 C 454.015625 168.667969 454.546875 168.417969 455.089844 168.191406 C 455.632812 167.96875 456.183594 167.769531 456.746094 167.597656 C 457.308594 167.429688 457.878906 167.285156 458.453125 167.171875 C 459.03125 167.054688 459.609375 166.96875 460.195312 166.914062 C 460.78125 166.855469 461.367188 166.828125 461.953125 166.828125 C 462.542969 166.828125 463.128906 166.855469 463.710938 166.914062 C 464.296875 166.96875 464.878906 167.054688 465.453125 167.171875 C 466.03125 167.285156 466.601562 167.429688 467.164062 167.597656 C 467.722656 167.769531 468.277344 167.96875 468.820312 168.191406 C 469.363281 168.417969 469.894531 168.667969 470.410156 168.945312 C 470.929688 169.222656 471.433594 169.523438 471.921875 169.851562 C 472.410156 170.175781 472.882812 170.527344 473.335938 170.898438 C 473.789062 171.273438 474.226562 171.664062 474.640625 172.082031 C 475.054688 172.496094 475.449219 172.929688 475.824219 173.386719 C 476.195312 173.839844 476.546875 174.3125 476.871094 174.800781 C 477.199219 175.289062 477.5 175.792969 477.777344 176.308594 C 478.054688 176.828125 478.304688 177.359375 478.53125 177.902344 C 478.753906 178.445312 478.953125 178.996094 479.121094 179.558594 C 479.292969 180.121094 479.4375 180.691406 479.550781 181.265625 C 479.664062 181.84375 479.75 182.425781 479.808594 183.007812 C 479.867188 183.59375 479.894531 184.179688 479.894531 184.765625 Z M 479.894531 184.765625 " fill-opacity="1" fill-rule="nonzero"/><g clip-path="url(#c039f2dd77)"><path fill="#f5a93b" d="M 461.953125 205.242188 C 450.664062 205.242188 441.480469 196.058594 441.480469 184.765625 C 441.480469 173.476562 450.664062 164.292969 461.953125 164.292969 C 473.242188 164.292969 482.429688 173.476562 482.429688 184.765625 C 482.429688 196.058594 473.242188 205.242188 461.953125 205.242188 Z M 461.953125 169.359375 C 453.457031 169.359375 446.546875 176.273438 446.546875 184.765625 C 446.546875 193.261719 453.460938 200.175781 461.953125 200.175781 C 470.449219 200.175781 477.359375 193.261719 477.359375 184.765625 C 477.359375 176.273438 470.449219 169.359375 461.953125 169.359375 Z M 461.953125 169.359375 " fill-opacity="1" fill-rule="nonzero"/></g><path fill="#ffffff" d="M 402.75 235 C 416.441406 235 435.042969 244.632812 435.042969 258.324219 L 435.042969 267.292969 L 370.457031 267.292969 L 370.457031 258.324219 C 370.457031 244.632812 389.058594 235 402.75 235 Z M 402.75 235 " fill-opacity="1" fill-rule="nonzero"/><path fill="#f5a93b" d="M 435.042969 269.828125 L 370.457031 269.828125 C 369.058594 269.828125 367.921875 268.695312 367.921875 267.292969 L 367.921875 258.324219 C 367.921875 251.203125 372.246094 244.484375 380.09375 239.402344 C 386.796875 235.058594 395.269531 232.46875 402.75 232.46875 C 410.230469 232.46875 418.703125 235.058594 425.40625 239.402344 C 433.253906 244.484375 437.578125 251.203125 437.578125 258.324219 L 437.578125 267.292969 C 437.578125 268.695312 436.441406 269.828125 435.042969 269.828125 Z M 372.992188 264.761719 L 432.507812 264.761719 L 432.507812 258.324219 C 432.507812 251.113281 426.335938 246.039062 422.652344 243.65625 C 416.824219 239.878906 409.195312 237.535156 402.75 237.535156 C 396.304688 237.535156 388.675781 239.878906 382.847656 243.65625 C 379.167969 246.039062 372.992188 251.113281 372.992188 258.324219 Z M 372.992188 264.761719 " fill-opacity="1" fill-rule="nonzero"/><path fill="#ffffff" d="M 420.691406 202.707031 C 420.691406 203.296875 420.660156 203.882812 420.605469 204.464844 C 420.546875 205.050781 420.460938 205.632812 420.347656 206.207031 C 420.230469 206.785156 420.089844 207.351562 419.917969 207.914062 C 419.746094 208.476562 419.550781 209.03125 419.324219 209.574219 C 419.101562 210.117188 418.847656 210.648438 418.574219 211.164062 C 418.296875 211.683594 417.992188 212.1875 417.667969 212.675781 C 417.339844 213.164062 416.992188 213.636719 416.617188 214.089844 C 416.246094 214.542969 415.851562 214.976562 415.4375 215.394531 C 415.019531 215.808594 414.585938 216.203125 414.132812 216.578125 C 413.675781 216.949219 413.207031 217.296875 412.71875 217.625 C 412.230469 217.953125 411.726562 218.253906 411.207031 218.53125 C 410.6875 218.808594 410.160156 219.058594 409.617188 219.28125 C 409.074219 219.507812 408.519531 219.707031 407.957031 219.875 C 407.394531 220.046875 406.828125 220.1875 406.25 220.304688 C 405.671875 220.417969 405.09375 220.503906 404.507812 220.5625 C 403.921875 220.621094 403.335938 220.648438 402.75 220.648438 C 402.164062 220.648438 401.578125 220.621094 400.992188 220.5625 C 400.40625 220.503906 399.824219 220.417969 399.25 220.304688 C 398.671875 220.1875 398.105469 220.046875 397.542969 219.875 C 396.980469 219.707031 396.425781 219.507812 395.882812 219.28125 C 395.339844 219.058594 394.8125 218.808594 394.292969 218.53125 C 393.773438 218.253906 393.269531 217.953125 392.78125 217.625 C 392.292969 217.296875 391.824219 216.949219 391.367188 216.578125 C 390.914062 216.203125 390.480469 215.808594 390.0625 215.394531 C 389.648438 214.976562 389.253906 214.542969 388.882812 214.089844 C 388.507812 213.636719 388.160156 213.164062 387.832031 212.675781 C 387.507812 212.1875 387.203125 211.683594 386.925781 211.164062 C 386.652344 210.648438 386.398438 210.117188 386.175781 209.574219 C 385.949219 209.03125 385.753906 208.476562 385.582031 207.914062 C 385.410156 207.351562 385.269531 206.785156 385.152344 206.207031 C 385.039062 205.632812 384.953125 205.050781 384.894531 204.464844 C 384.839844 203.882812 384.808594 203.296875 384.808594 202.707031 C 384.808594 202.121094 384.839844 201.535156 384.894531 200.949219 C 384.953125 200.363281 385.039062 199.785156 385.152344 199.207031 C 385.269531 198.632812 385.410156 198.0625 385.582031 197.5 C 385.753906 196.9375 385.949219 196.386719 386.175781 195.84375 C 386.398438 195.300781 386.652344 194.769531 386.925781 194.25 C 387.203125 193.730469 387.507812 193.230469 387.832031 192.742188 C 388.160156 192.25 388.507812 191.78125 388.882812 191.328125 C 389.253906 190.871094 389.648438 190.4375 390.0625 190.023438 C 390.480469 189.605469 390.914062 189.210938 391.367188 188.839844 C 391.824219 188.464844 392.292969 188.117188 392.78125 187.789062 C 393.269531 187.464844 393.773438 187.164062 394.292969 186.886719 C 394.8125 186.609375 395.339844 186.359375 395.882812 186.132812 C 396.425781 185.90625 396.980469 185.710938 397.542969 185.539062 C 398.105469 185.367188 398.671875 185.226562 399.25 185.113281 C 399.824219 184.996094 400.40625 184.910156 400.992188 184.851562 C 401.578125 184.796875 402.164062 184.765625 402.75 184.765625 C 403.335938 184.765625 403.921875 184.796875 404.507812 184.851562 C 405.09375 184.910156 405.671875 184.996094 406.25 185.113281 C 406.828125 185.226562 407.394531 185.367188 407.957031 185.539062 C 408.519531 185.710938 409.074219 185.90625 409.617188 186.132812 C 410.160156 186.359375 410.6875 186.609375 411.207031 186.886719 C 411.726562 187.164062 412.230469 187.464844 412.71875 187.789062 C 413.207031 188.117188 413.675781 188.464844 414.132812 188.839844 C 414.585938 189.210938 415.019531 189.605469 415.4375 190.023438 C 415.851562 190.4375 416.246094 190.871094 416.617188 191.328125 C 416.992188 191.78125 417.339844 192.25 417.667969 192.742188 C 417.992188 193.230469 418.296875 193.730469 418.570312 194.25 C 418.847656 194.769531 419.101562 195.300781 419.324219 195.84375 C 419.550781 196.386719 419.746094 196.9375 419.917969 197.5 C 420.089844 198.0625 420.230469 198.632812 420.347656 199.207031 C 420.460938 199.785156 420.546875 200.363281 420.605469 200.949219 C 420.660156 201.535156 420.691406 202.121094 420.691406 202.707031 Z M 420.691406 202.707031 " fill-opacity="1" fill-rule="nonzero"/><path fill="#f5a93b" d="M 402.75 223.183594 C 391.460938 223.183594 382.277344 213.996094 382.277344 202.707031 C 382.277344 191.417969 391.460938 182.234375 402.75 182.234375 C 414.039062 182.234375 423.222656 191.417969 423.222656 202.707031 C 423.222656 213.996094 414.039062 223.183594 402.75 223.183594 Z M 402.75 187.300781 C 394.253906 187.300781 387.34375 194.210938 387.34375 202.707031 C 387.34375 211.203125 394.253906 218.113281 402.75 218.113281 C 411.246094 218.113281 418.15625 211.203125 418.15625 202.707031 C 418.15625 194.210938 411.246094 187.300781 402.75 187.300781 Z M 402.75 187.300781 " fill-opacity="1" fill-rule="nonzero"/><path fill="#ffffff" d="M 521.160156 235 C 534.851562 235 553.453125 244.632812 553.453125 258.324219 L 553.453125 267.292969 L 488.867188 267.292969 L 488.867188 258.324219 C 488.867188 244.632812 507.46875 235 521.160156 235 Z M 521.160156 235 " fill-opacity="1" fill-rule="nonzero"/><path fill="#f5a93b" d="M 553.453125 269.828125 L 488.867188 269.828125 C 487.464844 269.828125 486.332031 268.695312 486.332031 267.292969 L 486.332031 258.324219 C 486.332031 251.203125 490.652344 244.484375 498.5 239.402344 C 505.207031 235.058594 513.675781 232.46875 521.160156 232.46875 C 528.640625 232.46875 537.109375 235.058594 543.816406 239.402344 C 551.664062 244.484375 555.984375 251.203125 555.984375 258.324219 L 555.984375 267.292969 C 555.984375 268.695312 554.851562 269.828125 553.453125 269.828125 Z M 491.398438 264.761719 L 550.917969 264.761719 L 550.917969 258.324219 C 550.917969 251.113281 544.742188 246.039062 541.0625 243.65625 C 535.230469 239.878906 527.605469 237.535156 521.160156 237.535156 C 514.710938 237.535156 507.085938 239.878906 501.253906 243.65625 C 497.574219 246.039062 491.398438 251.113281 491.398438 258.324219 Z M 491.398438 264.761719 " fill-opacity="1" fill-rule="nonzero"/><path fill="#ffffff" d="M 539.097656 202.707031 C 539.097656 203.296875 539.070312 203.882812 539.011719 204.464844 C 538.957031 205.050781 538.871094 205.632812 538.753906 206.207031 C 538.640625 206.785156 538.496094 207.351562 538.328125 207.914062 C 538.15625 208.476562 537.957031 209.03125 537.734375 209.574219 C 537.507812 210.117188 537.257812 210.648438 536.980469 211.164062 C 536.703125 211.683594 536.402344 212.1875 536.074219 212.675781 C 535.75 213.164062 535.398438 213.636719 535.027344 214.089844 C 534.65625 214.542969 534.261719 214.976562 533.84375 215.394531 C 533.429688 215.808594 532.996094 216.203125 532.539062 216.578125 C 532.085938 216.949219 531.613281 217.296875 531.125 217.625 C 530.636719 217.953125 530.132812 218.253906 529.617188 218.53125 C 529.097656 218.808594 528.566406 219.058594 528.023438 219.28125 C 527.480469 219.507812 526.929688 219.707031 526.367188 219.875 C 525.804688 220.046875 525.234375 220.1875 524.660156 220.304688 C 524.082031 220.417969 523.503906 220.503906 522.917969 220.5625 C 522.332031 220.621094 521.746094 220.648438 521.160156 220.648438 C 520.570312 220.648438 519.984375 220.621094 519.398438 220.5625 C 518.816406 220.503906 518.234375 220.417969 517.660156 220.304688 C 517.082031 220.1875 516.511719 220.046875 515.949219 219.875 C 515.386719 219.707031 514.835938 219.507812 514.292969 219.28125 C 513.75 219.058594 513.21875 218.808594 512.703125 218.53125 C 512.183594 218.253906 511.679688 217.953125 511.191406 217.625 C 510.703125 217.296875 510.230469 216.949219 509.777344 216.578125 C 509.324219 216.203125 508.886719 215.808594 508.472656 215.394531 C 508.058594 214.976562 507.664062 214.542969 507.289062 214.089844 C 506.917969 213.636719 506.566406 213.164062 506.242188 212.675781 C 505.914062 212.1875 505.613281 211.683594 505.335938 211.164062 C 505.058594 210.648438 504.808594 210.117188 504.582031 209.574219 C 504.359375 209.03125 504.160156 208.476562 503.992188 207.914062 C 503.820312 207.351562 503.675781 206.785156 503.5625 206.207031 C 503.449219 205.632812 503.363281 205.050781 503.304688 204.464844 C 503.246094 203.882812 503.21875 203.296875 503.21875 202.707031 C 503.21875 202.121094 503.246094 201.535156 503.304688 200.949219 C 503.363281 200.363281 503.449219 199.785156 503.5625 199.207031 C 503.675781 198.632812 503.820312 198.0625 503.992188 197.5 C 504.160156 196.9375 504.359375 196.386719 504.582031 195.84375 C 504.808594 195.300781 505.058594 194.769531 505.335938 194.25 C 505.613281 193.730469 505.914062 193.230469 506.242188 192.742188 C 506.566406 192.25 506.917969 191.78125 507.289062 191.328125 C 507.664062 190.871094 508.058594 190.4375 508.472656 190.023438 C 508.886719 189.605469 509.324219 189.210938 509.777344 188.839844 C 510.230469 188.464844 510.703125 188.117188 511.191406 187.789062 C 511.679688 187.464844 512.183594 187.164062 512.703125 186.886719 C 513.21875 186.609375 513.75 186.359375 514.292969 186.132812 C 514.835938 185.90625 515.386719 185.710938 515.949219 185.539062 C 516.511719 185.367188 517.082031 185.226562 517.660156 185.113281 C 518.234375 184.996094 518.816406 184.910156 519.398438 184.851562 C 519.984375 184.796875 520.570312 184.765625 521.160156 184.765625 C 521.746094 184.765625 522.332031 184.796875 522.917969 184.851562 C 523.503906 184.910156 524.082031 184.996094 524.660156 185.113281 C 525.234375 185.226562 525.804688 185.367188 526.367188 185.539062 C 526.929688 185.710938 527.480469 185.90625 528.023438 186.132812 C 528.566406 186.359375 529.097656 186.609375 529.617188 186.886719 C 530.132812 187.164062 530.636719 187.464844 531.125 187.789062 C 531.613281 188.117188 532.085938 188.464844 532.539062 188.839844 C 532.996094 189.210938 533.429688 189.605469 533.84375 190.023438 C 534.261719 190.4375 534.65625 190.871094 535.027344 191.328125 C 535.398438 191.78125 535.75 192.25 536.074219 192.742188 C 536.402344 193.230469 536.703125 193.730469 536.980469 194.25 C 537.257812 194.769531 537.507812 195.300781 537.734375 195.84375 C 537.957031 196.386719 538.15625 196.9375 538.328125 197.5 C 538.496094 198.0625 538.640625 198.632812 538.753906 199.207031 C 538.871094 199.785156 538.957031 200.363281 539.011719 200.949219 C 539.070312 201.535156 539.097656 202.121094 539.097656 202.707031 Z M 539.097656 202.707031 " fill-opacity="1" fill-rule="nonzero"/><path fill="#f5a93b" d="M 521.160156 223.183594 C 509.867188 223.183594 500.683594 213.996094 500.683594 202.707031 C 500.683594 191.417969 509.871094 182.234375 521.160156 182.234375 C 532.449219 182.234375 541.632812 191.417969 541.632812 202.707031 C 541.632812 213.996094 532.449219 223.183594 521.160156 223.183594 Z M 521.160156 187.300781 C 512.664062 187.300781 505.75 194.210938 505.75 202.707031 C 505.75 211.203125 512.664062 218.113281 521.160156 218.113281 C 529.652344 218.113281 536.566406 211.203125 536.566406 202.707031 C 536.566406 194.210938 529.652344 187.300781 521.160156 187.300781 Z M 521.160156 187.300781 " fill-opacity="1" fill-rule="nonzero"/><path fill="#ffffff" d="M 540.25 602.605469 L 380.59375 602.605469 C 377.023438 602.605469 374.128906 599.710938 374.128906 596.140625 L 374.128906 420.785156 C 374.128906 417.214844 377.023438 414.320312 380.59375 414.320312 L 545.140625 414.320312 Z M 540.25 602.605469 " fill-opacity="1" fill-rule="nonzero"/><path fill="#f5a93b" d="M 540.25 605.136719 L 380.59375 605.136719 C 375.632812 605.136719 371.59375 601.101562 371.59375 596.140625 L 371.59375 420.785156 C 371.59375 415.824219 375.632812 411.789062 380.59375 411.789062 L 545.140625 411.789062 C 546.539062 411.789062 547.671875 412.921875 547.671875 414.320312 C 547.671875 415.71875 546.539062 416.855469 545.140625 416.855469 L 380.59375 416.855469 C 378.425781 416.855469 376.664062 418.617188 376.664062 420.785156 L 376.664062 596.140625 C 376.664062 598.308594 378.425781 600.070312 380.59375 600.070312 L 540.25 600.070312 C 541.648438 600.070312 542.78125 601.203125 542.78125 602.605469 C 542.78125 604.003906 541.648438 605.136719 540.25 605.136719 Z M 540.25 605.136719 " fill-opacity="1" fill-rule="nonzero"/><path fill="#ff7428" d="M 544.476562 439.871094 L 545.140625 414.320312 L 380.589844 414.320312 C 377.023438 414.320312 374.128906 417.214844 374.128906 420.78125 L 374.128906 439.871094 Z M 544.476562 439.871094 " fill-opacity="1" fill-rule="nonzero"/><path fill="#f5a93b" d="M 544.476562 442.40625 C 544.453125 442.40625 544.433594 442.40625 544.410156 442.402344 C 543.011719 442.367188 541.90625 441.203125 541.941406 439.804688 L 542.539062 416.855469 L 380.59375 416.855469 C 378.425781 416.855469 376.664062 418.617188 376.664062 420.785156 L 376.664062 437.335938 L 493.84375 437.335938 C 495.242188 437.335938 496.378906 438.472656 496.378906 439.871094 C 496.378906 441.269531 495.242188 442.40625 493.84375 442.40625 L 374.128906 442.40625 C 372.730469 442.40625 371.59375 441.269531 371.59375 439.871094 L 371.59375 420.785156 C 371.59375 415.824219 375.632812 411.789062 380.59375 411.789062 L 545.140625 411.789062 C 545.824219 411.789062 546.476562 412.0625 546.953125 412.554688 C 547.429688 413.042969 547.691406 413.703125 547.671875 414.386719 L 547.007812 439.9375 C 546.972656 441.3125 545.847656 442.40625 544.476562 442.40625 Z M 544.476562 442.40625 " fill-opacity="1" fill-rule="nonzero"/><path fill="#ffffff" d="M 392.996094 478.398438 L 392.996094 470.203125 C 392.996094 462.464844 399.265625 456.195312 407.003906 456.195312 L 476.929688 456.195312 C 484.664062 456.195312 490.9375 462.46875 490.9375 470.203125 L 490.9375 478.398438 Z M 392.996094 478.398438 " fill-opacity="1" fill-rule="nonzero"/><path fill="#f5a93b" d="M 490.9375 480.933594 C 489.539062 480.933594 488.402344 479.796875 488.402344 478.398438 L 488.402344 470.203125 C 488.402344 463.875 483.257812 458.730469 476.929688 458.730469 L 407.003906 458.730469 C 400.675781 458.730469 395.527344 463.875 395.527344 470.203125 L 395.527344 478.398438 C 395.527344 479.796875 394.394531 480.933594 392.996094 480.933594 C 391.59375 480.933594 390.460938 479.796875 390.460938 478.398438 L 390.460938 470.203125 C 390.460938 461.082031 397.882812 453.660156 407.003906 453.660156 L 476.929688 453.660156 C 486.050781 453.660156 493.472656 461.082031 493.472656 470.203125 L 493.472656 478.398438 C 493.472656 479.796875 492.335938 480.933594 490.9375 480.933594 Z M 490.9375 480.933594 " fill-opacity="1" fill-rule="nonzero"/><path fill="#ffffff" d="M 490.9375 511.847656 L 490.9375 540.128906 C 490.9375 547.867188 484.664062 554.136719 476.929688 554.136719 L 407.003906 554.136719 C 399.265625 554.136719 392.996094 547.867188 392.996094 540.128906 L 392.996094 510.734375 Z M 490.9375 511.847656 " fill-opacity="1" fill-rule="nonzero"/><path fill="#f5a93b" d="M 476.929688 556.671875 L 407.003906 556.671875 C 397.882812 556.671875 390.460938 549.25 390.460938 540.128906 L 390.460938 510.734375 C 390.460938 509.335938 391.59375 508.199219 392.996094 508.199219 C 394.394531 508.199219 395.527344 509.335938 395.527344 510.734375 L 395.527344 540.128906 C 395.527344 546.457031 400.675781 551.605469 407 551.605469 L 476.929688 551.605469 C 483.257812 551.605469 488.402344 546.457031 488.402344 540.128906 L 488.402344 511.847656 C 488.402344 510.449219 489.539062 509.316406 490.9375 509.316406 C 492.335938 509.316406 493.472656 510.449219 493.472656 511.847656 L 493.472656 540.128906 C 493.472656 549.25 486.050781 556.671875 476.929688 556.671875 Z M 476.929688 556.671875 " fill-opacity="1" fill-rule="nonzero"/><path fill="#f5a93b" d="M 490.9375 580.417969 L 392.996094 580.417969 C 391.59375 580.417969 390.460938 579.28125 390.460938 577.882812 C 390.460938 576.484375 391.59375 575.347656 392.996094 575.347656 L 490.9375 575.347656 C 492.335938 575.347656 493.472656 576.484375 493.472656 577.882812 C 493.472656 579.28125 492.335938 580.417969 490.9375 580.417969 Z M 490.9375 580.417969 " fill-opacity="1" fill-rule="nonzero"/><path fill="#ff7428" d="M 476.09375 499.183594 L 476.09375 528.433594 C 476.09375 532.097656 473.125 535.070312 469.457031 535.070312 L 414.476562 535.070312 C 410.808594 535.070312 407.835938 532.097656 407.835938 528.433594 L 407.835938 499.183594 Z M 476.09375 499.183594 " fill-opacity="1" fill-rule="nonzero"/><path fill="#f5a93b" d="M 469.457031 537.605469 L 414.476562 537.605469 C 409.417969 537.605469 405.304688 533.488281 405.304688 528.433594 L 405.304688 499.183594 C 405.304688 497.78125 406.4375 496.648438 407.835938 496.648438 C 409.234375 496.648438 410.371094 497.785156 410.371094 499.183594 L 410.371094 528.433594 C 410.371094 530.695312 412.210938 532.539062 414.476562 532.539062 L 469.457031 532.539062 C 471.71875 532.539062 473.5625 530.695312 473.5625 528.433594 L 473.5625 499.183594 C 473.5625 497.78125 474.695312 496.648438 476.097656 496.648438 C 477.496094 496.648438 478.628906 497.785156 478.628906 499.183594 L 478.628906 528.433594 C 478.628906 533.488281 474.515625 537.605469 469.457031 537.605469 Z M 469.457031 537.605469 " fill-opacity="1" fill-rule="nonzero"/><path fill="#ff7428" d="M 389.417969 490.433594 L 439.964844 475.546875 C 441.269531 475.164062 442.660156 475.164062 443.96875 475.546875 L 494.515625 490.433594 C 496.171875 490.921875 496.171875 493.269531 494.515625 493.757812 L 443.96875 508.644531 C 442.660156 509.027344 441.269531 509.027344 439.964844 508.644531 L 389.417969 493.757812 C 387.757812 493.269531 387.757812 490.921875 389.417969 490.433594 Z M 389.417969 490.433594 " fill-opacity="1" fill-rule="nonzero"/><path fill="#f5a93b" d="M 441.964844 511.46875 C 441.050781 511.46875 440.136719 511.335938 439.246094 511.074219 L 388.699219 496.1875 C 386.871094 495.648438 385.640625 494.003906 385.640625 492.097656 C 385.640625 490.1875 386.871094 488.542969 388.699219 488.003906 L 439.246094 473.117188 C 441.027344 472.59375 442.90625 472.59375 444.683594 473.117188 L 495.230469 488.003906 C 497.0625 488.542969 498.292969 490.1875 498.292969 492.097656 C 498.292969 494.003906 497.0625 495.648438 495.230469 496.1875 L 444.683594 511.074219 C 443.796875 511.335938 442.878906 511.46875 441.964844 511.46875 Z M 392.742188 492.097656 L 440.679688 506.214844 C 441.519531 506.460938 442.410156 506.460938 443.253906 506.214844 L 491.1875 492.097656 L 443.253906 477.976562 C 442.410156 477.730469 441.519531 477.730469 440.679688 477.976562 Z M 389.417969 490.433594 L 390.132812 492.863281 Z M 389.417969 490.433594 " fill-opacity="1" fill-rule="nonzero"/><path fill="#ff7428" d="M 551.5625 486.046875 C 553.363281 485.453125 555.101562 484.710938 556.753906 483.835938 C 557.386719 483.496094 558.164062 483.59375 558.675781 484.09375 L 563.179688 488.511719 C 564.382812 489.691406 566.320312 489.675781 567.5 488.46875 L 575.742188 480.0625 C 576.925781 478.859375 576.90625 476.921875 575.699219 475.742188 L 571.195312 471.324219 C 570.683594 470.820312 570.574219 470.050781 570.898438 469.410156 C 571.742188 467.738281 572.449219 465.988281 573.007812 464.171875 C 573.21875 463.488281 573.832031 463.007812 574.550781 463 L 580.855469 462.9375 C 582.542969 462.921875 583.898438 461.539062 583.882812 459.851562 L 583.765625 448.082031 C 583.75 446.394531 582.371094 445.039062 580.683594 445.054688 L 574.375 445.117188 C 573.65625 445.125 573.035156 444.65625 572.808594 443.972656 C 572.21875 442.167969 571.476562 440.433594 570.597656 438.78125 C 570.261719 438.148438 570.355469 437.371094 570.859375 436.859375 L 575.273438 432.355469 C 576.457031 431.148438 576.4375 429.214844 575.230469 428.035156 L 566.824219 419.792969 C 565.621094 418.609375 563.6875 418.628906 562.503906 419.832031 L 558.085938 424.339844 C 557.585938 424.851562 556.8125 424.960938 556.171875 424.636719 C 554.503906 423.792969 552.753906 423.082031 550.9375 422.527344 C 550.25 422.316406 549.769531 421.703125 549.761719 420.984375 L 549.703125 414.675781 C 549.683594 412.988281 548.304688 411.632812 546.617188 411.652344 L 534.84375 411.765625 C 533.15625 411.785156 531.800781 413.164062 531.816406 414.851562 L 531.878906 421.160156 C 531.886719 421.878906 531.417969 422.5 530.738281 422.722656 C 528.933594 423.316406 527.195312 424.058594 525.542969 424.9375 C 524.910156 425.273438 524.136719 425.179688 523.621094 424.675781 L 519.117188 420.257812 C 517.914062 419.078125 515.976562 419.097656 514.796875 420.300781 L 506.554688 428.707031 C 505.371094 429.914062 505.390625 431.847656 506.597656 433.027344 L 511.101562 437.445312 C 511.613281 437.949219 511.722656 438.722656 511.398438 439.363281 C 510.554688 441.03125 509.847656 442.78125 509.289062 444.597656 C 509.078125 445.285156 508.464844 445.765625 507.746094 445.769531 L 501.441406 445.832031 C 499.753906 445.847656 498.398438 447.230469 498.414062 448.917969 L 498.53125 460.691406 C 498.546875 462.378906 499.925781 463.734375 501.613281 463.714844 L 507.921875 463.65625 C 508.640625 463.648438 509.261719 464.117188 509.488281 464.796875 C 510.078125 466.601562 510.820312 468.335938 511.699219 469.992188 C 512.035156 470.625 511.941406 471.398438 511.4375 471.910156 L 507.023438 476.417969 C 505.839844 477.621094 505.859375 479.554688 507.0625 480.738281 L 515.46875 488.980469 C 516.675781 490.160156 518.609375 490.140625 519.792969 488.9375 L 524.207031 484.433594 C 524.710938 483.921875 525.484375 483.8125 526.125 484.136719 C 527.792969 484.980469 529.542969 485.6875 531.359375 486.246094 Z M 551.5625 486.046875 " fill-opacity="1" fill-rule="nonzero"/><path fill="#f5a93b" d="M 517.609375 492.386719 C 516.136719 492.386719 514.75 491.820312 513.699219 490.789062 L 505.292969 482.546875 C 504.226562 481.5 503.628906 480.101562 503.617188 478.609375 C 503.601562 477.117188 504.167969 475.707031 505.214844 474.640625 L 509.167969 470.609375 C 508.441406 469.183594 507.8125 467.703125 507.285156 466.195312 L 501.640625 466.25 C 501.621094 466.25 501.605469 466.25 501.585938 466.25 C 498.527344 466.25 496.027344 463.777344 495.996094 460.714844 L 495.882812 448.941406 C 495.867188 447.449219 496.433594 446.039062 497.480469 444.976562 C 498.523438 443.910156 499.921875 443.3125 501.417969 443.300781 L 507.0625 443.242188 C 507.558594 441.722656 508.160156 440.230469 508.855469 438.792969 L 504.824219 434.839844 C 503.757812 433.792969 503.164062 432.394531 503.148438 430.902344 C 503.132812 429.410156 503.699219 428 504.746094 426.933594 L 512.988281 418.527344 C 514.035156 417.460938 515.433594 416.867188 516.925781 416.851562 C 518.425781 416.839844 519.828125 417.40625 520.894531 418.449219 L 524.925781 422.402344 C 526.351562 421.679688 527.832031 421.050781 529.339844 420.523438 L 529.285156 414.878906 C 529.253906 411.796875 531.738281 409.265625 534.820312 409.234375 L 546.59375 409.117188 C 546.609375 409.117188 546.628906 409.117188 546.648438 409.117188 C 548.121094 409.117188 549.507812 409.683594 550.558594 410.714844 C 551.625 411.761719 552.222656 413.160156 552.234375 414.652344 L 552.292969 420.296875 C 553.8125 420.792969 555.304688 421.394531 556.742188 422.09375 L 560.695312 418.058594 C 562.855469 415.859375 566.398438 415.824219 568.601562 417.980469 L 577.007812 426.226562 C 578.074219 427.269531 578.667969 428.667969 578.683594 430.160156 C 578.699219 431.652344 578.128906 433.0625 577.085938 434.128906 L 573.128906 438.160156 C 573.855469 439.585938 574.484375 441.066406 575.011719 442.578125 L 580.65625 442.523438 C 580.675781 442.523438 580.695312 442.523438 580.714844 442.523438 C 583.769531 442.523438 586.269531 444.992188 586.300781 448.054688 L 586.417969 459.828125 C 586.429688 461.320312 585.863281 462.730469 584.816406 463.796875 C 583.773438 464.863281 582.375 465.457031 580.882812 465.472656 L 575.238281 465.527344 C 574.742188 467.046875 574.140625 468.539062 573.441406 469.980469 L 577.476562 473.933594 C 578.539062 474.980469 579.136719 476.375 579.152344 477.871094 C 579.164062 479.363281 578.597656 480.773438 577.550781 481.839844 L 569.308594 490.242188 C 568.265625 491.308594 566.867188 491.90625 565.375 491.917969 C 563.871094 491.9375 562.472656 491.367188 561.40625 490.320312 L 557.375 486.367188 C 555.757812 487.1875 554.070312 487.890625 552.351562 488.453125 C 551.023438 488.890625 549.589844 488.167969 549.152344 486.839844 C 548.714844 485.507812 549.441406 484.078125 550.769531 483.640625 C 552.417969 483.097656 554.03125 482.410156 555.566406 481.597656 C 557.1875 480.734375 559.148438 481.011719 560.449219 482.285156 L 564.953125 486.703125 C 565.082031 486.828125 565.230469 486.855469 565.324219 486.851562 C 565.421875 486.851562 565.566406 486.824219 565.691406 486.695312 L 573.933594 478.289062 C 574.058594 478.164062 574.085938 478.019531 574.082031 477.917969 C 574.082031 477.820312 574.054688 477.675781 573.925781 477.550781 L 569.421875 473.132812 C 568.125 471.863281 567.808594 469.90625 568.636719 468.265625 C 569.421875 466.714844 570.078125 465.089844 570.585938 463.429688 C 571.125 461.675781 572.707031 460.484375 574.523438 460.46875 L 580.832031 460.40625 C 581.011719 460.402344 581.132812 460.320312 581.199219 460.25 C 581.269531 460.179688 581.351562 460.058594 581.347656 459.878906 L 581.234375 448.105469 C 581.230469 447.820312 580.996094 447.589844 580.710938 447.589844 C 580.710938 447.589844 580.707031 447.589844 580.707031 447.589844 L 574.398438 447.652344 C 574.386719 447.652344 574.371094 447.652344 574.359375 447.652344 C 572.558594 447.652344 570.972656 446.496094 570.402344 444.765625 C 569.859375 443.117188 569.171875 441.503906 568.359375 439.96875 C 567.5 438.347656 567.773438 436.386719 569.046875 435.085938 L 573.464844 430.582031 C 573.589844 430.453125 573.617188 430.308594 573.613281 430.210938 C 573.613281 430.113281 573.585938 429.96875 573.457031 429.84375 L 565.050781 421.601562 C 564.847656 421.398438 564.515625 421.402344 564.316406 421.609375 L 559.898438 426.113281 C 558.625 427.410156 556.667969 427.726562 555.03125 426.898438 C 553.480469 426.113281 551.855469 425.457031 550.195312 424.949219 C 548.4375 424.410156 547.246094 422.828125 547.230469 421.011719 L 547.167969 414.703125 C 547.164062 414.414062 546.925781 414.183594 546.640625 414.1875 L 534.871094 414.300781 C 534.582031 414.304688 534.351562 414.539062 534.351562 414.828125 L 534.414062 421.136719 C 534.433594 422.953125 533.273438 424.558594 531.527344 425.132812 C 529.878906 425.675781 528.265625 426.363281 526.730469 427.175781 C 525.109375 428.035156 523.148438 427.757812 521.851562 426.488281 L 517.34375 422.070312 C 517.21875 421.945312 517.074219 421.921875 516.972656 421.921875 C 516.875 421.921875 516.730469 421.949219 516.605469 422.078125 L 508.363281 430.480469 C 508.238281 430.609375 508.214844 430.753906 508.214844 430.851562 C 508.214844 430.953125 508.242188 431.09375 508.371094 431.21875 L 512.875 435.636719 C 514.175781 436.910156 514.488281 438.867188 513.660156 440.503906 C 512.878906 442.054688 512.222656 443.679688 511.710938 445.339844 C 511.171875 447.097656 509.589844 448.285156 507.773438 448.304688 L 501.464844 448.367188 C 501.285156 448.367188 501.167969 448.453125 501.097656 448.523438 C 501.027344 448.59375 500.949219 448.714844 500.949219 448.894531 L 501.066406 460.664062 C 501.066406 460.953125 501.300781 461.183594 501.585938 461.183594 C 501.589844 461.183594 501.589844 461.183594 501.589844 461.183594 L 507.898438 461.121094 C 507.914062 461.121094 507.925781 461.121094 507.941406 461.121094 C 509.742188 461.121094 511.328125 462.277344 511.894531 464.007812 C 512.4375 465.65625 513.125 467.269531 513.9375 468.800781 C 514.800781 470.425781 514.523438 472.386719 513.25 473.683594 L 508.832031 478.191406 C 508.707031 478.316406 508.683594 478.460938 508.683594 478.5625 C 508.683594 478.660156 508.710938 478.804688 508.839844 478.929688 L 517.246094 487.171875 C 517.371094 487.292969 517.511719 487.320312 517.609375 487.320312 C 517.613281 487.320312 517.613281 487.320312 517.617188 487.320312 C 517.714844 487.320312 517.859375 487.292969 517.984375 487.164062 L 522.402344 482.660156 C 523.671875 481.359375 525.628906 481.042969 527.269531 481.875 C 528.816406 482.65625 530.445312 483.3125 532.105469 483.824219 C 533.441406 484.234375 534.195312 485.648438 533.785156 486.988281 C 533.371094 488.324219 531.957031 489.078125 530.617188 488.667969 C 528.886719 488.136719 527.1875 487.46875 525.554688 486.679688 L 521.601562 490.710938 C 520.554688 491.777344 519.160156 492.371094 517.664062 492.386719 C 517.648438 492.386719 517.628906 492.386719 517.609375 492.386719 Z M 517.609375 492.386719 " fill-opacity="1" fill-rule="nonzero"/><path fill="#ffffff" d="M 559.941406 454.386719 C 559.941406 455.003906 559.910156 455.617188 559.847656 456.230469 C 559.789062 456.839844 559.699219 457.449219 559.578125 458.054688 C 559.457031 458.65625 559.308594 459.253906 559.128906 459.84375 C 558.953125 460.433594 558.746094 461.011719 558.507812 461.578125 C 558.273438 462.148438 558.011719 462.703125 557.71875 463.246094 C 557.429688 463.789062 557.113281 464.316406 556.773438 464.828125 C 556.429688 465.34375 556.0625 465.835938 555.671875 466.3125 C 555.28125 466.789062 554.871094 467.242188 554.433594 467.679688 C 554 468.113281 553.542969 468.527344 553.066406 468.917969 C 552.589844 469.308594 552.097656 469.675781 551.585938 470.015625 C 551.074219 470.359375 550.546875 470.675781 550.003906 470.964844 C 549.460938 471.253906 548.90625 471.519531 548.335938 471.753906 C 547.765625 471.988281 547.1875 472.195312 546.597656 472.375 C 546.011719 472.554688 545.414062 472.703125 544.808594 472.824219 C 544.207031 472.941406 543.597656 473.035156 542.984375 473.09375 C 542.371094 473.152344 541.757812 473.183594 541.140625 473.183594 C 540.527344 473.183594 539.914062 473.152344 539.300781 473.09375 C 538.6875 473.035156 538.078125 472.941406 537.476562 472.824219 C 536.871094 472.703125 536.273438 472.554688 535.6875 472.375 C 535.097656 472.195312 534.515625 471.988281 533.949219 471.753906 C 533.378906 471.519531 532.824219 471.253906 532.28125 470.964844 C 531.738281 470.675781 531.210938 470.359375 530.699219 470.015625 C 530.1875 469.675781 529.691406 469.308594 529.21875 468.917969 C 528.742188 468.527344 528.285156 468.113281 527.851562 467.679688 C 527.414062 467.242188 527.003906 466.789062 526.613281 466.3125 C 526.222656 465.835938 525.855469 465.34375 525.511719 464.828125 C 525.171875 464.316406 524.855469 463.789062 524.5625 463.246094 C 524.273438 462.703125 524.011719 462.148438 523.777344 461.578125 C 523.539062 461.011719 523.332031 460.433594 523.152344 459.84375 C 522.976562 459.253906 522.824219 458.65625 522.707031 458.054688 C 522.585938 457.449219 522.496094 456.839844 522.433594 456.230469 C 522.375 455.617188 522.34375 455.003906 522.34375 454.386719 C 522.34375 453.769531 522.375 453.15625 522.433594 452.542969 C 522.496094 451.929688 522.585938 451.324219 522.707031 450.71875 C 522.824219 450.117188 522.976562 449.519531 523.152344 448.929688 C 523.332031 448.339844 523.539062 447.761719 523.777344 447.191406 C 524.011719 446.625 524.273438 446.066406 524.5625 445.527344 C 524.855469 444.984375 525.171875 444.453125 525.511719 443.941406 C 525.855469 443.429688 526.222656 442.9375 526.613281 442.460938 C 527.003906 441.984375 527.414062 441.53125 527.851562 441.09375 C 528.285156 440.660156 528.742188 440.246094 529.21875 439.855469 C 529.691406 439.464844 530.1875 439.097656 530.699219 438.757812 C 531.210938 438.414062 531.738281 438.097656 532.28125 437.808594 C 532.824219 437.519531 533.378906 437.253906 533.949219 437.019531 C 534.515625 436.785156 535.097656 436.578125 535.6875 436.398438 C 536.273438 436.21875 536.871094 436.070312 537.476562 435.949219 C 538.078125 435.832031 538.6875 435.738281 539.300781 435.679688 C 539.914062 435.621094 540.527344 435.589844 541.140625 435.589844 C 541.757812 435.589844 542.371094 435.621094 542.984375 435.679688 C 543.597656 435.738281 544.207031 435.832031 544.808594 435.949219 C 545.414062 436.070312 546.011719 436.21875 546.597656 436.398438 C 547.1875 436.578125 547.765625 436.785156 548.335938 437.019531 C 548.90625 437.253906 549.460938 437.519531 550.003906 437.808594 C 550.546875 438.097656 551.074219 438.414062 551.585938 438.757812 C 552.097656 439.097656 552.589844 439.464844 553.066406 439.855469 C 553.542969 440.246094 554 440.660156 554.433594 441.09375 C 554.871094 441.53125 555.28125 441.984375 555.671875 442.460938 C 556.0625 442.9375 556.429688 443.429688 556.773438 443.941406 C 557.113281 444.453125 557.429688 444.984375 557.71875 445.527344 C 558.011719 446.070312 558.273438 446.625 558.507812 447.191406 C 558.746094 447.761719 558.953125 448.339844 559.128906 448.929688 C 559.308594 449.519531 559.457031 450.117188 559.578125 450.71875 C 559.699219 451.324219 559.789062 451.929688 559.847656 452.542969 C 559.910156 453.15625 559.941406 453.769531 559.941406 454.386719 Z M 559.941406 454.386719 " fill-opacity="1" fill-rule="nonzero"/><path fill="#f5a93b" d="M 541.144531 475.71875 C 529.480469 475.71875 519.933594 466.285156 519.816406 454.59375 C 519.761719 448.898438 521.929688 443.519531 525.917969 439.449219 C 529.90625 435.382812 535.242188 433.113281 540.941406 433.054688 C 546.644531 433 552.015625 435.164062 556.082031 439.15625 C 560.152344 443.144531 562.421875 448.480469 562.480469 454.175781 C 562.59375 465.9375 553.121094 475.601562 541.359375 475.714844 C 541.289062 475.71875 541.214844 475.71875 541.144531 475.71875 Z M 541.152344 438.121094 C 541.097656 438.121094 541.042969 438.121094 540.988281 438.121094 C 536.644531 438.164062 532.578125 439.898438 529.535156 443 C 526.496094 446.101562 524.84375 450.203125 524.886719 454.546875 C 524.972656 463.457031 532.253906 470.648438 541.148438 470.648438 C 541.199219 470.648438 541.253906 470.648438 541.308594 470.648438 C 550.277344 470.5625 557.5 463.195312 557.414062 454.226562 C 557.371094 449.882812 555.636719 445.816406 552.535156 442.773438 C 549.472656 439.769531 545.4375 438.121094 541.152344 438.121094 Z M 541.152344 438.121094 " fill-opacity="1" fill-rule="nonzero"/><path fill="#ffffff" d="M 579.4375 586.164062 L 579.4375 577.351562 C 590.949219 570.039062 597.917969 557.347656 597.917969 543.710938 L 597.917969 512.585938 C 597.917969 508.101562 594.285156 504.46875 589.800781 504.46875 C 585.320312 504.46875 581.683594 508.101562 581.683594 512.585938 L 581.683594 535.554688 L 581.683594 509.476562 C 581.683594 504.992188 578.050781 501.359375 573.566406 501.359375 C 569.082031 501.359375 565.449219 504.992188 565.449219 509.476562 L 565.449219 535.039062 L 565.449219 506.023438 C 565.449219 501.539062 561.816406 497.90625 557.332031 497.90625 C 552.847656 497.90625 549.214844 501.539062 549.214844 506.023438 L 549.214844 535.558594 L 549.214844 477.871094 C 549.214844 473.386719 545.578125 469.75 541.09375 469.75 C 536.613281 469.75 532.976562 473.386719 532.976562 477.871094 L 532.976562 534.175781 L 520.539062 513.820312 C 518.273438 510.109375 513.519531 508.78125 509.652344 510.78125 C 506.230469 512.554688 504.714844 516.640625 506.152344 520.21875 L 523.570312 563.550781 C 525.917969 569.386719 530.390625 574.113281 536.085938 576.777344 L 536.085938 586.105469 Z M 579.4375 586.164062 " fill-opacity="1" fill-rule="nonzero"/><path fill="#f5a93b" d="M 579.4375 588.695312 C 578.039062 588.695312 576.90625 587.5625 576.90625 586.164062 L 576.90625 577.351562 C 576.90625 576.484375 577.347656 575.679688 578.082031 575.214844 C 588.917969 568.328125 595.386719 556.550781 595.386719 543.710938 L 595.386719 512.585938 C 595.386719 509.507812 592.878906 507 589.800781 507 C 586.722656 507 584.21875 509.507812 584.21875 512.585938 L 584.21875 535.554688 C 584.21875 536.957031 583.082031 538.089844 581.683594 538.089844 C 580.285156 538.089844 579.152344 536.957031 579.152344 535.554688 L 579.152344 509.476562 C 579.152344 506.398438 576.644531 503.890625 573.566406 503.890625 C 570.503906 503.890625 568.007812 506.371094 567.984375 509.429688 L 567.984375 535.039062 C 567.984375 536.4375 566.847656 537.570312 565.449219 537.570312 C 564.050781 537.570312 562.917969 536.4375 562.917969 535.039062 L 562.914062 509.476562 C 562.914062 509.453125 562.914062 509.433594 562.917969 509.410156 L 562.917969 506.023438 C 562.917969 502.941406 560.410156 500.4375 557.332031 500.4375 C 554.28125 500.4375 551.792969 502.898438 551.75 505.941406 L 551.75 535.554688 C 551.75 536.957031 550.613281 538.089844 549.214844 538.089844 C 547.816406 538.089844 546.683594 536.957031 546.683594 535.554688 L 546.679688 506.023438 C 546.679688 505.984375 546.679688 505.945312 546.683594 505.910156 L 546.683594 477.871094 C 546.683594 474.789062 544.175781 472.285156 541.097656 472.285156 C 538.015625 472.285156 535.511719 474.789062 535.511719 477.871094 L 535.511719 534.175781 C 535.511719 535.308594 534.757812 536.304688 533.664062 536.613281 C 532.574219 536.921875 531.410156 536.464844 530.816406 535.496094 L 518.378906 515.140625 C 516.8125 512.578125 513.492188 511.648438 510.820312 513.03125 C 508.542969 514.210938 507.546875 516.894531 508.503906 519.273438 L 525.921875 562.605469 C 528.035156 567.863281 532.027344 572.082031 537.160156 574.480469 C 538.054688 574.898438 538.621094 575.792969 538.621094 576.777344 L 538.621094 586.105469 C 538.621094 587.503906 537.488281 588.640625 536.089844 588.640625 C 534.6875 588.640625 533.554688 587.503906 533.554688 586.105469 L 533.554688 578.335938 C 527.957031 575.304688 523.609375 570.441406 521.222656 564.496094 L 503.804688 521.164062 C 501.867188 516.347656 503.882812 510.917969 508.488281 508.53125 C 513.511719 505.933594 519.753906 507.675781 522.703125 512.5 L 530.445312 525.167969 L 530.445312 477.867188 C 530.445312 471.996094 535.222656 467.21875 541.097656 467.21875 C 546.96875 467.21875 551.75 471.996094 551.75 477.867188 L 551.75 496.953125 C 553.375 495.949219 555.289062 495.371094 557.332031 495.371094 C 561.480469 495.371094 565.082031 497.753906 566.839844 501.222656 C 568.675781 499.722656 571.019531 498.824219 573.566406 498.824219 C 577.621094 498.824219 581.148438 501.097656 582.949219 504.4375 C 584.804688 502.875 587.195312 501.933594 589.804688 501.933594 C 595.675781 501.933594 600.453125 506.710938 600.453125 512.585938 L 600.453125 543.710938 C 600.453125 550.828125 598.644531 557.886719 595.21875 564.121094 C 592.015625 569.949219 587.457031 574.96875 581.976562 578.714844 L 581.976562 586.164062 C 581.972656 587.5625 580.839844 588.695312 579.4375 588.695312 Z M 579.4375 588.695312 " fill-opacity="1" fill-rule="nonzero"/><path fill="#ffffff" d="M 526.171875 620.394531 L 526.171875 590.917969 C 526.171875 588.292969 528.300781 586.164062 530.929688 586.164062 L 583.734375 586.164062 C 586.359375 586.164062 588.488281 588.292969 588.488281 590.917969 L 588.488281 620.394531 Z M 526.171875 620.394531 " fill-opacity="1" fill-rule="nonzero"/><path fill="#f5a93b" d="M 588.492188 622.925781 C 587.089844 622.925781 585.957031 621.792969 585.957031 620.394531 L 585.957031 590.921875 C 585.957031 589.695312 584.960938 588.699219 583.734375 588.699219 L 530.929688 588.699219 C 529.703125 588.699219 528.707031 589.695312 528.707031 590.921875 L 528.707031 620.394531 C 528.707031 621.792969 527.570312 622.925781 526.171875 622.925781 C 524.773438 622.925781 523.636719 621.792969 523.636719 620.394531 L 523.636719 590.921875 C 523.636719 586.898438 526.910156 583.628906 530.929688 583.628906 L 583.734375 583.628906 C 587.753906 583.628906 591.023438 586.898438 591.023438 590.921875 L 591.023438 620.394531 C 591.023438 621.792969 589.890625 622.925781 588.492188 622.925781 Z M 588.492188 622.925781 " fill-opacity="1" fill-rule="nonzero"/><path fill="#ffffff" d="M 164.089844 470.527344 L 164.089844 361 C 164.089844 356.417969 167.804688 352.703125 172.386719 352.703125 L 329.902344 352.703125 C 334.949219 352.703125 339.042969 356.792969 339.042969 361.839844 L 339.042969 542.566406 C 339.042969 547.148438 335.328125 550.863281 330.742188 550.863281 L 176.535156 550.863281 C 169.660156 550.863281 164.089844 545.289062 164.089844 538.414062 L 164.089844 465.1875 Z M 164.089844 470.527344 " fill-opacity="1" fill-rule="nonzero"/><g clip-path="url(#10c3b34fe9)"><path fill="#f5a93b" d="M 330.746094 553.398438 L 176.535156 553.398438 C 168.273438 553.398438 161.554688 546.675781 161.554688 538.414062 L 161.554688 361 C 161.554688 355.027344 166.414062 350.167969 172.386719 350.167969 L 329.902344 350.167969 C 336.339844 350.167969 341.578125 355.40625 341.578125 361.84375 L 341.578125 542.566406 C 341.578125 548.539062 336.71875 553.398438 330.746094 553.398438 Z M 166.621094 470.527344 L 166.621094 538.417969 C 166.621094 543.882812 171.070312 548.328125 176.535156 548.328125 L 330.746094 548.328125 C 333.921875 548.328125 336.507812 545.742188 336.507812 542.566406 L 336.507812 361.84375 C 336.507812 358.199219 333.546875 355.234375 329.902344 355.234375 L 172.386719 355.234375 C 169.207031 355.234375 166.621094 357.820312 166.621094 361 Z M 166.621094 470.527344 " fill-opacity="1" fill-rule="nonzero"/></g><path fill="#ff7428" d="M 306.914062 433.882812 C 306.914062 434.851562 306.816406 435.808594 306.628906 436.757812 C 306.441406 437.703125 306.160156 438.625 305.792969 439.519531 C 305.421875 440.410156 304.96875 441.261719 304.429688 442.0625 C 303.894531 442.867188 303.28125 443.613281 302.597656 444.296875 C 301.914062 444.980469 301.171875 445.589844 300.367188 446.128906 C 299.5625 446.664062 298.714844 447.117188 297.820312 447.488281 C 296.929688 447.859375 296.007812 448.136719 295.058594 448.324219 C 294.109375 448.515625 293.152344 448.609375 292.1875 448.609375 C 291.21875 448.609375 290.261719 448.515625 289.3125 448.324219 C 288.367188 448.136719 287.445312 447.859375 286.550781 447.488281 C 285.65625 447.117188 284.808594 446.664062 284.003906 446.128906 C 283.203125 445.589844 282.457031 444.980469 281.773438 444.296875 C 281.089844 443.613281 280.480469 442.867188 279.941406 442.0625 C 279.40625 441.261719 278.953125 440.410156 278.582031 439.519531 C 278.210938 438.625 277.933594 437.703125 277.742188 436.757812 C 277.554688 435.808594 277.460938 434.851562 277.460938 433.882812 C 277.460938 432.917969 277.554688 431.957031 277.742188 431.011719 C 277.933594 430.0625 278.210938 429.140625 278.582031 428.246094 C 278.953125 427.355469 279.40625 426.503906 279.941406 425.703125 C 280.480469 424.898438 281.089844 424.152344 281.773438 423.46875 C 282.457031 422.785156 283.203125 422.175781 284.003906 421.640625 C 284.808594 421.101562 285.65625 420.648438 286.550781 420.277344 C 287.445312 419.90625 288.367188 419.628906 289.3125 419.441406 C 290.261719 419.25 291.21875 419.15625 292.1875 419.15625 C 293.152344 419.15625 294.109375 419.25 295.058594 419.441406 C 296.007812 419.628906 296.929688 419.90625 297.820312 420.277344 C 298.714844 420.648438 299.5625 421.101562 300.367188 421.640625 C 301.171875 422.175781 301.914062 422.785156 302.597656 423.46875 C 303.28125 424.152344 303.894531 424.898438 304.429688 425.703125 C 304.96875 426.503906 305.421875 427.355469 305.792969 428.246094 C 306.160156 429.140625 306.441406 430.0625 306.628906 431.011719 C 306.816406 431.957031 306.914062 432.917969 306.914062 433.882812 Z M 306.914062 433.882812 " fill-opacity="1" fill-rule="nonzero"/><path fill="#f5a93b" d="M 292.1875 451.144531 C 282.667969 451.144531 274.925781 443.402344 274.925781 433.882812 C 274.925781 424.367188 282.667969 416.625 292.1875 416.625 C 301.703125 416.625 309.445312 424.367188 309.445312 433.882812 C 309.445312 443.398438 301.703125 451.144531 292.1875 451.144531 Z M 292.1875 421.691406 C 285.464844 421.691406 279.996094 427.160156 279.996094 433.882812 C 279.996094 440.605469 285.464844 446.074219 292.1875 446.074219 C 298.910156 446.074219 304.378906 440.605469 304.378906 433.882812 C 304.378906 427.160156 298.910156 421.691406 292.1875 421.691406 Z M 292.1875 421.691406 " fill-opacity="1" fill-rule="nonzero"/><path fill="#ff7428" d="M 306.910156 477.375 C 306.910156 478.34375 306.816406 479.300781 306.628906 480.25 C 306.441406 481.199219 306.160156 482.117188 305.789062 483.011719 C 305.421875 483.90625 304.96875 484.753906 304.429688 485.558594 C 303.894531 486.359375 303.28125 487.105469 302.597656 487.789062 C 301.914062 488.472656 301.171875 489.082031 300.367188 489.621094 C 299.5625 490.15625 298.714844 490.609375 297.820312 490.980469 C 296.929688 491.351562 296.007812 491.628906 295.058594 491.820312 C 294.109375 492.007812 293.152344 492.101562 292.1875 492.101562 C 291.21875 492.101562 290.261719 492.007812 289.3125 491.820312 C 288.363281 491.628906 287.445312 491.351562 286.550781 490.980469 C 285.65625 490.609375 284.808594 490.15625 284.003906 489.621094 C 283.203125 489.082031 282.457031 488.472656 281.773438 487.789062 C 281.089844 487.105469 280.480469 486.359375 279.941406 485.558594 C 279.40625 484.753906 278.953125 483.90625 278.582031 483.011719 C 278.210938 482.117188 277.933594 481.199219 277.742188 480.25 C 277.554688 479.300781 277.460938 478.34375 277.460938 477.375 C 277.460938 476.410156 277.554688 475.453125 277.742188 474.503906 C 277.933594 473.554688 278.210938 472.632812 278.582031 471.742188 C 278.953125 470.847656 279.40625 470 279.941406 469.195312 C 280.480469 468.390625 281.089844 467.648438 281.773438 466.964844 C 282.457031 466.28125 283.203125 465.667969 284.003906 465.132812 C 284.808594 464.59375 285.65625 464.140625 286.550781 463.773438 C 287.445312 463.402344 288.363281 463.121094 289.3125 462.933594 C 290.261719 462.746094 291.21875 462.652344 292.1875 462.652344 C 293.152344 462.652344 294.109375 462.746094 295.058594 462.933594 C 296.007812 463.121094 296.929688 463.402344 297.820312 463.773438 C 298.714844 464.140625 299.5625 464.59375 300.367188 465.132812 C 301.171875 465.667969 301.914062 466.28125 302.597656 466.964844 C 303.28125 467.648438 303.894531 468.390625 304.429688 469.195312 C 304.96875 470 305.421875 470.847656 305.789062 471.742188 C 306.160156 472.632812 306.441406 473.554688 306.628906 474.503906 C 306.816406 475.453125 306.910156 476.410156 306.910156 477.375 Z M 306.910156 477.375 " fill-opacity="1" fill-rule="nonzero"/><path fill="#f5a93b" d="M 292.1875 494.636719 C 282.667969 494.636719 274.925781 486.894531 274.925781 477.375 C 274.925781 467.859375 282.667969 460.117188 292.1875 460.117188 C 301.703125 460.117188 309.445312 467.859375 309.445312 477.375 C 309.445312 486.894531 301.703125 494.636719 292.1875 494.636719 Z M 292.1875 465.183594 C 285.464844 465.183594 279.996094 470.652344 279.996094 477.375 C 279.996094 484.097656 285.464844 489.566406 292.1875 489.566406 C 298.910156 489.566406 304.378906 484.097656 304.378906 477.375 C 304.378906 470.652344 298.910156 465.183594 292.1875 465.183594 Z M 292.1875 465.183594 " fill-opacity="1" fill-rule="nonzero"/><path fill="#ff7428" d="M 306.914062 520.292969 C 306.914062 521.257812 306.816406 522.214844 306.628906 523.164062 C 306.441406 524.113281 306.160156 525.035156 305.792969 525.925781 C 305.421875 526.820312 304.96875 527.667969 304.429688 528.472656 C 303.894531 529.277344 303.28125 530.019531 302.597656 530.703125 C 301.914062 531.386719 301.171875 532 300.367188 532.535156 C 299.5625 533.074219 298.714844 533.527344 297.820312 533.894531 C 296.929688 534.265625 296.007812 534.546875 295.058594 534.734375 C 294.109375 534.921875 293.152344 535.015625 292.1875 535.015625 C 291.21875 535.015625 290.261719 534.921875 289.3125 534.734375 C 288.367188 534.546875 287.445312 534.265625 286.550781 533.894531 C 285.65625 533.527344 284.808594 533.074219 284.003906 532.535156 C 283.203125 532 282.457031 531.386719 281.773438 530.703125 C 281.089844 530.019531 280.480469 529.277344 279.941406 528.472656 C 279.40625 527.667969 278.953125 526.820312 278.582031 525.925781 C 278.210938 525.035156 277.933594 524.113281 277.742188 523.164062 C 277.554688 522.214844 277.460938 521.257812 277.460938 520.292969 C 277.460938 519.324219 277.554688 518.367188 277.742188 517.417969 C 277.933594 516.46875 278.210938 515.550781 278.582031 514.65625 C 278.953125 513.761719 279.40625 512.914062 279.941406 512.109375 C 280.480469 511.304688 281.089844 510.5625 281.773438 509.878906 C 282.457031 509.195312 283.203125 508.585938 284.003906 508.046875 C 284.808594 507.511719 285.65625 507.054688 286.550781 506.6875 C 287.445312 506.316406 288.367188 506.035156 289.3125 505.847656 C 290.261719 505.660156 291.21875 505.566406 292.1875 505.566406 C 293.152344 505.566406 294.109375 505.660156 295.058594 505.847656 C 296.007812 506.035156 296.929688 506.316406 297.820312 506.6875 C 298.714844 507.054688 299.5625 507.511719 300.367188 508.046875 C 301.171875 508.585938 301.914062 509.195312 302.597656 509.878906 C 303.28125 510.5625 303.894531 511.304688 304.429688 512.109375 C 304.96875 512.914062 305.421875 513.761719 305.792969 514.65625 C 306.160156 515.550781 306.441406 516.46875 306.628906 517.417969 C 306.816406 518.367188 306.914062 519.324219 306.914062 520.292969 Z M 306.914062 520.292969 " fill-opacity="1" fill-rule="nonzero"/><path fill="#f5a93b" d="M 292.1875 537.550781 C 282.667969 537.550781 274.925781 529.808594 274.925781 520.292969 C 274.925781 510.773438 282.667969 503.03125 292.1875 503.03125 C 301.703125 503.03125 309.445312 510.773438 309.445312 520.292969 C 309.445312 529.808594 301.703125 537.550781 292.1875 537.550781 Z M 292.1875 508.097656 C 285.464844 508.097656 279.996094 513.570312 279.996094 520.292969 C 279.996094 527.015625 285.464844 532.484375 292.1875 532.484375 C 298.910156 532.484375 304.378906 527.015625 304.378906 520.292969 C 304.378906 513.570312 298.910156 508.097656 292.1875 508.097656 Z M 292.1875 508.097656 " fill-opacity="1" fill-rule="nonzero"/><path fill="#f5a93b" d="M 258.128906 436.417969 L 200.113281 436.417969 C 198.714844 436.417969 197.582031 435.28125 197.582031 433.882812 C 197.582031 432.484375 198.714844 431.351562 200.113281 431.351562 L 258.128906 431.351562 C 259.53125 431.351562 260.664062 432.484375 260.664062 433.882812 C 260.664062 435.28125 259.53125 436.417969 258.128906 436.417969 Z M 258.128906 436.417969 " fill-opacity="1" fill-rule="nonzero"/><path fill="#f5a93b" d="M 258.128906 479.910156 L 199.953125 479.910156 C 198.554688 479.910156 197.417969 478.773438 197.417969 477.375 C 197.417969 475.976562 198.554688 474.84375 199.953125 474.84375 L 258.128906 474.84375 C 259.53125 474.84375 260.664062 475.976562 260.664062 477.375 C 260.664062 478.773438 259.53125 479.910156 258.128906 479.910156 Z M 258.128906 479.910156 " fill-opacity="1" fill-rule="nonzero"/><path fill="#f5a93b" d="M 258.128906 522.824219 L 199.847656 522.824219 C 198.449219 522.824219 197.316406 521.691406 197.316406 520.292969 L 197.316406 419.386719 C 197.316406 417.988281 198.449219 416.851562 199.847656 416.851562 C 201.246094 416.851562 202.382812 417.988281 202.382812 419.386719 L 202.382812 517.757812 L 258.128906 517.757812 C 259.53125 517.757812 260.664062 518.890625 260.664062 520.292969 C 260.664062 521.691406 259.53125 522.824219 258.128906 522.824219 Z M 258.128906 522.824219 " fill-opacity="1" fill-rule="nonzero"/><path fill="#f5a93b" d="M 291.734375 405.179688 C 290.332031 405.179688 289.199219 404.042969 289.199219 402.644531 L 289.199219 376.53125 C 289.199219 375.496094 289.621094 374.539062 290.386719 373.832031 C 291.109375 373.164062 292.015625 372.8125 293.015625 372.8125 C 294.136719 372.8125 295.15625 373.265625 295.882812 374.085938 C 295.90625 374.109375 295.925781 374.136719 295.949219 374.164062 L 312.964844 394.9375 L 312.964844 375.25 C 312.964844 373.851562 314.101562 372.714844 315.5 372.714844 C 316.898438 372.714844 318.035156 373.851562 318.035156 375.25 L 318.035156 402.03125 C 318.035156 403.101562 317.359375 404.058594 316.351562 404.417969 C 315.34375 404.777344 314.21875 404.464844 313.539062 403.636719 L 294.265625 380.109375 L 294.265625 402.644531 C 294.265625 404.042969 293.132812 405.179688 291.734375 405.179688 Z M 291.734375 405.179688 " fill-opacity="1" fill-rule="nonzero"/><path fill="#f5a93b" d="M 199.636719 405.179688 C 198.238281 405.179688 197.105469 404.042969 197.105469 402.644531 L 197.105469 376.40625 C 197.105469 375.378906 197.523438 374.429688 198.277344 373.726562 C 198.992188 373.066406 199.898438 372.714844 200.902344 372.714844 L 207.707031 372.714844 C 211.296875 372.714844 214.394531 373.882812 216.910156 376.1875 C 219.542969 378.523438 220.878906 381.433594 220.878906 384.835938 C 220.878906 388.214844 219.542969 391.132812 216.910156 393.503906 C 214.367188 395.796875 211.269531 396.960938 207.707031 396.960938 L 202.171875 396.960938 L 202.171875 402.644531 C 202.171875 404.042969 201.039062 405.179688 199.636719 405.179688 Z M 202.171875 391.890625 L 207.707031 391.890625 C 210.007812 391.890625 211.910156 391.1875 213.515625 389.738281 C 215.082031 388.328125 215.8125 386.773438 215.8125 384.835938 C 215.8125 382.890625 215.089844 381.34375 213.535156 379.96875 C 213.523438 379.960938 213.511719 379.949219 213.5 379.9375 C 211.921875 378.488281 210.027344 377.78125 207.707031 377.78125 L 202.171875 377.78125 Z M 202.171875 391.890625 " fill-opacity="1" fill-rule="nonzero"/><path fill="#f5a93b" d="M 256.550781 405.476562 C 256.1875 405.476562 255.816406 405.398438 255.464844 405.230469 C 254.203125 404.632812 253.664062 403.121094 254.261719 401.855469 L 267.117188 374.765625 C 267.535156 373.886719 268.414062 373.328125 269.382812 373.316406 C 269.390625 373.316406 269.398438 373.316406 269.410156 373.316406 C 270.367188 373.316406 271.246094 373.859375 271.675781 374.71875 L 285.191406 401.8125 C 285.816406 403.0625 285.304688 404.585938 284.054688 405.210938 C 282.800781 405.835938 281.28125 405.324219 280.65625 404.074219 L 277.105469 396.960938 L 262.195312 396.960938 L 258.839844 404.027344 C 258.40625 404.941406 257.5 405.476562 256.550781 405.476562 Z M 264.601562 391.890625 L 274.578125 391.890625 L 269.464844 381.640625 Z M 264.601562 391.890625 " fill-opacity="1" fill-rule="nonzero"/><path fill="#f5a93b" d="M 247.171875 405.179688 L 229.347656 405.179688 C 227.945312 405.179688 226.8125 404.042969 226.8125 402.644531 L 226.8125 375.25 C 226.8125 373.851562 227.945312 372.714844 229.347656 372.714844 C 230.746094 372.714844 231.878906 373.851562 231.878906 375.25 L 231.878906 400.109375 L 247.171875 400.109375 C 248.570312 400.109375 249.703125 401.246094 249.703125 402.644531 C 249.703125 404.042969 248.570312 405.179688 247.171875 405.179688 Z M 247.171875 405.179688 " fill-opacity="1" fill-rule="nonzero"/><path fill="#ff7428" d="M 307.15625 299.445312 L 307.15625 346.304688 C 307.15625 349.835938 304.292969 352.699219 300.761719 352.699219 L 202.371094 352.699219 C 198.839844 352.699219 195.972656 349.835938 195.972656 346.304688 L 195.972656 299.445312 Z M 307.15625 299.445312 " fill-opacity="1" fill-rule="nonzero"/><path fill="#f5a93b" d="M 300.761719 355.234375 L 202.371094 355.234375 C 197.445312 355.234375 193.441406 351.230469 193.441406 346.304688 L 193.441406 299.445312 C 193.441406 298.042969 194.574219 296.910156 195.972656 296.910156 C 197.375 296.910156 198.507812 298.042969 198.507812 299.445312 L 198.507812 346.304688 C 198.507812 348.433594 200.242188 350.167969 202.371094 350.167969 L 300.761719 350.167969 C 302.890625 350.167969 304.625 348.433594 304.625 346.304688 L 304.625 299.445312 C 304.625 298.042969 305.757812 296.910156 307.15625 296.910156 C 308.554688 296.910156 309.691406 298.042969 309.691406 299.445312 L 309.691406 346.304688 C 309.691406 351.230469 305.683594 355.234375 300.761719 355.234375 Z M 300.761719 355.234375 " fill-opacity="1" fill-rule="nonzero"/><path fill="#ff7428" d="M 170.632812 296.882812 L 248.480469 273.957031 C 250.496094 273.363281 252.636719 273.363281 254.652344 273.957031 L 332.5 296.882812 C 335.050781 297.636719 335.050781 301.25 332.5 302.003906 L 254.652344 324.929688 C 252.636719 325.523438 250.496094 325.523438 248.480469 324.929688 L 170.632812 302.003906 C 168.082031 301.25 168.082031 297.636719 170.632812 296.882812 Z M 170.632812 296.882812 " fill-opacity="1" fill-rule="nonzero"/><path fill="#f5a93b" d="M 251.566406 327.910156 C 250.285156 327.910156 249.007812 327.726562 247.765625 327.359375 L 169.917969 304.433594 C 167.683594 303.777344 166.183594 301.769531 166.183594 299.445312 C 166.183594 297.117188 167.683594 295.113281 169.917969 294.453125 L 170.632812 296.882812 L 169.917969 294.453125 L 247.765625 271.527344 C 250.25 270.792969 252.878906 270.792969 255.367188 271.527344 L 333.214844 294.453125 C 335.445312 295.109375 336.949219 297.117188 336.949219 299.445312 C 336.949219 301.769531 335.449219 303.777344 333.214844 304.433594 L 255.367188 327.359375 C 254.125 327.726562 252.84375 327.910156 251.566406 327.910156 Z M 171.347656 299.316406 C 171.300781 299.328125 171.277344 299.34375 171.273438 299.347656 C 171.246094 299.382812 171.246094 299.503906 171.273438 299.539062 C 171.277344 299.542969 171.300781 299.558594 171.347656 299.574219 L 249.195312 322.5 C 250.746094 322.957031 252.386719 322.957031 253.933594 322.5 L 331.78125 299.574219 C 331.832031 299.558594 331.855469 299.542969 331.859375 299.539062 C 331.886719 299.503906 331.886719 299.382812 331.855469 299.347656 C 331.851562 299.34375 331.832031 299.328125 331.78125 299.316406 L 253.933594 276.386719 C 252.382812 275.929688 250.746094 275.929688 249.195312 276.386719 Z M 171.347656 299.316406 " fill-opacity="1" fill-rule="nonzero"/></svg>