<svg xmlns="http://www.w3.org/2000/svg" xmlns:xlink="http://www.w3.org/1999/xlink" width="1080" zoomAndPan="magnify" viewBox="0 0 810 809.999993" height="1080" preserveAspectRatio="xMidYMid meet" version="1.0"><defs><clipPath id="33cf4c4f31"><path d="M 508 284 L 564.929688 284 L 564.929688 474 L 508 474 Z M 508 284 " clip-rule="nonzero"/></clipPath><clipPath id="ddf9fd4c2f"><path d="M 245.429688 366 L 366 366 L 366 502 L 245.429688 502 Z M 245.429688 366 " clip-rule="nonzero"/></clipPath></defs><rect x="-81" width="972" fill="#ffffff" y="-80.999999" height="971.999992" fill-opacity="1"/><rect x="-81" width="972" fill="#007b7f" y="-80.999999" height="971.999992" fill-opacity="1"/><path fill="#f5a93b" d="M 273.6875 311.175781 C 273.339844 311.175781 272.988281 311.066406 272.6875 310.84375 C 271.941406 310.289062 271.785156 309.234375 272.339844 308.488281 C 276.027344 303.523438 280.046875 298.714844 284.285156 294.199219 C 284.921875 293.519531 285.984375 293.484375 286.664062 294.121094 C 287.339844 294.757812 287.375 295.824219 286.738281 296.5 C 282.589844 300.921875 278.652344 305.632812 275.039062 310.496094 C 274.710938 310.9375 274.203125 311.175781 273.6875 311.175781 Z M 298.871094 284.328125 C 298.394531 284.328125 297.921875 284.128906 297.589844 283.734375 C 296.988281 283.027344 297.074219 281.964844 297.785156 281.363281 C 302.507812 277.359375 307.515625 273.589844 312.660156 270.15625 C 313.433594 269.640625 314.476562 269.847656 314.992188 270.621094 C 315.507812 271.394531 315.300781 272.4375 314.527344 272.953125 C 309.488281 276.316406 304.585938 280.007812 299.957031 283.929688 C 299.644531 284.199219 299.257812 284.328125 298.871094 284.328125 Z M 329.492188 263.902344 C 328.878906 263.902344 328.289062 263.570312 327.992188 262.988281 C 327.570312 262.160156 327.894531 261.148438 328.722656 260.722656 C 334.238281 257.898438 339.96875 255.371094 345.765625 253.203125 C 346.636719 252.878906 347.605469 253.320312 347.929688 254.191406 C 348.253906 255.0625 347.8125 256.03125 346.941406 256.355469 C 341.269531 258.476562 335.65625 260.953125 330.257812 263.71875 C 330.011719 263.84375 329.75 263.902344 329.492188 263.902344 Z M 363.960938 251.023438 C 363.207031 251.023438 362.519531 250.507812 362.328125 249.742188 C 362.105469 248.839844 362.660156 247.929688 363.558594 247.707031 C 369.5625 246.226562 375.722656 245.078125 381.871094 244.296875 C 382.792969 244.179688 383.636719 244.832031 383.753906 245.753906 C 383.871094 246.675781 383.21875 247.519531 382.296875 247.636719 C 376.277344 248.402344 370.242188 249.523438 364.367188 250.972656 C 364.230469 251.003906 364.09375 251.023438 363.960938 251.023438 Z M 418.890625 247.195312 C 418.835938 247.195312 418.777344 247.191406 418.71875 247.183594 C 413.363281 246.640625 407.898438 246.363281 402.484375 246.363281 C 401.820312 246.363281 401.152344 246.367188 400.492188 246.375 C 400.484375 246.375 400.480469 246.375 400.472656 246.375 C 399.550781 246.375 398.800781 245.636719 398.789062 244.714844 C 398.777344 243.785156 399.523438 243.023438 400.453125 243.011719 C 401.121094 243.003906 401.808594 243 402.484375 243 C 408.011719 243 413.589844 243.28125 419.058594 243.835938 C 419.984375 243.929688 420.65625 244.757812 420.5625 245.679688 C 420.476562 246.546875 419.742188 247.195312 418.890625 247.195312 Z M 418.890625 247.195312 " fill-opacity="1" fill-rule="nonzero"/><path fill="#f5a93b" d="M 397.492188 567 C 397.476562 567 397.460938 567 397.441406 567 C 391.238281 566.808594 384.992188 566.261719 378.882812 565.371094 C 377.964844 565.234375 377.328125 564.382812 377.460938 563.460938 C 377.597656 562.542969 378.449219 561.90625 379.371094 562.039062 C 385.351562 562.914062 391.46875 563.449219 397.542969 563.636719 C 398.472656 563.664062 399.203125 564.441406 399.175781 565.367188 C 399.148438 566.28125 398.398438 567 397.492188 567 Z M 415.917969 566.519531 C 415.050781 566.519531 414.316406 565.855469 414.242188 564.976562 C 414.167969 564.050781 414.855469 563.238281 415.78125 563.164062 C 421.832031 562.660156 427.910156 561.804688 433.839844 560.613281 C 434.753906 560.429688 435.636719 561.023438 435.820312 561.933594 C 436.003906 562.84375 435.414062 563.730469 434.503906 563.914062 C 428.445312 565.128906 422.238281 566.003906 416.058594 566.515625 C 416.011719 566.519531 415.964844 566.519531 415.917969 566.519531 Z M 361.070312 561.675781 C 360.925781 561.675781 360.78125 561.660156 360.632812 561.621094 C 354.652344 560.023438 348.699219 558.0625 342.941406 555.785156 C 342.078125 555.445312 341.652344 554.464844 341.996094 553.601562 C 342.335938 552.738281 343.3125 552.316406 344.179688 552.65625 C 349.816406 554.886719 355.644531 556.808594 361.5 558.367188 C 362.398438 558.609375 362.933594 559.53125 362.695312 560.425781 C 362.492188 561.179688 361.8125 561.675781 361.070312 561.675781 Z M 452.003906 559.285156 C 451.292969 559.285156 450.636719 558.832031 450.402344 558.121094 C 450.117188 557.238281 450.601562 556.289062 451.484375 556 C 457.246094 554.132812 462.964844 551.902344 468.480469 549.378906 C 469.324219 548.992188 470.320312 549.363281 470.707031 550.207031 C 471.09375 551.054688 470.722656 552.050781 469.878906 552.4375 C 464.25 555.015625 458.410156 557.292969 452.523438 559.203125 C 452.351562 559.257812 452.175781 559.285156 452.003906 559.285156 Z M 326.832031 548.148438 C 326.566406 548.148438 326.292969 548.082031 326.039062 547.945312 C 320.589844 545.023438 315.246094 541.75 310.15625 538.214844 C 309.394531 537.6875 309.203125 536.636719 309.734375 535.875 C 310.261719 535.113281 311.3125 534.921875 312.074219 535.453125 C 317.058594 538.914062 322.292969 542.121094 327.628906 544.980469 C 328.449219 545.421875 328.757812 546.441406 328.316406 547.257812 C 328.015625 547.824219 327.433594 548.148438 326.832031 548.148438 Z M 296.601562 527.152344 C 296.207031 527.152344 295.808594 527.011719 295.492188 526.730469 C 290.84375 522.644531 286.382812 518.242188 282.230469 513.648438 C 281.609375 512.960938 281.664062 511.894531 282.351562 511.273438 C 283.042969 510.648438 284.105469 510.703125 284.730469 511.394531 C 288.792969 515.890625 293.160156 520.203125 297.714844 524.207031 C 298.410156 524.820312 298.476562 525.882812 297.863281 526.582031 C 297.53125 526.957031 297.066406 527.152344 296.601562 527.152344 Z M 296.601562 527.152344 " fill-opacity="1" fill-rule="nonzero"/><g clip-path="url(#33cf4c4f31)"><path fill="#f5a93b" d="M 548.457031 473.191406 C 548.222656 473.191406 547.984375 473.140625 547.757812 473.039062 C 546.914062 472.652344 546.542969 471.65625 546.925781 470.808594 C 549.402344 465.386719 551.589844 459.761719 553.429688 454.097656 C 553.714844 453.210938 554.664062 452.730469 555.546875 453.015625 C 556.433594 453.300781 556.914062 454.25 556.628906 455.136719 C 554.75 460.921875 552.515625 466.664062 549.988281 472.207031 C 549.707031 472.824219 549.09375 473.191406 548.457031 473.191406 Z M 559.699219 438.464844 C 559.589844 438.464844 559.480469 438.453125 559.367188 438.429688 C 558.457031 438.246094 557.867188 437.359375 558.050781 436.449219 C 559.242188 430.519531 560.101562 424.441406 560.605469 418.386719 C 560.679688 417.460938 561.496094 416.773438 562.421875 416.851562 C 563.347656 416.929688 564.035156 417.742188 563.957031 418.667969 C 563.441406 424.847656 562.5625 431.054688 561.347656 437.113281 C 561.1875 437.910156 560.484375 438.464844 559.699219 438.464844 Z M 562.765625 401.78125 C 561.859375 401.78125 561.109375 401.0625 561.082031 400.148438 C 560.898438 394.074219 560.367188 387.964844 559.496094 381.980469 C 559.359375 381.0625 559.996094 380.207031 560.917969 380.074219 C 561.835938 379.941406 562.691406 380.578125 562.824219 381.496094 C 563.714844 387.605469 564.257812 393.847656 564.445312 400.046875 C 564.476562 400.976562 563.746094 401.753906 562.816406 401.78125 C 562.800781 401.78125 562.78125 401.78125 562.765625 401.78125 Z M 557.457031 365.371094 C 556.710938 365.371094 556.03125 364.875 555.832031 364.121094 C 554.273438 358.265625 552.355469 352.4375 550.128906 346.800781 C 549.789062 345.9375 550.214844 344.960938 551.078125 344.621094 C 551.941406 344.277344 552.917969 344.703125 553.261719 345.566406 C 555.53125 351.324219 557.492188 357.277344 559.082031 363.253906 C 559.324219 364.152344 558.789062 365.074219 557.890625 365.3125 C 557.746094 365.351562 557.601562 365.371094 557.457031 365.371094 Z M 543.949219 331.144531 C 543.351562 331.144531 542.769531 330.820312 542.464844 330.253906 C 539.609375 324.917969 536.40625 319.683594 532.945312 314.699219 C 532.417969 313.933594 532.605469 312.886719 533.371094 312.355469 C 534.132812 311.828125 535.183594 312.015625 535.710938 312.78125 C 539.242188 317.871094 542.511719 323.214844 545.433594 328.667969 C 545.871094 329.488281 545.5625 330.507812 544.742188 330.945312 C 544.488281 331.078125 544.21875 331.144531 543.949219 331.144531 Z M 522.972656 300.902344 C 522.507812 300.902344 522.042969 300.710938 521.710938 300.332031 C 517.707031 295.777344 513.398438 291.40625 508.902344 287.339844 C 508.214844 286.71875 508.160156 285.652344 508.785156 284.964844 C 509.40625 284.277344 510.472656 284.222656 511.160156 284.847656 C 515.75 289 520.148438 293.460938 524.234375 298.109375 C 524.847656 298.808594 524.78125 299.871094 524.082031 300.484375 C 523.765625 300.765625 523.367188 300.902344 522.972656 300.902344 Z M 522.972656 300.902344 " fill-opacity="1" fill-rule="nonzero"/></g><path fill="#ff7428" d="M 520.21875 405.039062 C 520.21875 406.964844 520.171875 408.890625 520.078125 410.816406 C 519.984375 412.738281 519.84375 414.660156 519.652344 416.578125 C 519.464844 418.496094 519.230469 420.40625 518.945312 422.3125 C 518.664062 424.21875 518.332031 426.117188 517.957031 428.007812 C 517.582031 429.898438 517.160156 431.777344 516.691406 433.644531 C 516.222656 435.515625 515.710938 437.371094 515.152344 439.214844 C 514.589844 441.058594 513.988281 442.886719 513.339844 444.703125 C 512.6875 446.515625 511.996094 448.3125 511.257812 450.09375 C 510.519531 451.875 509.738281 453.632812 508.917969 455.375 C 508.09375 457.117188 507.226562 458.839844 506.316406 460.539062 C 505.410156 462.238281 504.460938 463.914062 503.46875 465.566406 C 502.480469 467.21875 501.449219 468.847656 500.378906 470.449219 C 499.308594 472.050781 498.199219 473.625 497.050781 475.171875 C 495.902344 476.71875 494.71875 478.238281 493.496094 479.730469 C 492.273438 481.21875 491.015625 482.675781 489.722656 484.105469 C 488.425781 485.53125 487.097656 486.925781 485.734375 488.289062 C 484.375 489.652344 482.980469 490.980469 481.550781 492.273438 C 480.125 493.566406 478.664062 494.828125 477.175781 496.046875 C 475.6875 497.269531 474.167969 498.457031 472.621094 499.605469 C 471.070312 500.75 469.496094 501.859375 467.894531 502.929688 C 466.292969 504 464.664062 505.03125 463.011719 506.023438 C 461.359375 507.015625 459.683594 507.964844 457.984375 508.871094 C 456.285156 509.78125 454.566406 510.644531 452.824219 511.46875 C 451.082031 512.292969 449.320312 513.074219 447.539062 513.8125 C 445.761719 514.546875 443.960938 515.242188 442.148438 515.890625 C 440.335938 516.539062 438.503906 517.144531 436.660156 517.703125 C 434.816406 518.261719 432.960938 518.777344 431.09375 519.246094 C 429.222656 519.714844 427.34375 520.136719 425.453125 520.511719 C 423.5625 520.886719 421.664062 521.214844 419.761719 521.5 C 417.855469 521.78125 415.941406 522.019531 414.023438 522.207031 C 412.105469 522.394531 410.1875 522.539062 408.261719 522.632812 C 406.335938 522.726562 404.410156 522.773438 402.484375 522.773438 C 400.558594 522.773438 398.632812 522.726562 396.707031 522.632812 C 394.78125 522.539062 392.863281 522.394531 390.945312 522.207031 C 389.027344 522.019531 387.113281 521.78125 385.210938 521.5 C 383.304688 521.214844 381.40625 520.886719 379.515625 520.511719 C 377.625 520.136719 375.746094 519.714844 373.878906 519.246094 C 372.007812 518.777344 370.152344 518.261719 368.308594 517.703125 C 366.464844 517.144531 364.636719 516.539062 362.820312 515.890625 C 361.007812 515.242188 359.210938 514.546875 357.429688 513.8125 C 355.648438 513.074219 353.886719 512.292969 352.144531 511.46875 C 350.40625 510.644531 348.683594 509.78125 346.984375 508.871094 C 345.285156 507.964844 343.609375 507.015625 341.957031 506.023438 C 340.304688 505.03125 338.675781 504.003906 337.074219 502.929688 C 335.472656 501.859375 333.898438 500.75 332.347656 499.605469 C 330.800781 498.457031 329.285156 497.269531 327.792969 496.046875 C 326.304688 494.828125 324.847656 493.566406 323.417969 492.273438 C 321.992188 490.980469 320.59375 489.652344 319.234375 488.289062 C 317.871094 486.925781 316.542969 485.53125 315.25 484.105469 C 313.953125 482.675781 312.695312 481.21875 311.472656 479.730469 C 310.25 478.238281 309.066406 476.71875 307.917969 475.171875 C 306.769531 473.625 305.660156 472.050781 304.589844 470.449219 C 303.519531 468.847656 302.488281 467.21875 301.5 465.566406 C 300.507812 463.914062 299.558594 462.238281 298.652344 460.539062 C 297.742188 458.839844 296.875 457.117188 296.054688 455.375 C 295.230469 453.632812 294.449219 451.875 293.710938 450.09375 C 292.972656 448.3125 292.28125 446.515625 291.632812 444.703125 C 290.980469 442.886719 290.378906 441.058594 289.820312 439.214844 C 289.257812 437.371094 288.746094 435.515625 288.277344 433.644531 C 287.808594 431.777344 287.386719 429.898438 287.011719 428.007812 C 286.636719 426.117188 286.304688 424.21875 286.023438 422.3125 C 285.742188 420.40625 285.503906 418.496094 285.316406 416.578125 C 285.128906 414.660156 284.984375 412.738281 284.890625 410.816406 C 284.796875 408.890625 284.75 406.964844 284.75 405.039062 C 284.75 403.109375 284.796875 401.183594 284.890625 399.261719 C 284.984375 397.335938 285.128906 395.414062 285.316406 393.496094 C 285.503906 391.582031 285.742188 389.667969 286.023438 387.761719 C 286.304688 385.855469 286.636719 383.957031 287.011719 382.070312 C 287.386719 380.179688 287.808594 378.300781 288.277344 376.429688 C 288.746094 374.5625 289.257812 372.703125 289.820312 370.859375 C 290.378906 369.015625 290.980469 367.1875 291.632812 365.375 C 292.28125 363.558594 292.972656 361.761719 293.710938 359.980469 C 294.449219 358.203125 295.230469 356.441406 296.054688 354.699219 C 296.875 352.957031 297.742188 351.238281 298.652344 349.539062 C 299.558594 347.839844 300.507812 346.164062 301.5 344.507812 C 302.488281 342.855469 303.519531 341.230469 304.589844 339.628906 C 305.660156 338.023438 306.769531 336.449219 307.917969 334.902344 C 309.066406 333.355469 310.25 331.835938 311.472656 330.347656 C 312.695312 328.859375 313.953125 327.398438 315.25 325.972656 C 316.542969 324.542969 317.871094 323.148438 319.234375 321.785156 C 320.59375 320.421875 321.992188 319.09375 323.417969 317.800781 C 324.847656 316.507812 326.304688 315.25 327.792969 314.027344 C 329.285156 312.804688 330.800781 311.621094 332.347656 310.472656 C 333.898438 309.324219 335.472656 308.214844 337.074219 307.144531 C 338.675781 306.074219 340.304688 305.042969 341.957031 304.050781 C 343.609375 303.0625 345.285156 302.113281 346.984375 301.203125 C 348.683594 300.296875 350.40625 299.429688 352.144531 298.605469 C 353.886719 297.78125 355.648438 297 357.429688 296.265625 C 359.210938 295.527344 361.007812 294.832031 362.820312 294.183594 C 364.636719 293.535156 366.464844 292.929688 368.308594 292.371094 C 370.152344 291.8125 372.007812 291.296875 373.878906 290.832031 C 375.746094 290.363281 377.625 289.941406 379.515625 289.566406 C 381.40625 289.1875 383.304688 288.859375 385.210938 288.578125 C 387.113281 288.292969 389.027344 288.058594 390.945312 287.871094 C 392.863281 287.679688 394.78125 287.539062 396.707031 287.445312 C 398.632812 287.347656 400.558594 287.300781 402.484375 287.300781 C 404.410156 287.300781 406.335938 287.347656 408.261719 287.445312 C 410.1875 287.539062 412.105469 287.679688 414.023438 287.871094 C 415.941406 288.058594 417.855469 288.292969 419.761719 288.578125 C 421.664062 288.859375 423.5625 289.1875 425.453125 289.566406 C 427.34375 289.941406 429.222656 290.363281 431.09375 290.832031 C 432.960938 291.296875 434.816406 291.8125 436.660156 292.371094 C 438.503906 292.929688 440.335938 293.535156 442.148438 294.183594 C 443.960938 294.832031 445.761719 295.527344 447.539062 296.265625 C 449.320312 297 451.082031 297.78125 452.824219 298.605469 C 454.566406 299.429688 456.285156 300.296875 457.984375 301.203125 C 459.683594 302.113281 461.359375 303.0625 463.011719 304.050781 C 464.664062 305.042969 466.292969 306.074219 467.894531 307.144531 C 469.496094 308.214844 471.070312 309.324219 472.621094 310.472656 C 474.167969 311.621094 475.6875 312.804688 477.175781 314.027344 C 478.664062 315.25 480.125 316.507812 481.550781 317.800781 C 482.980469 319.09375 484.375 320.421875 485.734375 321.785156 C 487.097656 323.148438 488.425781 324.542969 489.722656 325.972656 C 491.015625 327.398438 492.273438 328.859375 493.496094 330.347656 C 494.71875 331.835938 495.902344 333.355469 497.050781 334.902344 C 498.199219 336.449219 499.308594 338.023438 500.378906 339.628906 C 501.449219 341.230469 502.480469 342.855469 503.46875 344.507812 C 504.460938 346.164062 505.410156 347.839844 506.316406 349.539062 C 507.226562 351.238281 508.09375 352.957031 508.917969 354.699219 C 509.738281 356.441406 510.519531 358.203125 511.257812 359.980469 C 511.996094 361.761719 512.6875 363.558594 513.335938 365.375 C 513.988281 367.1875 514.589844 369.015625 515.152344 370.859375 C 515.710938 372.703125 516.222656 374.5625 516.691406 376.429688 C 517.160156 378.300781 517.582031 380.179688 517.957031 382.070312 C 518.332031 383.957031 518.664062 385.855469 518.945312 387.761719 C 519.230469 389.667969 519.464844 391.582031 519.652344 393.496094 C 519.84375 395.414062 519.984375 397.335938 520.078125 399.261719 C 520.171875 401.183594 520.21875 403.109375 520.21875 405.039062 Z M 520.21875 405.039062 " fill-opacity="1" fill-rule="nonzero"/><path fill="#ffffff" d="M 515.246094 318.53125 C 515.246094 358.105469 483.882812 390 444.96875 390 C 406.058594 390 374.691406 358.105469 374.691406 318.53125 Z M 515.246094 318.53125 " fill-opacity="1" fill-rule="nonzero"/><path fill="#f5a93b" d="M 444.96875 391.683594 C 435.226562 391.683594 425.785156 389.753906 416.910156 385.945312 C 408.335938 382.265625 400.640625 377 394.039062 370.285156 C 387.441406 363.574219 382.261719 355.753906 378.648438 347.039062 C 374.90625 338.019531 373.011719 328.429688 373.011719 318.53125 C 373.011719 317.605469 373.761719 316.851562 374.691406 316.851562 L 515.246094 316.851562 C 516.175781 316.851562 516.929688 317.605469 516.929688 318.53125 C 516.929688 328.429688 515.03125 338.019531 511.292969 347.039062 C 507.675781 355.753906 502.5 363.574219 495.898438 370.285156 C 489.300781 377 481.605469 382.265625 473.03125 385.945312 C 464.152344 389.753906 454.710938 391.683594 444.96875 391.683594 Z M 376.394531 320.214844 C 377.273438 357.921875 407.699219 388.320312 444.96875 388.320312 C 482.242188 388.320312 512.664062 357.921875 513.546875 320.214844 Z M 376.394531 320.214844 " fill-opacity="1" fill-rule="nonzero"/><path fill="#ff7428" d="M 450.925781 318.53125 L 450.925781 322.105469 L 447.351562 334.015625 L 434.25 336.398438 L 433.058594 344.738281 L 429.484375 351.882812 L 425.910156 356.648438 L 425.910156 362.605469 L 427.101562 368.5625 L 421.148438 366.179688 L 412.808594 361.414062 L 410.425781 354.265625 L 410.425781 343.546875 L 406.851562 329.253906 L 397.324219 326.871094 L 391.367188 318.53125 Z M 450.925781 318.53125 " fill-opacity="1" fill-rule="nonzero"/><path fill="#f5a93b" d="M 427.101562 370.242188 C 426.890625 370.242188 426.679688 370.203125 426.476562 370.121094 L 420.523438 367.742188 C 420.449219 367.710938 420.378906 367.675781 420.3125 367.640625 L 411.972656 362.875 C 411.613281 362.667969 411.34375 362.339844 411.214844 361.945312 L 408.832031 354.800781 C 408.773438 354.628906 408.746094 354.449219 408.746094 354.265625 L 408.746094 343.753906 L 405.464844 330.640625 L 396.917969 328.503906 C 396.527344 328.40625 396.1875 328.175781 395.957031 327.847656 L 390 319.511719 C 389.632812 318.996094 389.585938 318.324219 389.875 317.761719 C 390.160156 317.203125 390.738281 316.851562 391.367188 316.851562 L 450.925781 316.851562 C 451.855469 316.851562 452.609375 317.605469 452.609375 318.53125 L 452.609375 322.105469 C 452.609375 322.269531 452.585938 322.433594 452.539062 322.589844 L 448.964844 334.5 C 448.78125 335.105469 448.277344 335.558594 447.652344 335.671875 L 435.742188 337.839844 L 434.722656 344.976562 C 434.699219 345.15625 434.644531 345.328125 434.5625 345.488281 L 430.988281 352.636719 C 430.945312 352.726562 430.890625 352.8125 430.832031 352.894531 L 427.59375 357.210938 L 427.59375 362.4375 L 428.753906 368.230469 C 428.875 368.835938 428.652344 369.457031 428.179688 369.855469 C 427.871094 370.109375 427.488281 370.242188 427.101562 370.242188 Z M 421.878906 364.660156 L 424.84375 365.84375 L 424.261719 362.933594 C 424.242188 362.828125 424.230469 362.714844 424.230469 362.605469 L 424.230469 356.648438 C 424.230469 356.285156 424.347656 355.929688 424.566406 355.640625 L 428.046875 350.996094 L 431.429688 344.230469 L 432.585938 336.160156 C 432.6875 335.445312 433.234375 334.875 433.949219 334.746094 L 446.035156 332.546875 L 449.242188 321.859375 L 449.242188 320.214844 L 394.636719 320.214844 L 398.332031 325.390625 L 407.261719 327.621094 C 407.863281 327.773438 408.335938 328.242188 408.484375 328.84375 L 412.058594 343.140625 C 412.09375 343.273438 412.109375 343.410156 412.109375 343.546875 L 412.109375 353.992188 L 414.203125 360.273438 Z M 421.878906 364.660156 " fill-opacity="1" fill-rule="nonzero"/><path fill="#ff7428" d="M 492.617188 370.941406 L 475.9375 364.988281 L 459.261719 360.222656 L 462.835938 345.929688 L 481.894531 336.398438 L 497.378906 341.164062 L 510.480469 343.546875 L 510.847656 343.546875 C 507.015625 354.027344 500.84375 363.332031 492.964844 370.808594 Z M 492.617188 370.941406 " fill-opacity="1" fill-rule="nonzero"/><path fill="#f5a93b" d="M 492.617188 372.625 C 492.425781 372.625 492.230469 372.59375 492.050781 372.527344 L 475.425781 366.589844 L 458.800781 361.839844 C 457.929688 361.589844 457.410156 360.695312 457.632812 359.816406 L 461.203125 345.519531 C 461.324219 345.042969 461.644531 344.644531 462.085938 344.425781 L 481.144531 334.894531 C 481.53125 334.703125 481.976562 334.664062 482.390625 334.792969 L 497.777344 339.527344 L 510.632812 341.863281 L 510.847656 341.863281 C 511.398438 341.863281 511.914062 342.132812 512.226562 342.582031 C 512.542969 343.035156 512.617188 343.609375 512.429688 344.125 C 508.570312 354.671875 502.242188 364.320312 494.125 372.03125 C 493.960938 372.183594 493.769531 372.304688 493.558594 372.382812 L 493.207031 372.515625 C 493.019531 372.589844 492.816406 372.625 492.617188 372.625 Z M 461.289062 359.050781 L 476.402344 363.371094 C 476.4375 363.378906 476.472656 363.390625 476.503906 363.402344 L 492.355469 369.0625 C 499.34375 362.28125 504.898438 353.972656 508.527344 344.902344 L 497.078125 342.820312 C 497.011719 342.808594 496.949219 342.792969 496.886719 342.773438 L 482.042969 338.207031 L 464.28125 347.085938 Z M 461.289062 359.050781 " fill-opacity="1" fill-rule="nonzero"/><path fill="#ffffff" d="M 423.828125 299.53125 L 423.527344 293.519531 C 423.527344 284.429688 435.878906 278.035156 444.96875 278.035156 C 454.058594 278.035156 466.410156 284.429688 466.410156 293.519531 L 466.410156 299.632812 Z M 423.828125 299.53125 " fill-opacity="1" fill-rule="nonzero"/><path fill="#f5a93b" d="M 466.410156 301.3125 C 465.480469 301.3125 464.726562 300.558594 464.726562 299.632812 L 464.726562 293.519531 C 464.726562 288.730469 460.628906 285.363281 458.183594 283.78125 C 454.3125 281.273438 449.25 279.714844 444.96875 279.714844 C 440.691406 279.714844 435.625 281.273438 431.753906 283.78125 C 429.316406 285.359375 425.234375 288.710938 425.210938 293.480469 L 425.507812 299.449219 C 425.554688 300.375 424.839844 301.164062 423.910156 301.210938 C 422.984375 301.257812 422.191406 300.542969 422.148438 299.613281 L 421.847656 293.601562 C 421.847656 293.574219 421.847656 293.546875 421.847656 293.519531 C 421.847656 288.792969 424.714844 284.328125 429.925781 280.957031 C 434.378906 278.074219 440.003906 276.351562 444.96875 276.351562 C 449.9375 276.351562 455.5625 278.074219 460.011719 280.957031 C 465.222656 284.328125 468.09375 288.792969 468.09375 293.519531 L 468.09375 299.632812 C 468.09375 300.558594 467.339844 301.3125 466.410156 301.3125 Z M 466.410156 301.3125 " fill-opacity="1" fill-rule="nonzero"/><path fill="#f5a93b" d="M 453.308594 301.15625 L 436.632812 301.15625 C 435.703125 301.15625 434.949219 300.402344 434.949219 299.472656 C 434.949219 298.546875 435.703125 297.792969 436.632812 297.792969 L 453.308594 297.792969 C 454.238281 297.792969 454.988281 298.546875 454.988281 299.472656 C 454.988281 300.402344 454.238281 301.15625 453.308594 301.15625 Z M 453.308594 301.15625 " fill-opacity="1" fill-rule="nonzero"/><path fill="#ffffff" d="M 456.882812 256.59375 C 456.882812 257.375 456.804688 258.148438 456.652344 258.917969 C 456.5 259.683594 456.273438 260.429688 455.972656 261.152344 C 455.675781 261.875 455.308594 262.5625 454.875 263.210938 C 454.4375 263.863281 453.945312 264.464844 453.390625 265.015625 C 452.839844 265.570312 452.238281 266.0625 451.585938 266.496094 C 450.9375 266.933594 450.25 267.300781 449.527344 267.597656 C 448.804688 267.898438 448.0625 268.125 447.292969 268.277344 C 446.527344 268.429688 445.75 268.503906 444.96875 268.503906 C 444.1875 268.503906 443.414062 268.429688 442.644531 268.277344 C 441.878906 268.125 441.132812 267.898438 440.410156 267.597656 C 439.6875 267.300781 439.003906 266.933594 438.351562 266.496094 C 437.703125 266.0625 437.101562 265.570312 436.546875 265.015625 C 435.992188 264.464844 435.5 263.863281 435.066406 263.210938 C 434.632812 262.5625 434.265625 261.875 433.964844 261.152344 C 433.664062 260.429688 433.441406 259.683594 433.285156 258.917969 C 433.132812 258.148438 433.058594 257.375 433.058594 256.59375 C 433.058594 255.8125 433.132812 255.035156 433.285156 254.269531 C 433.441406 253.503906 433.664062 252.757812 433.964844 252.035156 C 434.265625 251.3125 434.632812 250.625 435.066406 249.976562 C 435.5 249.324219 435.992188 248.722656 436.546875 248.171875 C 437.101562 247.617188 437.703125 247.125 438.351562 246.691406 C 439.003906 246.253906 439.6875 245.886719 440.410156 245.589844 C 441.132812 245.289062 441.878906 245.0625 442.644531 244.910156 C 443.414062 244.757812 444.1875 244.683594 444.96875 244.683594 C 445.75 244.683594 446.527344 244.757812 447.292969 244.910156 C 448.0625 245.0625 448.804688 245.289062 449.527344 245.589844 C 450.25 245.886719 450.9375 246.253906 451.585938 246.691406 C 452.238281 247.125 452.839844 247.617188 453.390625 248.171875 C 453.945312 248.722656 454.4375 249.324219 454.875 249.976562 C 455.308594 250.625 455.675781 251.3125 455.972656 252.035156 C 456.273438 252.757812 456.5 253.503906 456.652344 254.269531 C 456.804688 255.035156 456.882812 255.8125 456.882812 256.59375 Z M 456.882812 256.59375 " fill-opacity="1" fill-rule="nonzero"/><path fill="#f5a93b" d="M 444.96875 270.1875 C 437.472656 270.1875 431.375 264.089844 431.375 256.59375 C 431.375 249.097656 437.472656 243 444.96875 243 C 452.464844 243 458.5625 249.097656 458.5625 256.59375 C 458.5625 264.089844 452.464844 270.1875 444.96875 270.1875 Z M 444.96875 246.363281 C 439.328125 246.363281 434.742188 250.953125 434.742188 256.59375 C 434.742188 262.234375 439.328125 266.824219 444.96875 266.824219 C 450.609375 266.824219 455.199219 262.234375 455.199219 256.59375 C 455.199219 250.953125 450.609375 246.363281 444.96875 246.363281 Z M 444.96875 246.363281 " fill-opacity="1" fill-rule="nonzero"/><path fill="#ffffff" d="M 405.664062 289.945312 C 414.753906 289.945312 427.101562 296.339844 427.101562 305.429688 L 427.101562 311.386719 L 384.222656 311.386719 L 384.222656 305.429688 C 384.222656 296.339844 396.574219 289.945312 405.664062 289.945312 Z M 405.664062 289.945312 " fill-opacity="1" fill-rule="nonzero"/><path fill="#f5a93b" d="M 427.101562 313.066406 L 384.222656 313.066406 C 383.292969 313.066406 382.539062 312.316406 382.539062 311.386719 L 382.539062 305.429688 C 382.539062 300.703125 385.410156 296.242188 390.617188 292.867188 C 395.070312 289.984375 400.695312 288.261719 405.664062 288.261719 C 410.628906 288.261719 416.253906 289.984375 420.707031 292.867188 C 425.914062 296.242188 428.785156 300.703125 428.785156 305.429688 L 428.785156 311.386719 C 428.785156 312.316406 428.03125 313.066406 427.101562 313.066406 Z M 385.902344 309.703125 L 425.421875 309.703125 L 425.421875 305.429688 C 425.421875 300.644531 421.320312 297.273438 418.878906 295.691406 C 415.007812 293.183594 409.941406 291.628906 405.664062 291.628906 C 401.382812 291.628906 396.320312 293.183594 392.449219 295.691406 C 390.003906 297.273438 385.90625 300.644531 385.90625 305.429688 L 385.90625 309.703125 Z M 385.902344 309.703125 " fill-opacity="1" fill-rule="nonzero"/><path fill="#ffffff" d="M 417.574219 268.503906 C 417.574219 269.285156 417.496094 270.0625 417.34375 270.828125 C 417.191406 271.597656 416.964844 272.339844 416.667969 273.0625 C 416.367188 273.785156 416 274.472656 415.566406 275.121094 C 415.132812 275.773438 414.636719 276.375 414.085938 276.925781 C 413.53125 277.480469 412.929688 277.972656 412.28125 278.410156 C 411.628906 278.84375 410.941406 279.210938 410.21875 279.507812 C 409.496094 279.808594 408.753906 280.035156 407.984375 280.1875 C 407.21875 280.339844 406.445312 280.417969 405.664062 280.417969 C 404.878906 280.417969 404.105469 280.339844 403.339844 280.1875 C 402.570312 280.035156 401.828125 279.808594 401.105469 279.507812 C 400.382812 279.210938 399.695312 278.84375 399.042969 278.410156 C 398.394531 277.972656 397.792969 277.480469 397.238281 276.925781 C 396.6875 276.375 396.191406 275.773438 395.757812 275.121094 C 395.324219 274.472656 394.957031 273.785156 394.65625 273.0625 C 394.359375 272.339844 394.132812 271.597656 393.980469 270.828125 C 393.828125 270.0625 393.75 269.285156 393.75 268.503906 C 393.75 267.722656 393.828125 266.949219 393.980469 266.179688 C 394.132812 265.414062 394.359375 264.667969 394.65625 263.945312 C 394.957031 263.222656 395.324219 262.539062 395.757812 261.886719 C 396.191406 261.238281 396.6875 260.636719 397.238281 260.082031 C 397.792969 259.527344 398.394531 259.035156 399.042969 258.601562 C 399.695312 258.167969 400.382812 257.800781 401.105469 257.5 C 401.828125 257.199219 402.570312 256.976562 403.339844 256.824219 C 404.105469 256.667969 404.878906 256.59375 405.664062 256.59375 C 406.445312 256.59375 407.21875 256.667969 407.984375 256.824219 C 408.753906 256.976562 409.496094 257.199219 410.21875 257.5 C 410.941406 257.800781 411.628906 258.167969 412.28125 258.601562 C 412.929688 259.035156 413.53125 259.527344 414.085938 260.082031 C 414.636719 260.636719 415.132812 261.238281 415.566406 261.886719 C 416 262.539062 416.367188 263.222656 416.667969 263.945312 C 416.964844 264.667969 417.191406 265.414062 417.34375 266.179688 C 417.496094 266.949219 417.574219 267.722656 417.574219 268.503906 Z M 417.574219 268.503906 " fill-opacity="1" fill-rule="nonzero"/><path fill="#f5a93b" d="M 405.664062 282.097656 C 398.167969 282.097656 392.070312 276 392.070312 268.503906 C 392.070312 261.007812 398.167969 254.910156 405.664062 254.910156 C 413.15625 254.910156 419.253906 261.007812 419.253906 268.503906 C 419.253906 276 413.15625 282.097656 405.664062 282.097656 Z M 405.664062 258.277344 C 400.023438 258.277344 395.433594 262.863281 395.433594 268.503906 C 395.433594 274.144531 400.023438 278.734375 405.664062 278.734375 C 411.300781 278.734375 415.890625 274.144531 415.890625 268.503906 C 415.890625 262.863281 411.300781 258.277344 405.664062 258.277344 Z M 405.664062 258.277344 " fill-opacity="1" fill-rule="nonzero"/><path fill="#ffffff" d="M 484.277344 289.945312 C 493.367188 289.945312 505.71875 296.339844 505.71875 305.429688 L 505.71875 311.386719 L 462.835938 311.386719 L 462.835938 305.429688 C 462.835938 296.339844 475.1875 289.945312 484.277344 289.945312 Z M 484.277344 289.945312 " fill-opacity="1" fill-rule="nonzero"/><path fill="#f5a93b" d="M 505.71875 313.066406 L 462.835938 313.066406 C 461.90625 313.066406 461.15625 312.316406 461.15625 311.386719 L 461.15625 305.429688 C 461.15625 300.703125 464.023438 296.242188 469.234375 292.867188 C 473.6875 289.984375 479.308594 288.261719 484.277344 288.261719 C 489.246094 288.261719 494.867188 289.984375 499.320312 292.867188 C 504.53125 296.242188 507.398438 300.703125 507.398438 305.429688 L 507.398438 311.386719 C 507.398438 312.316406 506.648438 313.066406 505.71875 313.066406 Z M 464.519531 309.703125 L 504.035156 309.703125 L 504.035156 305.429688 C 504.035156 300.644531 499.9375 297.273438 497.492188 295.691406 C 493.621094 293.183594 488.558594 291.628906 484.277344 291.628906 C 479.996094 291.628906 474.933594 293.183594 471.0625 295.691406 C 468.621094 297.273438 464.519531 300.644531 464.519531 305.429688 Z M 464.519531 309.703125 " fill-opacity="1" fill-rule="nonzero"/><path fill="#ffffff" d="M 496.1875 268.503906 C 496.1875 269.285156 496.113281 270.0625 495.960938 270.828125 C 495.808594 271.597656 495.582031 272.339844 495.28125 273.0625 C 494.984375 273.785156 494.617188 274.472656 494.179688 275.121094 C 493.746094 275.773438 493.253906 276.375 492.699219 276.925781 C 492.148438 277.480469 491.546875 277.972656 490.894531 278.410156 C 490.246094 278.84375 489.558594 279.210938 488.835938 279.507812 C 488.113281 279.808594 487.367188 280.035156 486.601562 280.1875 C 485.832031 280.339844 485.058594 280.417969 484.277344 280.417969 C 483.496094 280.417969 482.71875 280.339844 481.953125 280.1875 C 481.1875 280.035156 480.441406 279.808594 479.71875 279.507812 C 478.996094 279.210938 478.308594 278.84375 477.660156 278.410156 C 477.007812 277.972656 476.40625 277.480469 475.855469 276.925781 C 475.300781 276.375 474.808594 275.773438 474.375 275.121094 C 473.9375 274.472656 473.570312 273.785156 473.273438 273.0625 C 472.972656 272.339844 472.746094 271.597656 472.59375 270.828125 C 472.441406 270.0625 472.367188 269.285156 472.367188 268.503906 C 472.367188 267.722656 472.441406 266.949219 472.59375 266.179688 C 472.746094 265.414062 472.972656 264.667969 473.273438 263.945312 C 473.570312 263.222656 473.9375 262.539062 474.375 261.886719 C 474.808594 261.238281 475.300781 260.636719 475.855469 260.082031 C 476.40625 259.527344 477.007812 259.035156 477.660156 258.601562 C 478.308594 258.167969 478.996094 257.800781 479.71875 257.5 C 480.441406 257.199219 481.1875 256.976562 481.953125 256.824219 C 482.71875 256.667969 483.496094 256.59375 484.277344 256.59375 C 485.058594 256.59375 485.832031 256.667969 486.601562 256.824219 C 487.367188 256.976562 488.113281 257.199219 488.835938 257.5 C 489.558594 257.800781 490.246094 258.167969 490.894531 258.601562 C 491.546875 259.035156 492.148438 259.527344 492.699219 260.082031 C 493.253906 260.636719 493.746094 261.238281 494.179688 261.886719 C 494.617188 262.539062 494.984375 263.222656 495.28125 263.945312 C 495.582031 264.667969 495.808594 265.414062 495.960938 266.179688 C 496.113281 266.949219 496.1875 267.722656 496.1875 268.503906 Z M 496.1875 268.503906 " fill-opacity="1" fill-rule="nonzero"/><path fill="#f5a93b" d="M 484.277344 282.097656 C 476.78125 282.097656 470.683594 276 470.683594 268.503906 C 470.683594 261.007812 476.78125 254.910156 484.277344 254.910156 C 491.773438 254.910156 497.871094 261.007812 497.871094 268.503906 C 497.871094 276 491.773438 282.097656 484.277344 282.097656 Z M 484.277344 258.277344 C 478.636719 258.277344 474.046875 262.863281 474.046875 268.503906 C 474.046875 274.144531 478.636719 278.734375 484.277344 278.734375 C 489.917969 278.734375 494.507812 274.144531 494.507812 268.503906 C 494.507812 262.863281 489.917969 258.277344 484.277344 258.277344 Z M 484.277344 258.277344 " fill-opacity="1" fill-rule="nonzero"/><path fill="#ffffff" d="M 496.953125 534.007812 L 390.949219 534.007812 C 388.582031 534.007812 386.660156 532.085938 386.660156 529.71875 L 386.660156 413.292969 C 386.660156 410.921875 388.582031 409 390.949219 409 L 500.199219 409 Z M 496.953125 534.007812 " fill-opacity="1" fill-rule="nonzero"/><path fill="#f5a93b" d="M 496.953125 535.691406 L 390.949219 535.691406 C 387.65625 535.691406 384.976562 533.011719 384.976562 529.71875 L 384.976562 413.292969 C 384.976562 410 387.65625 407.320312 390.949219 407.320312 L 500.199219 407.320312 C 501.128906 407.320312 501.882812 408.070312 501.882812 409 C 501.882812 409.929688 501.128906 410.683594 500.199219 410.683594 L 390.949219 410.683594 C 389.511719 410.683594 388.34375 411.851562 388.34375 413.292969 L 388.34375 529.71875 C 388.34375 531.15625 389.511719 532.324219 390.949219 532.324219 L 496.953125 532.324219 C 497.882812 532.324219 498.632812 533.078125 498.632812 534.007812 C 498.632812 534.9375 497.882812 535.691406 496.953125 535.691406 Z M 496.953125 535.691406 " fill-opacity="1" fill-rule="nonzero"/><path fill="#ff7428" d="M 499.757812 425.964844 L 500.199219 409 L 390.949219 409 C 388.582031 409 386.660156 410.921875 386.660156 413.292969 L 386.660156 425.964844 Z M 499.757812 425.964844 " fill-opacity="1" fill-rule="nonzero"/><path fill="#f5a93b" d="M 499.757812 427.648438 C 499.746094 427.648438 499.730469 427.648438 499.714844 427.644531 C 498.785156 427.621094 498.050781 426.851562 498.078125 425.921875 L 498.472656 410.683594 L 390.949219 410.683594 C 389.511719 410.683594 388.34375 411.855469 388.34375 413.292969 L 388.34375 424.28125 L 466.140625 424.28125 C 467.070312 424.28125 467.824219 425.035156 467.824219 425.964844 C 467.824219 426.894531 467.070312 427.648438 466.140625 427.648438 L 386.660156 427.648438 C 385.730469 427.648438 384.976562 426.894531 384.976562 425.964844 L 384.976562 413.292969 C 384.976562 410 387.65625 407.320312 390.949219 407.320312 L 500.199219 407.320312 C 500.652344 407.320312 501.085938 407.503906 501.402344 407.828125 C 501.71875 408.152344 501.894531 408.589844 501.878906 409.042969 L 501.441406 426.007812 C 501.417969 426.921875 500.667969 427.648438 499.757812 427.648438 Z M 499.757812 427.648438 " fill-opacity="1" fill-rule="nonzero"/><path fill="#ffffff" d="M 399.183594 451.542969 L 399.183594 446.101562 C 399.183594 440.964844 403.347656 436.800781 408.484375 436.800781 L 454.910156 436.800781 C 460.046875 436.800781 464.210938 440.964844 464.210938 446.101562 L 464.210938 451.542969 Z M 399.183594 451.542969 " fill-opacity="1" fill-rule="nonzero"/><path fill="#f5a93b" d="M 464.210938 453.226562 C 463.285156 453.226562 462.53125 452.472656 462.53125 451.542969 L 462.53125 446.101562 C 462.53125 441.902344 459.113281 438.484375 454.910156 438.484375 L 408.484375 438.484375 C 404.285156 438.484375 400.867188 441.902344 400.867188 446.101562 L 400.867188 451.542969 C 400.867188 452.472656 400.113281 453.226562 399.183594 453.226562 C 398.257812 453.226562 397.503906 452.472656 397.503906 451.542969 L 397.503906 446.101562 C 397.503906 440.046875 402.429688 435.121094 408.484375 435.121094 L 454.910156 435.121094 C 460.96875 435.121094 465.894531 440.046875 465.894531 446.101562 L 465.894531 451.542969 C 465.894531 452.472656 465.140625 453.226562 464.210938 453.226562 Z M 464.210938 453.226562 " fill-opacity="1" fill-rule="nonzero"/><path fill="#ffffff" d="M 464.210938 473.753906 L 464.210938 492.527344 C 464.210938 497.664062 460.046875 501.828125 454.910156 501.828125 L 408.484375 501.828125 C 403.347656 501.828125 399.183594 497.664062 399.183594 492.527344 L 399.183594 473.011719 Z M 464.210938 473.753906 " fill-opacity="1" fill-rule="nonzero"/><path fill="#f5a93b" d="M 454.910156 503.511719 L 408.484375 503.511719 C 402.429688 503.511719 397.503906 498.585938 397.503906 492.527344 L 397.503906 473.011719 C 397.503906 472.082031 398.257812 471.332031 399.183594 471.332031 C 400.113281 471.332031 400.867188 472.082031 400.867188 473.011719 L 400.867188 492.527344 C 400.867188 496.730469 404.285156 500.148438 408.484375 500.148438 L 454.910156 500.148438 C 459.113281 500.148438 462.53125 496.730469 462.53125 492.527344 L 462.53125 473.753906 C 462.53125 472.824219 463.285156 472.070312 464.210938 472.070312 C 465.140625 472.070312 465.894531 472.824219 465.894531 473.753906 L 465.894531 492.527344 C 465.894531 498.585938 460.96875 503.511719 454.910156 503.511719 Z M 454.910156 503.511719 " fill-opacity="1" fill-rule="nonzero"/><path fill="#f5a93b" d="M 464.210938 519.277344 L 399.183594 519.277344 C 398.257812 519.277344 397.503906 518.523438 397.503906 517.59375 C 397.503906 516.664062 398.257812 515.914062 399.183594 515.914062 L 464.210938 515.914062 C 465.140625 515.914062 465.894531 516.664062 465.894531 517.59375 C 465.894531 518.523438 465.140625 519.277344 464.210938 519.277344 Z M 464.210938 519.277344 " fill-opacity="1" fill-rule="nonzero"/><path fill="#ff7428" d="M 454.359375 465.34375 L 454.359375 484.761719 C 454.359375 487.195312 452.386719 489.171875 449.949219 489.171875 L 413.445312 489.171875 C 411.011719 489.171875 409.039062 487.195312 409.039062 484.761719 L 409.039062 465.34375 Z M 454.359375 465.34375 " fill-opacity="1" fill-rule="nonzero"/><path fill="#f5a93b" d="M 449.949219 490.851562 L 413.445312 490.851562 C 410.089844 490.851562 407.355469 488.121094 407.355469 484.761719 L 407.355469 465.34375 C 407.355469 464.414062 408.109375 463.660156 409.039062 463.660156 C 409.96875 463.660156 410.722656 464.414062 410.722656 465.34375 L 410.722656 484.761719 C 410.722656 486.265625 411.945312 487.488281 413.445312 487.488281 L 449.949219 487.488281 C 451.453125 487.488281 452.675781 486.265625 452.675781 484.761719 L 452.675781 465.34375 C 452.675781 464.414062 453.429688 463.660156 454.359375 463.660156 C 455.289062 463.660156 456.039062 464.414062 456.039062 465.34375 L 456.039062 484.761719 C 456.039062 488.121094 453.308594 490.851562 449.949219 490.851562 Z M 449.949219 490.851562 " fill-opacity="1" fill-rule="nonzero"/><path fill="#ff7428" d="M 396.808594 459.535156 L 430.371094 449.652344 C 431.238281 449.394531 432.160156 449.394531 433.027344 449.652344 L 466.589844 459.535156 C 467.6875 459.859375 467.6875 461.417969 466.589844 461.742188 L 433.027344 471.625 C 432.160156 471.878906 431.238281 471.878906 430.371094 471.625 L 396.808594 461.742188 C 395.710938 461.417969 395.710938 459.859375 396.808594 459.535156 Z M 396.808594 459.535156 " fill-opacity="1" fill-rule="nonzero"/><path fill="#f5a93b" d="M 431.699219 473.5 C 431.089844 473.5 430.484375 473.414062 429.894531 473.238281 L 396.335938 463.355469 C 395.117188 462.996094 394.300781 461.90625 394.300781 460.636719 C 394.300781 459.371094 395.117188 458.277344 396.335938 457.921875 L 429.894531 448.039062 C 431.074219 447.691406 432.324219 447.691406 433.503906 448.039062 L 467.0625 457.921875 C 468.277344 458.277344 469.09375 459.371094 469.09375 460.636719 C 469.09375 461.90625 468.277344 462.996094 467.0625 463.355469 L 433.503906 473.238281 C 432.914062 473.414062 432.304688 473.5 431.699219 473.5 Z M 399.019531 460.636719 L 430.84375 470.011719 C 431.402344 470.175781 431.996094 470.175781 432.554688 470.011719 L 464.378906 460.636719 L 432.554688 451.265625 C 431.996094 451.101562 431.402344 451.101562 430.84375 451.265625 Z M 396.808594 459.535156 L 397.285156 461.148438 Z M 396.808594 459.535156 " fill-opacity="1" fill-rule="nonzero"/><path fill="#ff7428" d="M 504.460938 456.621094 C 505.660156 456.226562 506.8125 455.734375 507.910156 455.152344 C 508.332031 454.929688 508.84375 454.992188 509.183594 455.324219 L 512.175781 458.257812 C 512.976562 459.042969 514.261719 459.03125 515.042969 458.230469 L 520.515625 452.648438 C 521.300781 451.847656 521.289062 450.566406 520.488281 449.78125 L 517.5 446.847656 C 517.15625 446.515625 517.085938 446 517.300781 445.574219 C 517.863281 444.46875 518.332031 443.304688 518.703125 442.097656 C 518.839844 441.644531 519.25 441.324219 519.726562 441.320312 L 523.914062 441.28125 C 525.035156 441.269531 525.933594 440.351562 525.921875 439.230469 L 525.84375 431.414062 C 525.832031 430.292969 524.917969 429.394531 523.796875 429.40625 L 519.609375 429.449219 C 519.132812 429.453125 518.71875 429.140625 518.570312 428.6875 C 518.175781 427.492188 517.683594 426.339844 517.101562 425.242188 C 516.878906 424.820312 516.941406 424.304688 517.273438 423.964844 L 520.207031 420.972656 C 520.992188 420.175781 520.976562 418.890625 520.179688 418.105469 L 514.597656 412.632812 C 513.796875 411.847656 512.511719 411.859375 511.726562 412.660156 L 508.796875 415.652344 C 508.460938 415.992188 507.949219 416.066406 507.523438 415.851562 C 506.414062 415.289062 505.253906 414.820312 504.046875 414.449219 C 503.59375 414.308594 503.273438 413.902344 503.269531 413.425781 L 503.226562 409.238281 C 503.214844 408.117188 502.300781 407.21875 501.179688 407.230469 L 493.363281 407.304688 C 492.242188 407.316406 491.34375 408.234375 491.355469 409.355469 L 491.394531 413.542969 C 491.398438 414.019531 491.089844 414.433594 490.636719 414.582031 C 489.4375 414.972656 488.285156 415.464844 487.1875 416.050781 C 486.769531 416.273438 486.253906 416.210938 485.914062 415.875 L 482.921875 412.945312 C 482.121094 412.160156 480.835938 412.171875 480.054688 412.972656 L 474.582031 418.554688 C 473.796875 419.351562 473.808594 420.636719 474.609375 421.421875 L 477.601562 424.355469 C 477.941406 424.6875 478.011719 425.203125 477.796875 425.625 C 477.238281 426.734375 476.765625 427.898438 476.398438 429.101562 C 476.257812 429.558594 475.847656 429.875 475.375 429.882812 L 471.183594 429.921875 C 470.066406 429.933594 469.164062 430.851562 469.175781 431.972656 L 469.253906 439.789062 C 469.265625 440.90625 470.179688 441.808594 471.300781 441.796875 L 475.488281 441.753906 C 475.964844 441.75 476.378906 442.0625 476.527344 442.515625 C 476.921875 443.710938 477.414062 444.863281 477.996094 445.960938 C 478.21875 446.382812 478.15625 446.898438 477.824219 447.238281 L 474.890625 450.226562 C 474.105469 451.027344 474.121094 452.3125 474.917969 453.097656 L 480.5 458.570312 C 481.300781 459.355469 482.585938 459.339844 483.371094 458.542969 L 486.300781 455.550781 C 486.636719 455.210938 487.148438 455.136719 487.574219 455.351562 C 488.683594 455.914062 489.84375 456.382812 491.050781 456.753906 Z M 504.460938 456.621094 " fill-opacity="1" fill-rule="nonzero"/><path fill="#f5a93b" d="M 481.921875 460.832031 C 480.941406 460.832031 480.023438 460.457031 479.324219 459.769531 L 473.742188 454.296875 C 473.035156 453.605469 472.640625 452.675781 472.628906 451.683594 C 472.621094 450.695312 472.996094 449.757812 473.691406 449.050781 L 476.316406 446.375 C 475.835938 445.425781 475.417969 444.445312 475.066406 443.441406 L 471.320312 443.476562 C 471.304688 443.476562 471.292969 443.476562 471.28125 443.476562 C 469.253906 443.476562 467.589844 441.835938 467.570312 439.804688 L 467.496094 431.988281 C 467.484375 430.996094 467.863281 430.0625 468.554688 429.351562 C 469.25 428.644531 470.179688 428.25 471.167969 428.242188 L 474.917969 428.203125 C 475.246094 427.195312 475.648438 426.203125 476.109375 425.246094 L 473.433594 422.625 C 472.722656 421.929688 472.328125 421 472.320312 420.007812 C 472.308594 419.019531 472.6875 418.082031 473.378906 417.375 L 478.851562 411.792969 C 479.546875 411.085938 480.476562 410.691406 481.464844 410.679688 C 482.460938 410.671875 483.394531 411.046875 484.101562 411.742188 L 486.777344 414.367188 C 487.722656 413.886719 488.707031 413.46875 489.710938 413.117188 L 489.671875 409.371094 C 489.652344 407.324219 491.300781 405.644531 493.347656 405.625 L 501.164062 405.546875 C 501.175781 405.546875 501.1875 405.546875 501.199219 405.546875 C 502.179688 405.546875 503.097656 405.921875 503.796875 406.609375 C 504.503906 407.300781 504.898438 408.230469 504.910156 409.222656 L 504.945312 412.96875 C 505.957031 413.300781 506.945312 413.699219 507.902344 414.160156 L 510.527344 411.484375 C 511.960938 410.023438 514.3125 410 515.777344 411.433594 L 521.355469 416.90625 C 522.0625 417.597656 522.460938 418.527344 522.46875 419.519531 C 522.480469 420.507812 522.101562 421.445312 521.40625 422.152344 L 518.78125 424.828125 C 519.265625 425.777344 519.683594 426.757812 520.03125 427.761719 L 523.78125 427.722656 C 523.792969 427.722656 523.804688 427.722656 523.816406 427.722656 C 525.847656 427.722656 527.507812 429.363281 527.527344 431.398438 L 527.605469 439.214844 C 527.613281 440.207031 527.238281 441.140625 526.542969 441.851562 C 525.847656 442.558594 524.921875 442.953125 523.929688 442.960938 L 520.179688 443 C 519.851562 444.007812 519.453125 445 518.992188 445.953125 L 521.667969 448.578125 C 522.375 449.273438 522.769531 450.203125 522.78125 451.191406 C 522.789062 452.183594 522.414062 453.121094 521.71875 453.828125 L 516.246094 459.410156 C 515.550781 460.117188 514.625 460.511719 513.632812 460.519531 C 512.636719 460.53125 511.707031 460.152344 511 459.460938 L 508.320312 456.835938 C 507.25 457.378906 506.128906 457.84375 504.988281 458.21875 C 504.105469 458.511719 503.152344 458.03125 502.863281 457.148438 C 502.574219 456.265625 503.054688 455.3125 503.9375 455.023438 C 505.03125 454.664062 506.101562 454.207031 507.121094 453.667969 C 508.199219 453.097656 509.5 453.28125 510.363281 454.125 L 513.355469 457.058594 C 513.4375 457.140625 513.539062 457.160156 513.601562 457.15625 C 513.664062 457.15625 513.761719 457.136719 513.84375 457.054688 L 519.316406 451.472656 C 519.398438 451.386719 519.417969 451.292969 519.414062 451.226562 C 519.414062 451.160156 519.394531 451.066406 519.3125 450.980469 L 516.320312 448.050781 C 515.457031 447.203125 515.25 445.90625 515.800781 444.816406 C 516.320312 443.789062 516.753906 442.707031 517.09375 441.605469 C 517.449219 440.441406 518.5 439.652344 519.707031 439.640625 L 523.894531 439.597656 C 524.015625 439.597656 524.09375 439.539062 524.140625 439.492188 C 524.1875 439.449219 524.242188 439.367188 524.238281 439.25 L 524.164062 431.433594 C 524.160156 431.242188 524.007812 431.089844 523.816406 431.089844 C 523.816406 431.089844 523.8125 431.089844 523.8125 431.089844 L 519.625 431.128906 C 519.617188 431.128906 519.605469 431.128906 519.597656 431.128906 C 518.402344 431.128906 517.347656 430.363281 516.972656 429.214844 C 516.613281 428.121094 516.15625 427.046875 515.613281 426.03125 C 515.042969 424.953125 515.226562 423.648438 516.074219 422.789062 L 519.003906 419.796875 C 519.089844 419.710938 519.105469 419.617188 519.105469 419.550781 C 519.105469 419.484375 519.085938 419.390625 519 419.308594 L 513.417969 413.835938 C 513.285156 413.699219 513.0625 413.703125 512.929688 413.839844 L 509.996094 416.832031 C 509.152344 417.691406 507.851562 417.902344 506.765625 417.351562 C 505.738281 416.832031 504.65625 416.394531 503.554688 416.058594 C 502.390625 415.699219 501.597656 414.648438 501.585938 413.441406 L 501.546875 409.253906 C 501.542969 409.0625 501.382812 408.910156 501.195312 408.910156 L 493.378906 408.988281 C 493.1875 408.988281 493.035156 409.148438 493.035156 409.339844 L 493.078125 413.527344 C 493.089844 414.734375 492.320312 415.800781 491.160156 416.179688 C 490.066406 416.539062 488.996094 416.996094 487.976562 417.535156 C 486.902344 418.105469 485.597656 417.921875 484.734375 417.078125 L 481.746094 414.144531 C 481.660156 414.0625 481.566406 414.046875 481.5 414.046875 C 481.433594 414.046875 481.339844 414.066406 481.253906 414.148438 L 475.78125 419.730469 C 475.699219 419.816406 475.683594 419.910156 475.683594 419.976562 C 475.683594 420.042969 475.703125 420.136719 475.789062 420.222656 L 478.777344 423.152344 C 479.640625 424 479.851562 425.296875 479.300781 426.386719 C 478.777344 427.414062 478.34375 428.496094 478.003906 429.597656 C 477.648438 430.761719 476.597656 431.550781 475.390625 431.5625 L 471.203125 431.605469 C 471.082031 431.605469 471.003906 431.664062 470.957031 431.707031 C 470.914062 431.753906 470.859375 431.835938 470.859375 431.953125 L 470.9375 439.769531 C 470.9375 439.960938 471.09375 440.113281 471.28125 440.113281 C 471.285156 440.113281 471.285156 440.113281 471.285156 440.113281 L 475.472656 440.074219 C 475.484375 440.074219 475.492188 440.074219 475.5 440.074219 C 476.695312 440.074219 477.75 440.839844 478.128906 441.988281 C 478.488281 443.082031 478.941406 444.15625 479.484375 445.171875 C 480.054688 446.25 479.871094 447.550781 479.027344 448.414062 L 476.09375 451.40625 C 476.011719 451.492188 475.992188 451.585938 475.996094 451.652344 C 475.996094 451.71875 476.011719 451.8125 476.097656 451.894531 L 481.679688 457.367188 C 481.761719 457.449219 481.855469 457.46875 481.921875 457.46875 C 481.921875 457.46875 481.925781 457.46875 481.925781 457.46875 C 481.992188 457.464844 482.085938 457.449219 482.167969 457.363281 L 485.101562 454.371094 C 485.945312 453.511719 487.246094 453.300781 488.332031 453.851562 C 489.363281 454.371094 490.441406 454.808594 491.542969 455.144531 C 492.433594 455.417969 492.929688 456.359375 492.660156 457.246094 C 492.386719 458.136719 491.445312 458.632812 490.558594 458.363281 C 489.410156 458.007812 488.28125 457.566406 487.195312 457.042969 L 484.570312 459.71875 C 483.878906 460.425781 482.949219 460.820312 481.957031 460.832031 C 481.945312 460.832031 481.933594 460.832031 481.921875 460.832031 Z M 481.921875 460.832031 " fill-opacity="1" fill-rule="nonzero"/><path fill="#ffffff" d="M 510.023438 435.601562 C 510.023438 436.421875 509.945312 437.234375 509.785156 438.035156 C 509.625 438.839844 509.390625 439.621094 509.074219 440.378906 C 508.761719 441.136719 508.378906 441.855469 507.921875 442.535156 C 507.464844 443.214844 506.949219 443.847656 506.371094 444.425781 C 505.789062 445.007812 505.160156 445.523438 504.480469 445.980469 C 503.796875 446.433594 503.078125 446.820312 502.320312 447.132812 C 501.5625 447.445312 500.785156 447.683594 499.980469 447.84375 C 499.175781 448.003906 498.363281 448.082031 497.542969 448.082031 C 496.726562 448.082031 495.914062 448.003906 495.109375 447.84375 C 494.304688 447.683594 493.527344 447.445312 492.769531 447.132812 C 492.011719 446.820312 491.292969 446.433594 490.609375 445.980469 C 489.929688 445.523438 489.300781 445.007812 488.71875 444.425781 C 488.140625 443.847656 487.625 443.21875 487.167969 442.535156 C 486.710938 441.855469 486.328125 441.136719 486.015625 440.378906 C 485.699219 439.621094 485.464844 438.839844 485.304688 438.035156 C 485.144531 437.234375 485.066406 436.421875 485.066406 435.601562 C 485.066406 434.78125 485.144531 433.972656 485.304688 433.167969 C 485.464844 432.363281 485.699219 431.582031 486.015625 430.824219 C 486.328125 430.070312 486.710938 429.347656 487.167969 428.667969 C 487.625 427.988281 488.140625 427.355469 488.71875 426.777344 C 489.300781 426.199219 489.929688 425.679688 490.609375 425.226562 C 491.292969 424.769531 492.011719 424.386719 492.769531 424.070312 C 493.527344 423.757812 494.304688 423.519531 495.109375 423.363281 C 495.914062 423.203125 496.726562 423.121094 497.542969 423.121094 C 498.363281 423.121094 499.175781 423.203125 499.980469 423.363281 C 500.785156 423.519531 501.5625 423.757812 502.320312 424.070312 C 503.078125 424.386719 503.796875 424.769531 504.480469 425.226562 C 505.160156 425.679688 505.789062 426.199219 506.371094 426.777344 C 506.949219 427.355469 507.464844 427.988281 507.921875 428.667969 C 508.378906 429.347656 508.761719 430.070312 509.074219 430.824219 C 509.390625 431.582031 509.625 432.363281 509.785156 433.167969 C 509.945312 433.972656 510.023438 434.78125 510.023438 435.601562 Z M 510.023438 435.601562 " fill-opacity="1" fill-rule="nonzero"/><path fill="#f5a93b" d="M 497.546875 449.765625 C 489.800781 449.765625 483.464844 443.503906 483.386719 435.742188 C 483.351562 431.957031 484.789062 428.386719 487.4375 425.6875 C 490.085938 422.984375 493.628906 421.476562 497.410156 421.441406 C 501.199219 421.402344 504.765625 422.839844 507.464844 425.488281 C 510.164062 428.136719 511.675781 431.679688 511.710938 435.460938 C 511.789062 443.269531 505.496094 449.6875 497.6875 449.761719 C 497.640625 449.765625 497.59375 449.765625 497.546875 449.765625 Z M 497.550781 424.804688 C 497.515625 424.804688 497.480469 424.804688 497.445312 424.804688 C 494.558594 424.832031 491.859375 425.980469 489.839844 428.042969 C 487.820312 430.101562 486.722656 432.824219 486.753906 435.707031 C 486.808594 441.625 491.644531 446.398438 497.546875 446.398438 C 497.582031 446.398438 497.621094 446.398438 497.65625 446.398438 C 503.609375 446.339844 508.40625 441.449219 508.347656 435.496094 C 508.320312 432.609375 507.167969 429.910156 505.109375 427.890625 C 503.074219 425.898438 500.394531 424.804688 497.550781 424.804688 Z M 497.550781 424.804688 " fill-opacity="1" fill-rule="nonzero"/><path fill="#ffffff" d="M 522.972656 523.09375 L 522.972656 517.242188 C 530.613281 512.386719 535.242188 503.960938 535.242188 494.90625 L 535.242188 474.242188 C 535.242188 471.265625 532.828125 468.851562 529.851562 468.851562 C 526.875 468.851562 524.460938 471.265625 524.460938 474.242188 L 524.460938 489.492188 L 524.460938 472.175781 C 524.460938 469.199219 522.046875 466.789062 519.070312 466.789062 C 516.097656 466.789062 513.683594 469.199219 513.683594 472.175781 L 513.683594 489.148438 L 513.683594 469.882812 C 513.683594 466.90625 511.269531 464.496094 508.292969 464.496094 C 505.316406 464.496094 502.902344 466.90625 502.902344 469.882812 L 502.902344 489.492188 L 502.902344 451.191406 C 502.902344 448.214844 500.492188 445.804688 497.515625 445.804688 C 494.539062 445.804688 492.125 448.214844 492.125 451.191406 L 492.125 488.574219 L 483.867188 475.0625 C 482.359375 472.597656 479.203125 471.714844 476.640625 473.042969 C 474.367188 474.222656 473.359375 476.933594 474.316406 479.308594 L 485.878906 508.078125 C 487.4375 511.953125 490.40625 515.09375 494.1875 516.859375 L 494.1875 523.054688 Z M 522.972656 523.09375 " fill-opacity="1" fill-rule="nonzero"/><path fill="#f5a93b" d="M 522.972656 524.773438 C 522.042969 524.773438 521.289062 524.019531 521.289062 523.09375 L 521.289062 517.242188 C 521.289062 516.667969 521.582031 516.132812 522.070312 515.824219 C 529.261719 511.25 533.558594 503.433594 533.558594 494.90625 L 533.558594 474.242188 C 533.558594 472.195312 531.894531 470.535156 529.851562 470.535156 C 527.808594 470.535156 526.144531 472.195312 526.144531 474.242188 L 526.144531 489.492188 C 526.144531 490.421875 525.390625 491.175781 524.460938 491.175781 C 523.53125 491.175781 522.78125 490.421875 522.78125 489.492188 L 522.78125 472.175781 C 522.78125 470.132812 521.117188 468.46875 519.074219 468.46875 C 517.039062 468.46875 515.382812 470.117188 515.367188 472.144531 L 515.367188 489.148438 C 515.367188 490.078125 514.613281 490.832031 513.683594 490.832031 C 512.753906 490.832031 512 490.078125 512 489.148438 L 512 472.175781 C 512 472.164062 512 472.148438 512 472.132812 L 512 469.882812 C 512 467.839844 510.339844 466.175781 508.292969 466.175781 C 506.269531 466.175781 504.617188 467.8125 504.585938 469.832031 L 504.585938 489.492188 C 504.585938 490.421875 503.835938 491.175781 502.90625 491.175781 C 501.976562 491.175781 501.222656 490.421875 501.222656 489.492188 L 501.222656 469.882812 C 501.222656 469.859375 501.222656 469.832031 501.222656 469.808594 L 501.222656 451.191406 C 501.222656 449.148438 499.558594 447.484375 497.515625 447.484375 C 495.46875 447.484375 493.808594 449.148438 493.808594 451.191406 L 493.808594 488.574219 C 493.808594 489.328125 493.304688 489.992188 492.582031 490.195312 C 491.855469 490.398438 491.082031 490.09375 490.6875 489.453125 L 482.433594 475.9375 C 481.390625 474.234375 479.1875 473.621094 477.414062 474.539062 C 475.902344 475.320312 475.242188 477.101562 475.875 478.679688 L 487.441406 507.453125 C 488.84375 510.941406 491.492188 513.742188 494.902344 515.335938 C 495.492188 515.613281 495.871094 516.207031 495.871094 516.859375 L 495.871094 523.054688 C 495.871094 523.984375 495.117188 524.738281 494.191406 524.738281 C 493.261719 524.738281 492.507812 523.984375 492.507812 523.054688 L 492.507812 517.894531 C 488.792969 515.882812 485.90625 512.652344 484.320312 508.707031 L 472.753906 479.9375 C 471.46875 476.742188 472.804688 473.136719 475.867188 471.550781 C 479.199219 469.824219 483.34375 470.980469 485.304688 474.183594 L 490.441406 482.59375 L 490.441406 451.191406 C 490.441406 447.292969 493.617188 444.121094 497.515625 444.121094 C 501.414062 444.121094 504.585938 447.292969 504.585938 451.191406 L 504.585938 463.863281 C 505.664062 463.195312 506.9375 462.8125 508.292969 462.8125 C 511.046875 462.8125 513.441406 464.394531 514.605469 466.699219 C 515.824219 465.703125 517.382812 465.105469 519.074219 465.105469 C 521.761719 465.105469 524.105469 466.613281 525.300781 468.832031 C 526.53125 467.792969 528.121094 467.167969 529.851562 467.167969 C 533.75 467.167969 536.925781 470.339844 536.925781 474.242188 L 536.925781 494.90625 C 536.925781 499.632812 535.722656 504.316406 533.445312 508.457031 C 531.324219 512.328125 528.292969 515.660156 524.65625 518.148438 L 524.65625 523.089844 C 524.652344 524.019531 523.902344 524.773438 522.972656 524.773438 Z M 522.972656 524.773438 " fill-opacity="1" fill-rule="nonzero"/><path fill="#ffffff" d="M 487.605469 545.820312 L 487.605469 526.25 C 487.605469 524.507812 489.019531 523.09375 490.765625 523.09375 L 525.824219 523.09375 C 527.566406 523.09375 528.980469 524.507812 528.980469 526.25 L 528.980469 545.820312 Z M 487.605469 545.820312 " fill-opacity="1" fill-rule="nonzero"/><path fill="#f5a93b" d="M 528.980469 547.5 C 528.050781 547.5 527.296875 546.746094 527.296875 545.820312 L 527.296875 526.25 C 527.296875 525.4375 526.636719 524.773438 525.824219 524.773438 L 490.765625 524.773438 C 489.949219 524.773438 489.289062 525.4375 489.289062 526.25 L 489.289062 545.820312 C 489.289062 546.746094 488.535156 547.5 487.605469 547.5 C 486.675781 547.5 485.921875 546.746094 485.921875 545.820312 L 485.921875 526.25 C 485.921875 523.582031 488.09375 521.410156 490.765625 521.410156 L 525.824219 521.410156 C 528.492188 521.410156 530.664062 523.582031 530.664062 526.25 L 530.664062 545.820312 C 530.664062 546.746094 529.910156 547.5 528.980469 547.5 Z M 528.980469 547.5 " fill-opacity="1" fill-rule="nonzero"/><path fill="#ffffff" d="M 247.207031 446.320312 L 247.207031 373.601562 C 247.207031 370.558594 249.675781 368.089844 252.71875 368.089844 L 357.296875 368.089844 C 360.648438 368.089844 363.363281 370.808594 363.363281 374.160156 L 363.363281 494.144531 C 363.363281 497.1875 360.898438 499.65625 357.855469 499.65625 L 255.472656 499.65625 C 250.90625 499.65625 247.207031 495.957031 247.207031 491.390625 L 247.207031 442.773438 Z M 247.207031 446.320312 " fill-opacity="1" fill-rule="nonzero"/><g clip-path="url(#ddf9fd4c2f)"><path fill="#f5a93b" d="M 357.855469 501.339844 L 255.472656 501.339844 C 249.988281 501.339844 245.527344 496.875 245.527344 491.390625 L 245.527344 373.601562 C 245.527344 369.632812 248.75 366.40625 252.71875 366.40625 L 357.296875 366.40625 C 361.570312 366.40625 365.046875 369.882812 365.046875 374.160156 L 365.046875 494.144531 C 365.046875 498.113281 361.820312 501.339844 357.855469 501.339844 Z M 248.890625 446.320312 L 248.890625 491.390625 C 248.890625 495.019531 251.84375 497.972656 255.472656 497.972656 L 357.855469 497.972656 C 359.964844 497.972656 361.683594 496.257812 361.683594 494.144531 L 361.683594 374.160156 C 361.683594 371.738281 359.714844 369.773438 357.296875 369.773438 L 252.71875 369.773438 C 250.605469 369.773438 248.890625 371.488281 248.890625 373.601562 Z M 248.890625 446.320312 " fill-opacity="1" fill-rule="nonzero"/></g><path fill="#ff7428" d="M 342.03125 421.988281 C 342.03125 422.632812 341.96875 423.265625 341.84375 423.894531 C 341.71875 424.527344 341.535156 425.136719 341.289062 425.730469 C 341.042969 426.324219 340.742188 426.886719 340.386719 427.421875 C 340.027344 427.953125 339.625 428.449219 339.167969 428.902344 C 338.714844 429.355469 338.222656 429.761719 337.6875 430.117188 C 337.152344 430.476562 336.589844 430.777344 335.996094 431.023438 C 335.402344 431.265625 334.792969 431.453125 334.164062 431.578125 C 333.535156 431.703125 332.898438 431.765625 332.257812 431.765625 C 331.613281 431.765625 330.976562 431.703125 330.347656 431.578125 C 329.71875 431.453125 329.109375 431.265625 328.515625 431.023438 C 327.921875 430.777344 327.359375 430.476562 326.824219 430.117188 C 326.289062 429.761719 325.796875 429.355469 325.34375 428.902344 C 324.886719 428.449219 324.484375 427.953125 324.125 427.421875 C 323.769531 426.886719 323.46875 426.324219 323.222656 425.730469 C 322.976562 425.136719 322.792969 424.527344 322.667969 423.894531 C 322.542969 423.265625 322.480469 422.632812 322.480469 421.988281 C 322.480469 421.347656 322.542969 420.710938 322.667969 420.082031 C 322.792969 419.453125 322.976562 418.839844 323.222656 418.246094 C 323.46875 417.65625 323.769531 417.089844 324.125 416.558594 C 324.484375 416.023438 324.886719 415.53125 325.34375 415.074219 C 325.796875 414.621094 326.289062 414.214844 326.824219 413.859375 C 327.359375 413.503906 327.921875 413.203125 328.515625 412.957031 C 329.109375 412.710938 329.71875 412.523438 330.347656 412.398438 C 330.976562 412.273438 331.613281 412.210938 332.257812 412.210938 C 332.898438 412.210938 333.535156 412.273438 334.164062 412.398438 C 334.792969 412.523438 335.402344 412.710938 335.996094 412.957031 C 336.589844 413.203125 337.152344 413.503906 337.6875 413.859375 C 338.222656 414.214844 338.714844 414.621094 339.167969 415.074219 C 339.625 415.53125 340.027344 416.023438 340.386719 416.558594 C 340.742188 417.089844 341.042969 417.65625 341.289062 418.246094 C 341.535156 418.839844 341.71875 419.453125 341.84375 420.082031 C 341.96875 420.710938 342.03125 421.347656 342.03125 421.988281 Z M 342.03125 421.988281 " fill-opacity="1" fill-rule="nonzero"/><path fill="#f5a93b" d="M 332.257812 433.449219 C 325.9375 433.449219 320.796875 428.308594 320.796875 421.988281 C 320.796875 415.671875 325.9375 410.53125 332.253906 410.53125 C 338.574219 410.53125 343.714844 415.671875 343.714844 421.988281 C 343.714844 428.308594 338.574219 433.449219 332.257812 433.449219 Z M 332.257812 413.894531 C 327.792969 413.894531 324.160156 417.527344 324.160156 421.988281 C 324.160156 426.453125 327.792969 430.082031 332.257812 430.082031 C 336.71875 430.082031 340.351562 426.453125 340.351562 421.988281 C 340.351562 417.527344 336.71875 413.894531 332.257812 413.894531 Z M 332.257812 413.894531 " fill-opacity="1" fill-rule="nonzero"/><path fill="#ff7428" d="M 342.03125 450.867188 C 342.03125 451.507812 341.96875 452.144531 341.84375 452.773438 C 341.71875 453.402344 341.535156 454.011719 341.289062 454.605469 C 341.042969 455.199219 340.742188 455.761719 340.386719 456.296875 C 340.027344 456.832031 339.621094 457.324219 339.167969 457.777344 C 338.714844 458.230469 338.222656 458.636719 337.6875 458.996094 C 337.152344 459.351562 336.589844 459.652344 335.996094 459.898438 C 335.402344 460.144531 334.792969 460.328125 334.164062 460.453125 C 333.535156 460.578125 332.898438 460.640625 332.253906 460.640625 C 331.613281 460.640625 330.976562 460.578125 330.347656 460.453125 C 329.71875 460.328125 329.109375 460.144531 328.515625 459.898438 C 327.921875 459.652344 327.359375 459.351562 326.824219 458.996094 C 326.289062 458.636719 325.796875 458.230469 325.34375 457.777344 C 324.890625 457.324219 324.484375 456.832031 324.125 456.296875 C 323.769531 455.761719 323.46875 455.199219 323.222656 454.605469 C 322.976562 454.011719 322.792969 453.402344 322.667969 452.773438 C 322.542969 452.144531 322.480469 451.507812 322.480469 450.867188 C 322.480469 450.222656 322.542969 449.585938 322.667969 448.957031 C 322.792969 448.328125 322.976562 447.71875 323.222656 447.125 C 323.46875 446.53125 323.769531 445.96875 324.125 445.433594 C 324.484375 444.898438 324.890625 444.40625 325.34375 443.953125 C 325.796875 443.5 326.289062 443.09375 326.824219 442.734375 C 327.359375 442.378906 327.921875 442.078125 328.515625 441.832031 C 329.109375 441.585938 329.71875 441.402344 330.347656 441.277344 C 330.976562 441.152344 331.613281 441.089844 332.253906 441.089844 C 332.898438 441.089844 333.535156 441.152344 334.164062 441.277344 C 334.792969 441.402344 335.402344 441.585938 335.996094 441.832031 C 336.589844 442.078125 337.152344 442.378906 337.6875 442.734375 C 338.222656 443.09375 338.714844 443.5 339.167969 443.953125 C 339.621094 444.40625 340.027344 444.898438 340.386719 445.433594 C 340.742188 445.96875 341.042969 446.53125 341.289062 447.125 C 341.535156 447.71875 341.71875 448.328125 341.84375 448.957031 C 341.96875 449.585938 342.03125 450.222656 342.03125 450.867188 Z M 342.03125 450.867188 " fill-opacity="1" fill-rule="nonzero"/><path fill="#f5a93b" d="M 332.253906 462.324219 C 325.9375 462.324219 320.796875 457.183594 320.796875 450.867188 C 320.796875 444.546875 325.9375 439.40625 332.253906 439.40625 C 338.574219 439.40625 343.714844 444.546875 343.714844 450.867188 C 343.714844 457.183594 338.574219 462.324219 332.253906 462.324219 Z M 332.253906 442.769531 C 327.792969 442.769531 324.160156 446.402344 324.160156 450.867188 C 324.160156 455.328125 327.792969 458.960938 332.253906 458.960938 C 336.71875 458.960938 340.351562 455.328125 340.351562 450.867188 C 340.351562 446.402344 336.71875 442.769531 332.253906 442.769531 Z M 332.253906 442.769531 " fill-opacity="1" fill-rule="nonzero"/><path fill="#ff7428" d="M 342.03125 479.359375 C 342.03125 480 341.96875 480.636719 341.84375 481.265625 C 341.71875 481.894531 341.535156 482.507812 341.289062 483.097656 C 341.042969 483.691406 340.742188 484.253906 340.386719 484.789062 C 340.027344 485.324219 339.625 485.816406 339.167969 486.269531 C 338.714844 486.726562 338.222656 487.128906 337.6875 487.488281 C 337.152344 487.84375 336.589844 488.144531 335.996094 488.390625 C 335.402344 488.636719 334.792969 488.820312 334.164062 488.945312 C 333.535156 489.070312 332.898438 489.132812 332.257812 489.136719 C 331.613281 489.132812 330.976562 489.070312 330.347656 488.945312 C 329.71875 488.820312 329.109375 488.636719 328.515625 488.390625 C 327.921875 488.144531 327.359375 487.84375 326.824219 487.488281 C 326.289062 487.128906 325.796875 486.726562 325.34375 486.269531 C 324.886719 485.816406 324.484375 485.324219 324.125 484.789062 C 323.769531 484.253906 323.46875 483.691406 323.222656 483.097656 C 322.976562 482.507812 322.792969 481.894531 322.667969 481.265625 C 322.542969 480.636719 322.480469 480 322.480469 479.359375 C 322.480469 478.714844 322.542969 478.082031 322.667969 477.449219 C 322.792969 476.820312 322.976562 476.210938 323.222656 475.617188 C 323.46875 475.023438 323.769531 474.460938 324.125 473.925781 C 324.484375 473.390625 324.886719 472.898438 325.34375 472.445312 C 325.796875 471.992188 326.289062 471.585938 326.824219 471.230469 C 327.359375 470.871094 327.921875 470.570312 328.515625 470.324219 C 329.109375 470.078125 329.71875 469.894531 330.347656 469.769531 C 330.976562 469.644531 331.613281 469.582031 332.257812 469.582031 C 332.898438 469.582031 333.535156 469.644531 334.164062 469.769531 C 334.792969 469.894531 335.402344 470.078125 335.996094 470.324219 C 336.589844 470.570312 337.152344 470.871094 337.6875 471.230469 C 338.222656 471.585938 338.714844 471.992188 339.167969 472.445312 C 339.625 472.898438 340.027344 473.390625 340.386719 473.925781 C 340.742188 474.460938 341.042969 475.023438 341.289062 475.617188 C 341.535156 476.210938 341.71875 476.820312 341.84375 477.449219 C 341.96875 478.082031 342.03125 478.714844 342.03125 479.359375 Z M 342.03125 479.359375 " fill-opacity="1" fill-rule="nonzero"/><path fill="#f5a93b" d="M 332.257812 490.816406 C 325.9375 490.816406 320.796875 485.675781 320.796875 479.359375 C 320.796875 473.039062 325.9375 467.898438 332.253906 467.898438 C 338.574219 467.898438 343.714844 473.039062 343.714844 479.359375 C 343.714844 485.675781 338.574219 490.816406 332.257812 490.816406 Z M 332.257812 471.261719 C 327.792969 471.261719 324.160156 474.894531 324.160156 479.359375 C 324.160156 483.820312 327.792969 487.453125 332.257812 487.453125 C 336.71875 487.453125 340.351562 483.820312 340.351562 479.359375 C 340.351562 474.894531 336.71875 471.261719 332.257812 471.261719 Z M 332.257812 471.261719 " fill-opacity="1" fill-rule="nonzero"/><path fill="#f5a93b" d="M 309.644531 423.671875 L 271.125 423.671875 C 270.199219 423.671875 269.445312 422.917969 269.445312 421.988281 C 269.445312 421.058594 270.199219 420.308594 271.125 420.308594 L 309.644531 420.308594 C 310.574219 420.308594 311.328125 421.058594 311.328125 421.988281 C 311.328125 422.917969 310.574219 423.671875 309.644531 423.671875 Z M 309.644531 423.671875 " fill-opacity="1" fill-rule="nonzero"/><path fill="#f5a93b" d="M 309.644531 452.546875 L 271.019531 452.546875 C 270.089844 452.546875 269.335938 451.792969 269.335938 450.863281 C 269.335938 449.9375 270.089844 449.183594 271.019531 449.183594 L 309.644531 449.183594 C 310.574219 449.183594 311.328125 449.9375 311.328125 450.863281 C 311.328125 451.792969 310.574219 452.546875 309.644531 452.546875 Z M 309.644531 452.546875 " fill-opacity="1" fill-rule="nonzero"/><path fill="#f5a93b" d="M 309.644531 481.039062 L 270.949219 481.039062 C 270.019531 481.039062 269.269531 480.289062 269.269531 479.359375 L 269.269531 412.363281 C 269.269531 411.433594 270.019531 410.683594 270.949219 410.683594 C 271.878906 410.683594 272.632812 411.433594 272.632812 412.363281 L 272.632812 477.675781 L 309.644531 477.675781 C 310.574219 477.675781 311.328125 478.429688 311.328125 479.359375 C 311.328125 480.289062 310.574219 481.039062 309.644531 481.039062 Z M 309.644531 481.039062 " fill-opacity="1" fill-rule="nonzero"/><path fill="#f5a93b" d="M 331.957031 402.929688 C 331.027344 402.929688 330.273438 402.175781 330.273438 401.25 L 330.273438 383.910156 C 330.273438 383.226562 330.550781 382.589844 331.058594 382.117188 C 331.539062 381.675781 332.144531 381.445312 332.804688 381.445312 C 333.550781 381.445312 334.226562 381.742188 334.710938 382.289062 C 334.726562 382.304688 334.738281 382.320312 334.753906 382.339844 L 346.050781 396.132812 L 346.050781 383.058594 C 346.050781 382.132812 346.804688 381.378906 347.734375 381.378906 C 348.664062 381.378906 349.417969 382.132812 349.417969 383.058594 L 349.417969 400.839844 C 349.417969 401.550781 348.96875 402.1875 348.300781 402.425781 C 347.632812 402.664062 346.882812 402.457031 346.433594 401.90625 L 333.636719 386.285156 L 333.636719 401.25 C 333.636719 402.179688 332.882812 402.929688 331.957031 402.929688 Z M 331.957031 402.929688 " fill-opacity="1" fill-rule="nonzero"/><path fill="#f5a93b" d="M 270.808594 402.929688 C 269.882812 402.929688 269.128906 402.175781 269.128906 401.25 L 269.128906 383.828125 C 269.128906 383.148438 269.40625 382.515625 269.90625 382.050781 C 270.378906 381.609375 270.984375 381.378906 271.652344 381.378906 L 276.167969 381.378906 C 278.550781 381.378906 280.605469 382.152344 282.277344 383.683594 C 284.027344 385.234375 284.914062 387.167969 284.914062 389.425781 C 284.914062 391.667969 284.027344 393.605469 282.277344 395.179688 C 280.589844 396.703125 278.53125 397.472656 276.167969 397.472656 L 272.492188 397.472656 L 272.492188 401.25 C 272.492188 402.179688 271.738281 402.929688 270.808594 402.929688 Z M 272.492188 394.109375 L 276.167969 394.109375 C 277.695312 394.109375 278.957031 393.644531 280.023438 392.679688 C 281.066406 391.746094 281.546875 390.710938 281.546875 389.425781 C 281.546875 388.132812 281.066406 387.105469 280.039062 386.195312 C 280.027344 386.1875 280.019531 386.179688 280.011719 386.171875 C 278.964844 385.210938 277.707031 384.742188 276.167969 384.742188 L 272.492188 384.742188 Z M 272.492188 394.109375 " fill-opacity="1" fill-rule="nonzero"/><path fill="#f5a93b" d="M 308.597656 403.128906 C 308.355469 403.128906 308.109375 403.078125 307.875 402.964844 C 307.035156 402.566406 306.679688 401.566406 307.078125 400.726562 L 315.613281 382.738281 C 315.890625 382.15625 316.472656 381.785156 317.117188 381.777344 C 317.121094 381.777344 317.128906 381.777344 317.132812 381.777344 C 317.769531 381.777344 318.351562 382.136719 318.636719 382.707031 L 327.609375 400.695312 C 328.027344 401.527344 327.6875 402.535156 326.855469 402.953125 C 326.027344 403.367188 325.015625 403.027344 324.601562 402.199219 L 322.246094 397.472656 L 312.34375 397.472656 L 310.117188 402.167969 C 309.828125 402.773438 309.226562 403.128906 308.597656 403.128906 Z M 313.941406 394.109375 L 320.566406 394.109375 L 317.171875 387.304688 Z M 313.941406 394.109375 " fill-opacity="1" fill-rule="nonzero"/><path fill="#f5a93b" d="M 302.367188 402.929688 L 290.535156 402.929688 C 289.605469 402.929688 288.851562 402.175781 288.851562 401.25 L 288.851562 383.058594 C 288.851562 382.132812 289.605469 381.378906 290.535156 381.378906 C 291.464844 381.378906 292.214844 382.132812 292.214844 383.058594 L 292.214844 399.566406 L 302.367188 399.566406 C 303.296875 399.566406 304.050781 400.320312 304.050781 401.25 C 304.050781 402.179688 303.296875 402.929688 302.367188 402.929688 Z M 302.367188 402.929688 " fill-opacity="1" fill-rule="nonzero"/><path fill="#ff7428" d="M 342.195312 332.730469 L 342.195312 363.84375 C 342.195312 366.1875 340.292969 368.089844 337.949219 368.089844 L 272.625 368.089844 C 270.277344 368.089844 268.378906 366.1875 268.378906 363.84375 L 268.378906 332.730469 Z M 342.195312 332.730469 " fill-opacity="1" fill-rule="nonzero"/><path fill="#f5a93b" d="M 337.949219 369.773438 L 272.625 369.773438 C 269.355469 369.773438 266.695312 367.113281 266.695312 363.84375 L 266.695312 332.730469 C 266.695312 331.800781 267.449219 331.046875 268.378906 331.046875 C 269.308594 331.046875 270.058594 331.800781 270.058594 332.730469 L 270.058594 363.84375 C 270.058594 365.257812 271.210938 366.40625 272.625 366.40625 L 337.949219 366.40625 C 339.363281 366.40625 340.511719 365.257812 340.511719 363.84375 L 340.511719 332.730469 C 340.511719 331.800781 341.265625 331.046875 342.195312 331.046875 C 343.125 331.046875 343.878906 331.800781 343.878906 332.730469 L 343.878906 363.84375 C 343.878906 367.113281 341.21875 369.773438 337.949219 369.773438 Z M 337.949219 369.773438 " fill-opacity="1" fill-rule="nonzero"/><path fill="#ff7428" d="M 251.550781 331.03125 L 303.238281 315.808594 C 304.574219 315.414062 305.996094 315.414062 307.335938 315.808594 L 359.019531 331.03125 C 360.714844 331.53125 360.714844 333.929688 359.019531 334.429688 L 307.335938 349.652344 C 305.996094 350.046875 304.574219 350.046875 303.238281 349.652344 L 251.550781 334.429688 C 249.859375 333.929688 249.859375 331.53125 251.550781 331.03125 Z M 251.550781 331.03125 " fill-opacity="1" fill-rule="nonzero"/><path fill="#f5a93b" d="M 305.285156 351.628906 C 304.4375 351.628906 303.589844 351.507812 302.761719 351.265625 L 251.078125 336.042969 C 249.59375 335.605469 248.597656 334.277344 248.597656 332.730469 C 248.597656 331.1875 249.59375 329.855469 251.078125 329.417969 L 251.550781 331.03125 L 251.078125 329.417969 L 302.761719 314.195312 C 304.414062 313.710938 306.160156 313.710938 307.808594 314.195312 L 359.496094 329.417969 C 360.976562 329.855469 361.972656 331.1875 361.972656 332.730469 C 361.972656 334.277344 360.976562 335.605469 359.496094 336.042969 L 307.808594 351.265625 C 306.984375 351.507812 306.136719 351.628906 305.285156 351.628906 Z M 252.027344 332.644531 C 251.996094 332.65625 251.980469 332.664062 251.976562 332.667969 C 251.960938 332.691406 251.960938 332.773438 251.980469 332.796875 C 251.980469 332.796875 251.996094 332.808594 252.027344 332.816406 L 303.714844 348.039062 C 304.742188 348.339844 305.832031 348.339844 306.859375 348.039062 L 358.546875 332.816406 C 358.578125 332.808594 358.59375 332.796875 358.59375 332.792969 C 358.613281 332.773438 358.613281 332.691406 358.59375 332.667969 C 358.59375 332.664062 358.578125 332.65625 358.546875 332.644531 L 306.859375 317.421875 C 305.832031 317.121094 304.742188 317.121094 303.714844 317.421875 Z M 252.027344 332.644531 " fill-opacity="1" fill-rule="nonzero"/></svg>