<svg xmlns="http://www.w3.org/2000/svg" xmlns:xlink="http://www.w3.org/1999/xlink" width="1080" zoomAndPan="magnify" viewBox="0 0 810 809.999993" height="1080" preserveAspectRatio="xMidYMid meet" version="1.0"><defs><clipPath id="4520d1260c"><path d="M 181 172.878906 L 611 172.878906 L 611 657.378906 L 181 657.378906 Z M 181 172.878906 " clip-rule="nonzero"/></clipPath></defs><rect x="-81" width="972" fill="#ffffff" y="-80.999999" height="971.999992" fill-opacity="1"/><rect x="-81" width="972" fill="#ffffff" y="-80.999999" height="971.999992" fill-opacity="1"/><g clip-path="url(#4520d1260c)"><path fill="#ff7428" d="M 259.832031 227.070312 C 259.832031 197.136719 284.09375 172.878906 314.027344 172.878906 C 343.957031 172.878906 368.21875 197.136719 368.21875 227.070312 C 368.21875 257.003906 343.957031 281.265625 314.027344 281.265625 C 284.09375 281.265625 259.832031 257.003906 259.832031 227.070312 Z M 608.683594 192.648438 L 506.652344 303.316406 C 506.828125 303.542969 507.019531 303.753906 507.1875 303.992188 C 513.835938 313.144531 511.800781 325.953125 502.644531 332.59375 L 431.042969 385.976562 C 421.886719 392.621094 409.082031 390.589844 402.433594 381.4375 L 367.679688 339.003906 L 367.679688 632.730469 C 367.679688 646.183594 356.675781 657.089844 343.101562 657.089844 C 329.527344 657.089844 318.523438 646.183594 318.523438 632.730469 L 318.523438 490.894531 L 309.53125 490.894531 L 309.53125 632.726562 C 309.53125 646.175781 298.535156 657.085938 284.953125 657.085938 C 271.378906 657.085938 260.378906 646.175781 260.378906 632.726562 L 260.378906 469.097656 C 258.273438 472.984375 254.859375 476.199219 250.453125 477.996094 C 250.414062 478.007812 250.375 478.027344 250.332031 478.039062 C 240.191406 482.097656 228.675781 477.164062 224.621094 467.023438 L 183.035156 386.277344 C 180.609375 380.207031 181.339844 373.332031 184.980469 367.902344 L 226.953125 315.574219 C 242.800781 293.285156 260.558594 289.824219 273.058594 289.824219 L 295.695312 289.824219 L 312.089844 312.722656 L 295.695312 427.34375 L 314.019531 448.6875 L 314.023438 448.679688 L 314.023438 448.691406 L 332.351562 427.34375 L 315.957031 312.722656 L 332.351562 289.824219 L 354.988281 289.824219 C 367.496094 289.824219 385.25 293.285156 401.09375 315.574219 L 421.992188 341.628906 L 478.585938 299.445312 C 483.207031 296.089844 488.757812 294.957031 493.980469 295.824219 L 598.109375 182.890625 C 600.800781 179.96875 605.351562 179.785156 608.277344 182.480469 C 611.191406 185.171875 611.378906 189.722656 608.683594 192.648438 Z M 260.378906 339 L 225.714844 381.292969 L 260.378906 450.390625 Z M 260.378906 339 " fill-opacity="1" fill-rule="nonzero"/></g></svg>