<svg xmlns="http://www.w3.org/2000/svg" xmlns:xlink="http://www.w3.org/1999/xlink" width="1080" zoomAndPan="magnify" viewBox="0 0 810 809.999993" height="1080" preserveAspectRatio="xMidYMid meet" version="1.0"><defs><clipPath id="9f5437b4aa"><path d="M 261 243 L 548.820312 243 L 548.820312 567 L 261 567 Z M 261 243 " clip-rule="nonzero"/></clipPath></defs><rect x="-81" width="972" fill="#ffffff" y="-80.999999" height="971.999992" fill-opacity="1"/><rect x="-81" width="972" fill="#007b7f" y="-80.999999" height="971.999992" fill-opacity="1"/><g clip-path="url(#9f5437b4aa)"><path fill="#ff7428" d="M 313.8125 279.265625 C 313.8125 259.238281 330.046875 243.003906 350.074219 243.003906 C 370.101562 243.003906 386.335938 259.238281 386.335938 279.265625 C 386.335938 299.292969 370.101562 315.527344 350.074219 315.527344 C 330.046875 315.527344 313.8125 299.292969 313.8125 279.265625 Z M 547.234375 256.234375 L 478.960938 330.28125 C 479.082031 330.433594 479.210938 330.574219 479.324219 330.734375 C 483.769531 336.859375 482.410156 345.429688 476.285156 349.871094 L 428.371094 385.59375 C 422.246094 390.039062 413.679688 388.675781 409.230469 382.554688 L 385.972656 354.164062 L 385.972656 550.699219 C 385.972656 559.699219 378.613281 567 369.527344 567 C 360.445312 567 353.082031 559.699219 353.082031 550.699219 L 353.082031 455.796875 L 347.066406 455.796875 L 347.066406 550.695312 C 347.066406 559.695312 339.707031 566.996094 330.621094 566.996094 C 321.539062 566.996094 314.179688 559.695312 314.179688 550.695312 L 314.179688 441.210938 C 312.769531 443.8125 310.484375 445.960938 307.535156 447.164062 C 307.511719 447.171875 307.484375 447.183594 307.457031 447.191406 C 300.671875 449.910156 292.964844 446.605469 290.25 439.824219 L 262.425781 385.792969 C 260.804688 381.730469 261.292969 377.128906 263.730469 373.5 L 291.8125 338.484375 C 302.417969 323.570312 314.296875 321.253906 322.664062 321.253906 L 337.808594 321.253906 L 348.78125 336.578125 L 337.808594 413.273438 L 350.070312 427.554688 L 350.074219 427.546875 L 350.074219 427.554688 L 362.335938 413.273438 L 351.367188 336.578125 L 362.335938 321.253906 L 377.484375 321.253906 C 385.851562 321.253906 397.730469 323.570312 408.332031 338.484375 L 422.316406 355.917969 L 460.183594 327.691406 C 463.273438 325.449219 466.992188 324.6875 470.484375 325.269531 L 540.15625 249.703125 C 541.960938 247.746094 545.003906 247.625 546.960938 249.429688 C 548.914062 251.230469 549.039062 254.277344 547.234375 256.234375 Z M 314.179688 354.160156 L 290.984375 382.457031 L 314.179688 428.695312 Z M 314.179688 354.160156 " fill-opacity="1" fill-rule="nonzero"/></g></svg>