<svg xmlns="http://www.w3.org/2000/svg" xmlns:xlink="http://www.w3.org/1999/xlink" width="1080" zoomAndPan="magnify" viewBox="0 0 810 809.999993" height="1080" preserveAspectRatio="xMidYMid meet" version="1.0"><rect x="-81" width="972" fill="#ffffff" y="-80.999999" height="971.999992" fill-opacity="1"/><rect x="-81" width="972" fill="#007b7f" y="-80.999999" height="971.999992" fill-opacity="1"/><path fill="#ff7428" d="M 429.410156 566.476562 C 428.351562 566.777344 427.273438 566.914062 426.171875 566.878906 C 418.128906 566.558594 412.476562 556.382812 413.582031 544.152344 C 415.03125 530.140625 416.574219 516.105469 418.207031 502.039062 C 418.5 499.351562 419.03125 496.714844 419.804688 494.128906 C 420.574219 491.539062 421.574219 489.042969 422.804688 486.636719 C 424.03125 484.230469 425.46875 481.957031 427.113281 479.8125 C 428.757812 477.667969 430.582031 475.691406 432.589844 473.882812 L 435.164062 471.648438 C 442.160156 465.429688 449.199219 458.839844 456.28125 451.878906 C 464.847656 443.488281 474.011719 435.105469 483.773438 426.742188 C 489.382812 421.933594 497.851562 420.929688 502.515625 424.449219 C 507.082031 427.90625 505.894531 434.664062 500.507812 439.550781 C 490.289062 448.640625 480.734375 457.765625 471.847656 466.925781 C 474.945312 465.132812 478.101562 463.363281 481.300781 461.574219 C 499.824219 451.175781 516.675781 434.019531 523.894531 415.679688 L 530.414062 398.886719 C 533.085938 391.90625 542.699219 386.277344 551.972656 386.296875 C 561.242188 386.316406 566.191406 391.886719 563.054688 398.847656 C 559.03125 407.871094 555.007812 416.898438 550.988281 425.9375 C 540.546875 449.328125 520.597656 472.191406 499.5625 490.09375 C 495.230469 493.753906 491.039062 497.421875 486.992188 501.09375 C 480.988281 506.496094 475.585938 512.445312 470.792969 518.945312 C 465.996094 525.445312 461.902344 532.359375 458.511719 539.6875 C 452.238281 552.863281 442.421875 562.9375 433.011719 565.511719 Z M 380.621094 566.476562 L 377.039062 565.53125 C 367.648438 562.957031 357.8125 552.882812 351.558594 539.707031 C 348.160156 532.378906 344.0625 525.464844 339.261719 518.96875 C 334.464844 512.46875 329.0625 506.519531 323.058594 501.113281 C 319.039062 497.425781 314.847656 493.757812 310.492188 490.113281 C 289.453125 472.273438 269.503906 449.347656 259.066406 426.015625 C 255.042969 416.992188 251.019531 407.964844 246.996094 398.925781 C 243.921875 391.828125 248.828125 386.335938 258.179688 386.316406 C 267.53125 386.296875 277.066406 391.925781 279.738281 398.90625 L 286.253906 415.699219 C 293.476562 434.042969 310.390625 451.195312 328.851562 461.59375 C 332.050781 463.382812 335.207031 465.152344 338.304688 466.945312 C 329.414062 457.800781 319.863281 448.675781 309.644531 439.570312 C 304.15625 434.683594 302.96875 427.925781 307.535156 424.46875 C 312.160156 420.949219 320.667969 421.953125 326.277344 426.761719 C 336.050781 435.128906 345.214844 443.507812 353.769531 451.902344 C 360.835938 458.777344 367.855469 465.363281 374.828125 471.648438 L 377.402344 473.964844 C 379.40625 475.773438 381.234375 477.75 382.878906 479.894531 C 384.519531 482.035156 385.957031 484.308594 387.1875 486.714844 C 388.414062 489.121094 389.414062 491.621094 390.1875 494.207031 C 390.960938 496.796875 391.492188 499.433594 391.78125 502.121094 C 393.417969 516.171875 394.960938 530.207031 396.40625 544.234375 C 397.515625 556.460938 391.824219 566.636719 383.816406 566.960938 C 382.726562 566.964844 381.660156 566.800781 380.621094 566.476562 Z M 375.3125 329.039062 L 432.527344 329.039062 C 446.605469 329.039062 459.074219 335.070312 465.269531 343.878906 L 404.996094 369.703125 L 344.660156 343.800781 C 350.050781 335.03125 361.375 329.039062 375.3125 329.039062 Z M 405.15625 321.675781 C 403.867188 321.671875 402.585938 321.605469 401.304688 321.472656 C 400.023438 321.34375 398.753906 321.152344 397.492188 320.894531 C 396.230469 320.640625 394.980469 320.324219 393.75 319.945312 C 392.519531 319.566406 391.3125 319.128906 390.125 318.632812 C 388.9375 318.136719 387.777344 317.582031 386.640625 316.972656 C 385.507812 316.363281 384.40625 315.699219 383.339844 314.980469 C 382.269531 314.261719 381.242188 313.492188 380.25 312.671875 C 379.253906 311.851562 378.304688 310.984375 377.398438 310.074219 C 376.488281 309.160156 375.628906 308.203125 374.816406 307.207031 C 374 306.207031 373.238281 305.175781 372.527344 304.101562 C 371.8125 303.027344 371.15625 301.925781 370.550781 300.789062 C 369.949219 299.648438 369.402344 298.484375 368.914062 297.296875 C 368.421875 296.105469 367.992188 294.894531 367.621094 293.660156 C 367.253906 292.425781 366.941406 291.179688 366.695312 289.914062 C 366.445312 288.652344 366.261719 287.378906 366.140625 286.097656 C 366.015625 284.816406 365.957031 283.53125 365.957031 282.246094 C 365.960938 280.957031 366.027344 279.671875 366.15625 278.390625 C 366.285156 277.113281 366.476562 275.839844 366.730469 274.578125 C 366.984375 273.316406 367.300781 272.070312 367.675781 270.839844 C 368.054688 269.605469 368.488281 268.398438 368.984375 267.207031 C 369.480469 266.019531 370.03125 264.859375 370.640625 263.726562 C 371.25 262.589844 371.914062 261.488281 372.628906 260.421875 C 373.347656 259.351562 374.117188 258.320312 374.933594 257.324219 C 375.753906 256.332031 376.617188 255.382812 377.53125 254.472656 C 378.441406 253.5625 379.398438 252.703125 380.394531 251.886719 C 381.390625 251.070312 382.421875 250.308594 383.496094 249.59375 C 384.566406 248.878906 385.671875 248.222656 386.808594 247.617188 C 387.945312 247.011719 389.105469 246.464844 390.296875 245.972656 C 391.488281 245.480469 392.699219 245.050781 393.929688 244.679688 C 395.164062 244.304688 396.410156 243.996094 397.675781 243.746094 C 398.9375 243.496094 400.210938 243.308594 401.492188 243.183594 C 402.773438 243.058594 404.054688 243 405.34375 243 C 406.632812 243 407.914062 243.066406 409.195312 243.195312 C 410.476562 243.320312 411.75 243.511719 413.011719 243.765625 C 414.273438 244.015625 415.519531 244.332031 416.753906 244.707031 C 417.984375 245.082031 419.195312 245.515625 420.382812 246.007812 C 421.574219 246.5 422.734375 247.050781 423.871094 247.660156 C 425.003906 248.269531 426.105469 248.929688 427.175781 249.644531 C 428.246094 250.363281 429.277344 251.128906 430.273438 251.945312 C 431.269531 252.765625 432.21875 253.628906 433.128906 254.539062 C 434.039062 255.449219 434.902344 256.402344 435.71875 257.398438 C 436.535156 258.394531 437.300781 259.425781 438.015625 260.496094 C 438.730469 261.570312 439.390625 262.671875 439.996094 263.808594 C 440.605469 264.941406 441.152344 266.105469 441.644531 267.296875 C 442.136719 268.484375 442.570312 269.695312 442.945312 270.925781 C 443.316406 272.160156 443.628906 273.40625 443.882812 274.667969 C 444.132812 275.933594 444.320312 277.203125 444.445312 278.484375 C 444.574219 279.765625 444.636719 281.050781 444.636719 282.339844 C 444.632812 283.628906 444.566406 284.917969 444.4375 286.199219 C 444.308594 287.484375 444.117188 288.757812 443.863281 290.023438 C 443.609375 291.289062 443.292969 292.539062 442.917969 293.773438 C 442.539062 295.007812 442.101562 296.222656 441.605469 297.414062 C 441.109375 298.605469 440.558594 299.769531 439.945312 300.90625 C 439.335938 302.042969 438.671875 303.148438 437.953125 304.21875 C 437.234375 305.289062 436.464844 306.324219 435.644531 307.320312 C 434.820312 308.316406 433.953125 309.269531 433.039062 310.179688 C 432.125 311.09375 431.167969 311.957031 430.171875 312.773438 C 429.171875 313.589844 428.132812 314.355469 427.058594 315.070312 C 425.984375 315.785156 424.878906 316.449219 423.738281 317.054688 C 422.601562 317.660156 421.433594 318.210938 420.242188 318.703125 C 419.046875 319.195312 417.832031 319.625 416.597656 320 C 415.363281 320.371094 414.113281 320.683594 412.84375 320.933594 C 411.578125 321.183594 410.304688 321.367188 409.019531 321.492188 C 407.734375 321.617188 406.445312 321.679688 405.15625 321.675781 Z M 404.996094 449.066406 L 337.582031 414.492188 C 337.058594 414.203125 336.730469 413.765625 336.59375 413.183594 L 324.144531 346.996094 C 324.0625 346.570312 324.105469 346.15625 324.265625 345.75 C 324.371094 345.503906 324.519531 345.285156 324.710938 345.097656 C 324.902344 344.90625 325.121094 344.761719 325.371094 344.664062 C 325.621094 344.5625 325.878906 344.515625 326.148438 344.519531 C 326.417969 344.523438 326.675781 344.578125 326.921875 344.683594 L 404.996094 378.152344 L 483.089844 344.683594 C 483.335938 344.578125 483.59375 344.523438 483.863281 344.519531 C 484.132812 344.515625 484.390625 344.5625 484.640625 344.664062 C 484.886719 344.761719 485.109375 344.90625 485.300781 345.097656 C 485.492188 345.285156 485.640625 345.503906 485.742188 345.75 C 485.921875 346.152344 485.960938 346.570312 485.863281 346.996094 L 473.375 413.183594 C 473.242188 413.769531 472.914062 414.203125 472.390625 414.492188 Z M 404.996094 449.066406 " fill-opacity="1" fill-rule="nonzero"/></svg>