<svg xmlns="http://www.w3.org/2000/svg" xmlns:xlink="http://www.w3.org/1999/xlink" width="1080" zoomAndPan="magnify" viewBox="0 0 810 809.999993" height="1080" preserveAspectRatio="xMidYMid meet" version="1.0"><defs><clipPath id="366947dfaf"><path d="M 161 155.742188 L 650 155.742188 L 650 653.742188 L 161 653.742188 Z M 161 155.742188 " clip-rule="nonzero"/></clipPath></defs><rect x="-81" width="972" fill="#ffffff" y="-80.999999" height="971.999992" fill-opacity="1"/><rect x="-81" width="972" fill="#ffffff" y="-80.999999" height="971.999992" fill-opacity="1"/><g clip-path="url(#366947dfaf)"><path fill="#ff7428" d="M 442.894531 652.667969 C 441.265625 653.132812 439.609375 653.339844 437.917969 653.285156 C 425.5625 652.792969 416.878906 637.160156 418.578125 618.375 C 420.804688 596.851562 423.171875 575.285156 425.683594 553.679688 C 426.128906 549.554688 426.945312 545.5 428.132812 541.523438 C 429.320312 537.546875 430.855469 533.710938 432.746094 530.015625 C 434.632812 526.320312 436.839844 522.828125 439.363281 519.535156 C 441.890625 516.242188 444.695312 513.207031 447.773438 510.425781 L 451.730469 506.996094 C 462.480469 497.4375 473.296875 487.316406 484.171875 476.625 C 497.332031 463.730469 511.410156 450.859375 526.40625 438.003906 C 535.023438 430.621094 548.03125 429.078125 555.199219 434.484375 C 562.210938 439.796875 560.390625 450.179688 552.109375 457.6875 C 536.414062 471.652344 521.738281 485.667969 508.082031 499.734375 C 512.839844 496.984375 517.691406 494.265625 522.605469 491.515625 C 551.058594 475.542969 576.949219 449.191406 588.042969 421.011719 L 598.050781 395.214844 C 602.160156 384.492188 616.929688 375.84375 631.171875 375.875 C 645.414062 375.90625 653.015625 384.464844 648.195312 395.152344 C 642.015625 409.015625 635.835938 422.886719 629.660156 436.769531 C 613.625 472.703125 582.976562 507.828125 550.65625 535.328125 C 544.003906 540.949219 537.566406 546.582031 531.347656 552.226562 C 522.125 560.527344 513.832031 569.667969 506.464844 579.648438 C 499.097656 589.632812 492.808594 600.253906 487.601562 611.515625 C 477.960938 631.753906 462.882812 647.230469 448.425781 651.1875 Z M 367.941406 652.667969 L 362.441406 651.21875 C 348.011719 647.261719 332.90625 631.785156 323.296875 611.546875 C 318.074219 600.289062 311.78125 589.667969 304.40625 579.6875 C 297.035156 569.703125 288.738281 560.558594 279.515625 552.257812 C 273.335938 546.59375 266.902344 540.960938 260.207031 535.359375 C 227.890625 507.953125 197.242188 472.730469 181.207031 436.894531 C 175.027344 423.03125 168.847656 409.160156 162.667969 395.277344 C 157.941406 384.371094 165.480469 375.9375 179.847656 375.90625 C 194.214844 375.875 208.859375 384.523438 212.96875 395.246094 L 222.976562 421.042969 C 234.070312 449.21875 260.050781 475.574219 288.414062 491.546875 C 293.328125 494.296875 298.179688 497.015625 302.9375 499.765625 C 289.28125 485.71875 274.605469 471.703125 258.910156 457.71875 C 250.476562 450.210938 248.652344 439.828125 255.664062 434.515625 C 262.769531 429.109375 275.839844 430.652344 284.460938 438.035156 C 299.476562 450.890625 313.554688 463.761719 326.695312 476.65625 C 337.550781 487.222656 348.332031 497.335938 359.042969 506.996094 L 362.996094 510.546875 C 366.078125 513.328125 368.882812 516.363281 371.40625 519.65625 C 373.933594 522.949219 376.140625 526.445312 378.027344 530.140625 C 379.914062 533.835938 381.453125 537.671875 382.640625 541.648438 C 383.824219 545.625 384.640625 549.675781 385.085938 553.800781 C 387.601562 575.386719 389.96875 596.953125 392.195312 618.5 C 393.894531 637.28125 385.148438 652.917969 372.851562 653.410156 C 371.175781 653.417969 369.539062 653.167969 367.941406 652.667969 Z M 359.785156 287.914062 L 447.683594 287.914062 C 469.308594 287.914062 488.464844 297.183594 497.980469 310.714844 L 405.386719 350.386719 L 312.699219 310.589844 C 320.980469 297.121094 338.375 287.914062 359.785156 287.914062 Z M 405.632812 276.605469 C 403.65625 276.597656 401.683594 276.496094 399.714844 276.292969 C 397.746094 276.09375 395.796875 275.796875 393.855469 275.40625 C 391.917969 275.011719 390.003906 274.527344 388.113281 273.945312 C 386.222656 273.363281 384.363281 272.691406 382.539062 271.929688 C 380.714844 271.167969 378.933594 270.316406 377.191406 269.378906 C 375.449219 268.441406 373.757812 267.421875 372.117188 266.316406 C 370.476562 265.210938 368.894531 264.03125 367.371094 262.773438 C 365.84375 261.511719 364.382812 260.179688 362.992188 258.777344 C 361.597656 257.375 360.273438 255.910156 359.023438 254.375 C 357.773438 252.84375 356.601562 251.253906 355.507812 249.605469 C 354.414062 247.957031 353.402344 246.261719 352.476562 244.515625 C 351.546875 242.769531 350.707031 240.980469 349.957031 239.152344 C 349.203125 237.320312 348.542969 235.460938 347.972656 233.566406 C 347.40625 231.671875 346.929688 229.753906 346.550781 227.8125 C 346.167969 225.875 345.882812 223.917969 345.695312 221.949219 C 345.503906 219.980469 345.414062 218.007812 345.417969 216.03125 C 345.421875 214.050781 345.523438 212.078125 345.722656 210.113281 C 345.921875 208.144531 346.214844 206.191406 346.605469 204.253906 C 346.996094 202.3125 347.480469 200.398438 348.058594 198.507812 C 348.636719 196.617188 349.304688 194.757812 350.066406 192.933594 C 350.828125 191.105469 351.675781 189.320312 352.609375 187.578125 C 353.546875 185.835938 354.566406 184.144531 355.667969 182.503906 C 356.769531 180.859375 357.949219 179.277344 359.207031 177.75 C 360.464844 176.222656 361.792969 174.761719 363.195312 173.367188 C 364.59375 171.96875 366.0625 170.644531 367.589844 169.394531 C 369.121094 168.140625 370.710938 166.96875 372.359375 165.871094 C 374.003906 164.777344 375.699219 163.761719 377.445312 162.832031 C 379.191406 161.902344 380.976562 161.0625 382.804688 160.308594 C 384.632812 159.554688 386.496094 158.890625 388.390625 158.320312 C 390.28125 157.75 392.199219 157.269531 394.140625 156.886719 C 396.078125 156.503906 398.035156 156.21875 400.003906 156.027344 C 401.96875 155.835938 403.945312 155.738281 405.921875 155.742188 C 407.898438 155.746094 409.871094 155.84375 411.839844 156.039062 C 413.808594 156.234375 415.761719 156.527344 417.699219 156.914062 C 419.640625 157.304688 421.554688 157.785156 423.449219 158.363281 C 425.339844 158.9375 427.199219 159.605469 429.027344 160.363281 C 430.851562 161.121094 432.636719 161.96875 434.378906 162.902344 C 436.125 163.835938 437.816406 164.851562 439.460938 165.953125 C 441.105469 167.050781 442.691406 168.230469 444.21875 169.484375 C 445.746094 170.742188 447.210938 172.070312 448.605469 173.46875 C 450.003906 174.867188 451.332031 176.332031 452.585938 177.859375 C 453.835938 179.390625 455.015625 180.976562 456.113281 182.621094 C 457.210938 184.265625 458.226562 185.960938 459.15625 187.707031 C 460.089844 189.449219 460.933594 191.238281 461.6875 193.066406 C 462.445312 194.890625 463.109375 196.75 463.683594 198.644531 C 464.257812 200.539062 464.738281 202.453125 465.121094 204.394531 C 465.507812 206.332031 465.796875 208.285156 465.992188 210.253906 C 466.183594 212.222656 466.28125 214.195312 466.28125 216.175781 C 466.277344 218.15625 466.175781 220.132812 465.976562 222.105469 C 465.78125 224.078125 465.484375 226.039062 465.09375 227.980469 C 464.703125 229.925781 464.21875 231.84375 463.640625 233.742188 C 463.0625 235.636719 462.390625 237.5 461.628906 239.332031 C 460.867188 241.160156 460.015625 242.949219 459.078125 244.695312 C 458.140625 246.445312 457.117188 248.140625 456.015625 249.785156 C 454.910156 251.433594 453.726562 253.019531 452.464844 254.550781 C 451.207031 256.082031 449.875 257.546875 448.46875 258.945312 C 447.0625 260.34375 445.59375 261.671875 444.058594 262.929688 C 442.523438 264.183594 440.933594 265.359375 439.28125 266.457031 C 437.632812 267.558594 435.929688 268.574219 434.179688 269.503906 C 432.429688 270.4375 430.640625 271.28125 428.808594 272.035156 C 426.972656 272.789062 425.109375 273.453125 423.210938 274.027344 C 421.3125 274.597656 419.390625 275.078125 417.445312 275.460938 C 415.5 275.84375 413.539062 276.132812 411.566406 276.324219 C 409.59375 276.515625 407.617188 276.609375 405.632812 276.605469 Z M 405.386719 472.300781 L 301.824219 419.191406 C 301.019531 418.746094 300.515625 418.074219 300.308594 417.183594 L 281.183594 315.503906 C 281.058594 314.847656 281.121094 314.207031 281.371094 313.589844 C 281.53125 313.207031 281.757812 312.871094 282.050781 312.582031 C 282.347656 312.292969 282.683594 312.070312 283.066406 311.917969 C 283.449219 311.765625 283.847656 311.691406 284.261719 311.695312 C 284.675781 311.703125 285.070312 311.785156 285.449219 311.949219 L 405.386719 363.359375 L 525.355469 311.949219 C 525.734375 311.785156 526.128906 311.703125 526.542969 311.695312 C 526.953125 311.691406 527.351562 311.765625 527.734375 311.917969 C 528.117188 312.070312 528.457031 312.292969 528.75 312.582031 C 529.046875 312.871094 529.273438 313.207031 529.433594 313.589844 C 529.703125 314.207031 529.765625 314.84375 529.617188 315.503906 L 510.429688 417.183594 C 510.226562 418.074219 509.71875 418.746094 508.917969 419.191406 Z M 405.386719 472.300781 " fill-opacity="1" fill-rule="nonzero"/></g></svg>