<svg xmlns="http://www.w3.org/2000/svg" xmlns:xlink="http://www.w3.org/1999/xlink" width="1080" zoomAndPan="magnify" viewBox="0 0 810 809.999993" height="1080" preserveAspectRatio="xMidYMid meet" version="1.0"><defs><clipPath id="3bf4b840b6"><path d="M 473 369 L 549.613281 369 L 549.613281 478 L 473 478 Z M 473 369 " clip-rule="nonzero"/></clipPath></defs><rect x="-81" width="972" fill="#ffffff" y="-80.999999" height="971.999992" fill-opacity="1"/><rect x="-81" width="972" fill="#007b7f" y="-80.999999" height="971.999992" fill-opacity="1"/><path fill="#ff7428" d="M 445.789062 510.011719 C 434.566406 509.109375 426.949219 507.304688 423.792969 505.953125 C 421.539062 514.046875 420.660156 526.199219 428.277344 536.066406 C 434.113281 544.160156 444.011719 548.644531 457.941406 549.546875 C 452.980469 541.453125 450.75 532.910156 449.398438 524.84375 C 443.558594 522.136719 444.011719 516.300781 445.789062 510.011719 " fill-opacity="1" fill-rule="nonzero"/><path fill="#ff7428" d="M 491.160156 523.941406 C 487.578125 524.84375 484.421875 525.269531 481.742188 525.746094 C 483.519531 531.558594 486.226562 536.96875 490.710938 538.773438 C 493.867188 540.101562 496.121094 542.355469 497.898438 545.0625 C 502.859375 543.257812 505.542969 537.871094 504.640625 532.484375 C 503.3125 526.621094 497.476562 522.589844 491.160156 523.941406 " fill-opacity="1" fill-rule="nonzero"/><path fill="#ff7428" d="M 488.929688 543.257812 C 478.132812 538.296875 475 520.785156 474.550781 508.660156 C 462.425781 510.464844 455.6875 510.464844 452.078125 510.464844 C 452.980469 532.007812 459.71875 554.933594 479.484375 563.902344 C 485.324219 566.605469 492.0625 563.902344 494.316406 558.089844 C 497.476562 551.800781 494.316406 545.511719 488.929688 543.257812 " fill-opacity="1" fill-rule="nonzero"/><path fill="#ff7428" d="M 291.261719 358.640625 L 294.417969 417.917969 C 294.867188 422.425781 298.449219 425.558594 302.960938 425.558594 L 306.09375 425.558594 C 305.191406 423.78125 304.316406 421.976562 304.316406 419.71875 C 304.316406 419.269531 301.15625 349.648438 301.15625 350.097656 L 298.902344 350.097656 C 294.417969 350.550781 291.261719 354.132812 291.261719 358.613281 L 291.261719 358.640625 " fill-opacity="1" fill-rule="nonzero"/><path fill="#ff7428" d="M 369.425781 374.347656 C 351.011719 372.09375 345.625 349.648438 348.785156 332.585938 L 348.785156 332.136719 C 340.242188 330.332031 331.695312 330.332031 323.605469 332.585938 L 323.605469 333.039062 C 323.605469 351 319.121094 378.832031 307.445312 391.4375 L 306.996094 391.886719 L 308.347656 419.269531 C 308.347656 421.523438 309.25 423.328125 311.027344 424.230469 L 311.027344 429.167969 C 310.578125 442.167969 306.09375 470.054688 271.945312 478.570312 C 264.753906 480.375 260.269531 487.539062 262.074219 494.730469 C 263.878906 502.398438 271.945312 506.429688 278.234375 504.625 C 319.570312 494.277344 333.953125 462.863281 337.082031 438.585938 C 338.4375 461.058594 336.632812 495.179688 317.316406 517.203125 C 312.378906 523.039062 312.832031 531.582031 318.667969 536.066406 C 324.507812 541.03125 332.597656 540.550781 337.535156 534.742188 C 365.394531 502.820312 365.84375 455.671875 363.136719 429.167969 C 363.136719 428.714844 362.6875 425.558594 362.6875 424.65625 C 370.78125 423.78125 366.746094 415.238281 369.425781 374.347656 C 369.878906 374.347656 369.878906 374.347656 369.425781 374.347656 " fill-opacity="1" fill-rule="nonzero"/><path fill="#ff7428" d="M 447.59375 505.953125 C 462.425781 506.882812 480.386719 503.273438 480.839844 503.273438 C 476.328125 417.015625 477.679688 446.679688 477.679688 440.390625 C 477.679688 439.9375 479.484375 428.238281 479.484375 429.167969 C 479.484375 429.167969 479.035156 429.167969 479.035156 428.714844 C 467.8125 416.589844 467.8125 395.46875 470.941406 378.832031 C 466.007812 377.507812 460.621094 376.605469 455.234375 377.054688 C 453.882812 385.121094 452.980469 412.078125 434.566406 416.136719 L 434.113281 416.136719 L 433.210938 435.429688 L 421.988281 500.140625 C 429.628906 503.273438 434.566406 505.078125 447.59375 505.953125 " fill-opacity="1" fill-rule="nonzero"/><path fill="#ff7428" d="M 364.492188 292.148438 C 364.492188 306.53125 352.816406 318.207031 338.4375 318.207031 C 324.054688 318.207031 312.378906 306.53125 312.378906 292.148438 C 312.378906 277.769531 324.054688 266.09375 338.4375 266.09375 C 352.816406 266.09375 364.492188 277.769531 364.492188 292.148438 " fill-opacity="1" fill-rule="nonzero"/><path fill="#ff7428" d="M 500.15625 345.613281 C 500.15625 360.738281 487.871094 372.996094 472.746094 372.996094 C 457.621094 372.996094 445.335938 360.738281 445.335938 345.613281 C 445.335938 330.464844 457.621094 318.207031 472.746094 318.207031 C 487.871094 318.207031 500.15625 330.464844 500.15625 345.613281 " fill-opacity="1" fill-rule="nonzero"/><path fill="#ff7428" d="M 301.15625 349.648438 L 301.15625 350.097656 L 301.609375 350.097656 C 302.058594 350.550781 306.542969 358.640625 306.09375 357.738281 C 306.542969 367.160156 307.445312 386.023438 307.445312 385.148438 L 307.898438 384.695312 C 317.792969 369.414062 318.21875 351 320.023438 334.363281 C 318.21875 334.816406 316.441406 335.71875 314.636719 336.617188 C 260.269531 243.195312 285.875 288.117188 278.710938 275.539062 C 276.457031 271.03125 270.617188 269.703125 266.558594 271.929688 C 262.074219 274.636719 260.722656 280.023438 262.976562 284.507812 L 301.15625 349.648438 " fill-opacity="1" fill-rule="nonzero"/><path fill="#ff7428" d="M 410.765625 271.929688 C 406.707031 269.703125 400.867188 271.03125 398.640625 275.089844 C 391.449219 287.664062 417.503906 242.746094 362.6875 336.617188 C 359.554688 335.265625 356.398438 333.914062 353.269531 333.039062 L 353.269531 333.488281 C 352.367188 344.710938 351.914062 358.191406 360.910156 365.382812 C 364.039062 368.0625 368.976562 369.414062 369.878906 369.414062 L 370.328125 359.09375 C 370.78125 358.640625 375.265625 350.097656 375.265625 350.550781 L 413.894531 283.632812 C 416.601562 280.023438 415.25 274.636719 410.765625 271.929688 " fill-opacity="1" fill-rule="nonzero"/><g clip-path="url(#3bf4b840b6)"><path fill="#ff7428" d="M 548.207031 374.347656 C 545.527344 370.316406 540.140625 368.511719 535.65625 371.21875 C 521.699219 379.734375 499.253906 389.179688 483.96875 384.246094 C 481.742188 382.441406 477.679688 380.636719 475 379.734375 C 474.550781 382.894531 470.492188 399.953125 475.902344 414.785156 C 476.355469 416.5625 477.679688 419.269531 479.0625 421.523438 C 479.0625 421.523438 479.0625 421.976562 479.484375 421.976562 L 482.191406 402.207031 C 482.644531 402.207031 483.96875 402.660156 486.675781 403.109375 C 486.675781 403.535156 483.519531 427.8125 483.09375 428.265625 L 482.191406 440.390625 L 484.421875 477.667969 C 488.929688 477.667969 492.511719 474.511719 492.964844 470.027344 C 494.769531 411.175781 498.800781 408.496094 492.964844 403.535156 C 508.671875 405.339844 532.5 395.019531 545.976562 386.476562 C 549.558594 384.246094 550.914062 378.832031 548.207031 374.347656 " fill-opacity="1" fill-rule="nonzero"/></g><path fill="#ff7428" d="M 435.015625 395.46875 L 434.113281 411.175781 L 434.566406 411.175781 C 447.140625 406.242188 448.945312 389.179688 450.300781 377.507812 C 447.59375 377.957031 445.335938 378.382812 443.109375 379.285156 C 442.207031 378.832031 418.40625 372.542969 413.445312 341.554688 C 412.570312 336.617188 408.058594 333.460938 403.125 333.914062 C 398.1875 334.816406 395.03125 339.324219 395.480469 344.261719 C 399.542969 369.414062 414.796875 387.375 435.015625 395.46875 " fill-opacity="1" fill-rule="nonzero"/></svg>