<svg xmlns="http://www.w3.org/2000/svg" xmlns:xlink="http://www.w3.org/1999/xlink" width="1080" zoomAndPan="magnify" viewBox="0 0 810 809.999993" height="1080" preserveAspectRatio="xMidYMid meet" version="1.0"><defs><clipPath id="3a94904606"><path d="M 495 363 L 608.5625 363 L 608.5625 523 L 495 523 Z M 495 363 " clip-rule="nonzero"/></clipPath></defs><rect x="-81" width="972" fill="#ffffff" y="-80.999999" height="971.999992" fill-opacity="1"/><rect x="-81" width="972" fill="#ffffff" y="-80.999999" height="971.999992" fill-opacity="1"/><path fill="#ff7428" d="M 455.605469 570.296875 C 439.070312 568.96875 427.847656 566.3125 423.199219 564.316406 C 419.875 576.238281 418.585938 594.144531 429.804688 608.683594 C 438.402344 620.605469 452.984375 627.214844 473.507812 628.542969 C 466.195312 616.621094 462.914062 604.03125 460.917969 592.148438 C 452.320312 588.164062 452.984375 579.5625 455.605469 570.296875 " fill-opacity="1" fill-rule="nonzero"/><path fill="#ff7428" d="M 522.449219 590.820312 C 517.171875 592.148438 512.519531 592.773438 508.570312 593.480469 C 511.191406 602.039062 515.175781 610.015625 521.785156 612.671875 C 526.433594 614.625 529.757812 617.949219 532.378906 621.9375 C 539.6875 619.277344 543.636719 611.34375 542.304688 603.40625 C 540.351562 594.769531 531.75 588.828125 522.449219 590.820312 " fill-opacity="1" fill-rule="nonzero"/><path fill="#ff7428" d="M 519.164062 619.277344 C 503.253906 611.96875 498.640625 586.167969 497.976562 568.304688 C 480.113281 570.960938 470.183594 570.960938 464.867188 570.960938 C 466.195312 602.703125 476.125 636.476562 505.25 649.691406 C 513.847656 653.679688 523.777344 649.691406 527.101562 641.128906 C 531.75 631.867188 527.101562 622.601562 519.164062 619.277344 " fill-opacity="1" fill-rule="nonzero"/><path fill="#ff7428" d="M 227.941406 347.289062 L 232.59375 434.617188 C 233.257812 441.261719 238.535156 445.875 245.179688 445.875 L 249.792969 445.875 C 248.464844 443.253906 247.175781 440.597656 247.175781 437.273438 C 247.175781 436.609375 242.523438 334.035156 242.523438 334.699219 L 239.199219 334.699219 C 232.59375 335.367188 227.941406 340.640625 227.941406 347.25 L 227.941406 347.289062 " fill-opacity="1" fill-rule="nonzero"/><path fill="#ff7428" d="M 343.101562 370.429688 C 315.972656 367.105469 308.039062 334.035156 312.6875 308.902344 L 312.6875 308.238281 C 300.101562 305.578125 287.515625 305.578125 275.59375 308.902344 L 275.59375 309.566406 C 275.59375 336.03125 268.988281 377.035156 251.785156 395.601562 L 251.121094 396.269531 L 253.117188 436.609375 C 253.117188 439.933594 254.445312 442.589844 257.0625 443.917969 L 257.0625 451.191406 C 256.398438 470.34375 249.792969 511.429688 199.484375 523.976562 C 188.890625 526.632812 182.285156 537.1875 184.941406 547.78125 C 187.601562 559.078125 199.484375 565.019531 208.75 562.363281 C 269.652344 547.117188 290.839844 500.835938 295.449219 465.066406 C 297.445312 498.175781 294.785156 548.445312 266.328125 580.890625 C 259.058594 589.492188 259.722656 602.078125 268.320312 608.683594 C 276.921875 615.996094 288.84375 615.292969 296.113281 606.730469 C 337.160156 559.703125 337.824219 490.242188 333.835938 451.191406 C 333.835938 450.527344 333.171875 445.875 333.171875 444.542969 C 345.09375 443.253906 339.152344 430.667969 343.101562 370.429688 C 343.765625 370.429688 343.765625 370.429688 343.101562 370.429688 " fill-opacity="1" fill-rule="nonzero"/><path fill="#ff7428" d="M 458.261719 564.316406 C 480.113281 565.683594 506.578125 560.371094 507.242188 560.371094 C 500.597656 433.285156 502.589844 476.988281 502.589844 467.726562 C 502.589844 467.0625 505.25 449.820312 505.25 451.191406 C 505.25 451.191406 504.582031 451.191406 504.582031 450.527344 C 488.046875 432.660156 488.046875 401.546875 492.660156 377.035156 C 485.390625 375.082031 477.457031 373.753906 469.519531 374.417969 C 467.527344 386.300781 466.195312 426.015625 439.070312 431.996094 L 438.402344 431.996094 L 437.074219 460.414062 L 420.539062 555.757812 C 431.796875 560.371094 439.070312 563.027344 458.261719 564.316406 " fill-opacity="1" fill-rule="nonzero"/><path fill="#ff7428" d="M 335.832031 249.328125 C 335.832031 270.515625 318.632812 287.714844 297.445312 287.714844 C 276.257812 287.714844 259.058594 270.515625 259.058594 249.328125 C 259.058594 228.140625 276.257812 210.941406 297.445312 210.941406 C 318.632812 210.941406 335.832031 228.140625 335.832031 249.328125 " fill-opacity="1" fill-rule="nonzero"/><path fill="#ff7428" d="M 535.699219 328.09375 C 535.699219 350.375 517.601562 368.4375 495.320312 368.4375 C 473.039062 368.4375 454.9375 350.375 454.9375 328.09375 C 454.9375 305.773438 473.039062 287.714844 495.320312 287.714844 C 517.601562 287.714844 535.699219 305.773438 535.699219 328.09375 " fill-opacity="1" fill-rule="nonzero"/><path fill="#ff7428" d="M 242.523438 334.035156 L 242.523438 334.699219 L 243.1875 334.699219 C 243.851562 335.367188 250.457031 347.289062 249.792969 345.957031 C 250.457031 359.835938 251.785156 387.628906 251.785156 386.339844 L 252.453125 385.675781 C 267.03125 363.160156 267.65625 336.03125 270.316406 311.519531 C 267.65625 312.183594 265.039062 313.515625 262.378906 314.84375 C 182.285156 177.207031 220.007812 243.386719 209.453125 224.855469 C 206.128906 218.210938 197.527344 216.257812 191.546875 219.539062 C 184.941406 223.527344 182.949219 231.464844 186.269531 238.070312 L 242.523438 334.035156 " fill-opacity="1" fill-rule="nonzero"/><path fill="#ff7428" d="M 404.003906 219.539062 C 398.023438 216.257812 389.421875 218.210938 386.140625 224.191406 C 375.546875 242.722656 413.933594 176.542969 333.171875 314.84375 C 328.558594 312.847656 323.910156 310.855469 319.296875 309.566406 L 319.296875 310.230469 C 317.964844 326.765625 317.300781 346.625 330.554688 357.21875 C 335.167969 361.164062 342.4375 363.160156 343.765625 363.160156 L 344.429688 347.953125 C 345.09375 347.289062 351.703125 334.699219 351.703125 335.367188 L 408.617188 236.78125 C 412.605469 231.464844 410.609375 223.527344 404.003906 219.539062 " fill-opacity="1" fill-rule="nonzero"/><g clip-path="url(#3a94904606)"><path fill="#ff7428" d="M 606.492188 370.429688 C 602.542969 364.488281 594.609375 361.828125 588.003906 365.816406 C 567.441406 378.363281 534.371094 392.28125 511.855469 385.011719 C 508.570312 382.351562 502.589844 379.695312 498.640625 378.363281 C 497.976562 383.015625 491.996094 408.152344 499.972656 430.003906 C 500.636719 432.621094 502.589844 436.609375 504.621094 439.933594 C 504.621094 439.933594 504.621094 440.597656 505.25 440.597656 L 509.234375 411.472656 C 509.898438 411.472656 511.855469 412.140625 515.84375 412.804688 C 515.84375 413.429688 511.191406 449.195312 510.566406 449.859375 L 509.234375 467.726562 L 512.519531 522.648438 C 519.164062 522.648438 524.441406 517.996094 525.105469 511.390625 C 527.765625 424.6875 533.707031 420.738281 525.105469 413.429688 C 548.246094 416.085938 583.351562 400.878906 603.207031 388.292969 C 608.484375 385.011719 610.480469 377.035156 606.492188 370.429688 " fill-opacity="1" fill-rule="nonzero"/></g><path fill="#ff7428" d="M 439.734375 401.546875 L 438.402344 424.6875 L 439.070312 424.6875 C 457.597656 417.414062 460.253906 392.28125 462.25 375.082031 C 458.261719 375.746094 454.9375 376.371094 451.65625 377.699219 C 450.328125 377.035156 415.261719 367.769531 407.953125 322.113281 C 406.664062 314.84375 400.015625 310.191406 392.746094 310.855469 C 385.476562 312.183594 380.824219 318.832031 381.488281 326.101562 C 387.46875 363.160156 409.945312 389.621094 439.734375 401.546875 " fill-opacity="1" fill-rule="nonzero"/></svg>