<?xml version="1.0" encoding="UTF-8" standalone="no"?>
<!-- Created with Inkscape (http://www.inkscape.org/) -->

<svg
   version="1.1"
   id="svg2"
   width="1122.52"
   height="793.70667"
   viewBox="0 0 1122.52 793.70667"
   sodipodi:docname="logo-language-gris-corner-training-centre.eps"
   xmlns:inkscape="http://www.inkscape.org/namespaces/inkscape"
   xmlns:sodipodi="http://sodipodi.sourceforge.net/DTD/sodipodi-0.dtd"
   xmlns="http://www.w3.org/2000/svg"
   xmlns:svg="http://www.w3.org/2000/svg">
  <defs
     id="defs6" />
  <sodipodi:namedview
     id="namedview4"
     pagecolor="#ffffff"
     bordercolor="#000000"
     borderopacity="0.25"
     inkscape:showpageshadow="2"
     inkscape:pageopacity="0.0"
     inkscape:pagecheckerboard="0"
     inkscape:deskcolor="#d1d1d1" />
  <g
     id="g8"
     inkscape:groupmode="layer"
     inkscape:label="ink_ext_XXXXXX"
     transform="matrix(1.3333333,0,0,-1.3333333,0,793.70667)">
    <g
       id="g10"
       transform="scale(0.1)">
      <path
         d="m 1188,3315.17 h 27.28 v -152.75 h 81.83 v -27.28 H 1188 v 180.03"
         style="fill:#231f20;fill-opacity:1;fill-rule:nonzero;stroke:none"
         id="path12" />
      <path
         d="m 1435.24,3189.7 -38.83,83.14 -38.85,-83.14 z m 12.67,-27.28 h -103.45 l -12.64,-27.28 h -30.13 l 84.01,180.03 h 20.97 l 84.43,-180.03 h -30.55 l -12.64,27.28"
         style="fill:#231f20;fill-opacity:1;fill-rule:nonzero;stroke:none"
         id="path14" />
      <path
         d="m 1641.47,3192.53 v 122.64 h 27.28 v -180.03 h -17.9 l -96.67,125.92 v -125.92 h -27.28 v 180.03 h 20.29 l 94.28,-122.64"
         style="fill:#231f20;fill-opacity:1;fill-rule:nonzero;stroke:none"
         id="path16" />
      <path
         d="m 1876.48,3156.74 c -18.47,-18.04 -40.65,-27.06 -66.56,-27.06 -26.48,0 -49.03,9.32 -67.63,27.93 -18.64,18.63 -27.93,41.18 -27.93,67.65 0,26.34 9.29,48.81 27.93,67.44 18.6,18.62 41.15,27.93 67.63,27.93 26.33,0 48.82,-9.31 67.43,-27.93 l -19.41,-19.21 c -13.25,13.24 -29.24,19.86 -48.02,19.86 -18.9,0 -35.02,-6.65 -48.33,-19.97 -13.3,-13.31 -19.96,-29.36 -19.96,-48.12 0,-18.91 6.66,-35.02 19.96,-48.33 13.31,-13.33 29.43,-19.97 48.33,-19.97 14.7,0 27.79,4.14 39.28,12.45 v 42.1 h -49.1 v 27.29 h 76.38 v -82.06"
         style="fill:#231f20;fill-opacity:1;fill-rule:nonzero;stroke:none"
         id="path18" />
      <path
         d="m 1923.62,3203.44 v 111.73 h 27.28 v -111.73 c 0,-12.94 4.51,-23.94 13.53,-32.95 9.02,-9.02 20.01,-13.53 32.95,-13.53 12.81,0 23.72,4.51 32.74,13.53 9.02,9.01 13.53,20.01 13.53,32.95 v 111.73 h 27.27 v -111.73 c 0,-20.37 -7.2,-37.75 -21.6,-52.15 -14.41,-14.4 -31.72,-21.61 -51.94,-21.61 -20.37,0 -37.74,7.21 -52.15,21.61 -14.4,14.4 -21.61,31.78 -21.61,52.15"
         style="fill:#231f20;fill-opacity:1;fill-rule:nonzero;stroke:none"
         id="path20" />
      <path
         d="m 2223.25,3189.7 -38.86,83.14 -38.83,-83.14 z m 12.65,-27.28 h -103.43 l -12.67,-27.28 h -30.1 l 84.01,180.03 h 20.95 l 84.45,-180.03 h -30.56 l -12.65,27.28"
         style="fill:#231f20;fill-opacity:1;fill-rule:nonzero;stroke:none"
         id="path22" />
      <path
         d="m 2466.12,3156.74 c -18.47,-18.04 -40.66,-27.06 -66.56,-27.06 -26.47,0 -49.02,9.32 -67.64,27.93 -18.63,18.63 -27.93,41.18 -27.93,67.65 0,26.34 9.3,48.81 27.93,67.44 18.62,18.62 41.17,27.93 67.64,27.93 26.34,0 48.81,-9.31 67.43,-27.93 l -19.41,-19.21 c -13.25,13.24 -29.25,19.86 -48.02,19.86 -18.91,0 -35.02,-6.65 -48.33,-19.97 -13.31,-13.31 -19.96,-29.36 -19.96,-48.12 0,-18.91 6.65,-35.02 19.96,-48.33 13.31,-13.33 29.42,-19.97 48.33,-19.97 14.7,0 27.79,4.14 39.28,12.45 v 42.1 h -49.1 v 27.29 h 76.38 v -82.06"
         style="fill:#231f20;fill-opacity:1;fill-rule:nonzero;stroke:none"
         id="path24" />
      <path
         d="m 2633.28,3315.17 v -27.28 h -87.29 v -49.1 h 65.47 v -27.27 h -65.47 v -49.1 h 87.29 v -27.28 h -114.57 v 180.03 h 114.57"
         style="fill:#231f20;fill-opacity:1;fill-rule:nonzero;stroke:none"
         id="path26" />
      <path
         d="m 2910.41,3175.51 19.86,-18.77 c -18.47,-18.04 -40.66,-27.06 -66.55,-27.06 -26.48,0 -49.03,9.31 -67.65,27.93 -18.63,18.63 -27.93,41.18 -27.93,67.65 0,26.33 9.3,48.81 27.93,67.43 18.62,18.62 41.17,27.94 67.65,27.94 26.32,0 48.8,-9.32 67.42,-27.94 l -19.42,-19.2 c -13.24,13.23 -29.24,19.86 -48,19.86 -18.92,0 -35.02,-6.66 -48.34,-19.97 -13.31,-13.31 -19.97,-29.35 -19.97,-48.12 0,-18.91 6.66,-35.02 19.97,-48.33 13.32,-13.32 29.42,-19.97 48.34,-19.97 18.03,0 33.6,6.18 46.69,18.55"
         style="fill:#231f20;fill-opacity:1;fill-rule:nonzero;stroke:none"
         id="path28" />
      <path
         d="m 3045.71,3293.35 c -18.92,0 -35.02,-6.66 -48.33,-19.97 -13.32,-13.31 -19.97,-29.35 -19.97,-48.12 0,-18.91 6.65,-35.02 19.97,-48.33 13.31,-13.32 29.41,-19.97 48.33,-19.97 18.76,0 34.8,6.65 48.12,19.97 13.31,13.31 19.96,29.42 19.96,48.33 0,18.77 -6.65,34.81 -19.96,48.12 -13.32,13.31 -29.36,19.97 -48.12,19.97 m 67.43,-0.65 c 18.62,-18.63 27.93,-41.1 27.93,-67.44 0,-26.47 -9.31,-49.02 -27.93,-67.65 -18.63,-18.62 -41.1,-27.93 -67.43,-27.93 -26.48,0 -49.03,9.31 -67.65,27.93 -18.62,18.63 -27.93,41.18 -27.93,67.65 0,26.34 9.31,48.81 27.93,67.44 18.62,18.61 41.17,27.93 67.65,27.93 26.33,0 48.8,-9.32 67.43,-27.93"
         style="fill:#231f20;fill-opacity:1;fill-rule:nonzero;stroke:none"
         id="path30" />
      <path
         d="m 3213.96,3206.06 h 41.03 c 11.2,0 20.8,4 28.8,12 8,8 12,17.68 12,29.03 0,11.2 -4,20.8 -12,28.8 -8,8 -17.6,12.01 -28.8,12.01 h -41.03 z m 52.37,-26.41 c -3.63,-0.57 -7.41,-0.87 -11.34,-0.87 h -41.03 v -43.64 h -27.28 v 180.03 h 68.31 c 18.76,0 34.8,-6.65 48.11,-19.97 13.32,-13.31 19.97,-29.35 19.97,-48.11 0,-18.92 -6.62,-34.99 -19.86,-48.23 -3.63,-3.64 -7.49,-6.76 -11.57,-9.39 l 27.28,-54.33 h -30.33 l -22.26,44.51"
         style="fill:#231f20;fill-opacity:1;fill-rule:nonzero;stroke:none"
         id="path32" />
      <path
         d="m 3488.7,3192.53 v 122.64 h 27.28 v -180.03 h -17.91 l -96.66,125.92 v -125.92 h -27.28 v 180.03 h 20.29 l 94.28,-122.64"
         style="fill:#231f20;fill-opacity:1;fill-rule:nonzero;stroke:none"
         id="path34" />
      <path
         d="m 3687.06,3315.17 v -27.28 h -87.29 v -49.1 h 65.46 v -27.27 h -65.46 v -49.1 h 87.29 v -27.28 h -114.57 v 180.03 h 114.57"
         style="fill:#231f20;fill-opacity:1;fill-rule:nonzero;stroke:none"
         id="path36" />
      <path
         d="m 3759.94,3206.06 h 41.03 c 11.2,0 20.8,4 28.8,12 8,8 12.01,17.68 12.01,29.03 0,11.2 -4.01,20.8 -12.01,28.8 -8,8 -17.6,12.01 -28.8,12.01 h -41.03 z m 52.36,-26.41 c -3.62,-0.57 -7.4,-0.87 -11.33,-0.87 h -41.03 v -43.64 h -27.28 v 180.03 h 68.31 c 18.76,0 34.8,-6.65 48.11,-19.97 13.32,-13.31 19.97,-29.35 19.97,-48.11 0,-18.92 -6.62,-34.99 -19.86,-48.23 -3.63,-3.64 -7.49,-6.76 -11.56,-9.39 l 27.27,-54.33 h -30.33 l -22.27,44.51"
         style="fill:#231f20;fill-opacity:1;fill-rule:nonzero;stroke:none"
         id="path38" />
      <path
         d="m 1416.32,3854.98 c 0,85.51 11.06,138.6 33.22,159.21 22.13,20.62 72.9,30.92 152.34,30.92 h 44.65 v 76.74 c -48.87,-3.06 -99.64,-5.35 -152.32,-6.87 -52.69,-1.54 -109.2,-2.28 -169.51,-2.28 -59.56,0 -115.11,0.74 -166.65,2.28 -51.54,1.52 -100.61,3.81 -147.18,6.87 v -76.74 h 16.04 c 73.3,0 120.64,-10.3 142.02,-30.92 21.36,-20.61 32.07,-73.7 32.07,-159.21 v -371.35 h 215.32 v 371.35"
         style="fill:#aaa89b;fill-opacity:1;fill-rule:nonzero;stroke:none"
         id="path40" />
      <path
         d="m 2850.57,3850.12 c 95.82,132.47 231.16,198.72 406.03,198.72 152.7,0 276.97,-49.45 372.8,-148.32 95.82,-98.9 152.14,-236.14 168.94,-411.76 h 57.27 c -1.54,60.32 -2.49,106.52 -2.86,138.59 -0.4,32.07 -0.57,61.85 -0.57,89.34 0,55.73 0.74,107.84 2.28,156.34 1.53,48.48 3.82,94.87 6.88,139.16 h -56.13 l -26.34,-117.97 c -67.2,75.59 -145.85,132.86 -235.94,171.8 -90.1,38.94 -188.98,58.41 -296.64,58.41 -150.44,0 -284.05,-34.55 -400.87,-103.65 -116.83,-69.12 -210.75,-168.94 -281.76,-299.51 -35.13,-67.97 -61.84,-141.27 -80.17,-219.9 -2.84,-12.19 -5.38,-24.52 -7.78,-36.92 h 240.91 c 18.46,159.13 63.09,287.71 133.95,385.67"
         style="fill:#aaa89b;fill-opacity:1;fill-rule:nonzero;stroke:none"
         id="path42" />
      <path
         d="m 2869.5,2575.21 c 95.82,-132.46 231.17,-198.72 406.03,-198.72 152.71,0 276.97,49.45 372.8,148.33 95.82,98.89 152.14,236.13 168.95,411.74 h 57.26 c -1.54,-60.31 -2.49,-106.51 -2.87,-138.58 -0.4,-32.07 -0.56,-61.85 -0.56,-89.34 0,-55.72 0.75,-107.83 2.29,-156.33 1.52,-48.49 3.81,-94.87 6.87,-139.16 h -56.13 l -26.34,117.96 c -67.2,-75.59 -145.85,-132.85 -235.94,-171.8 -90.1,-38.93 -188.98,-58.41 -296.65,-58.41 -150.43,0 -284.04,34.55 -400.86,103.66 -116.84,69.11 -210.74,168.93 -281.76,299.5 -35.13,67.98 -61.84,141.28 -80.17,219.91 -2.84,12.17 -5.38,24.51 -7.78,36.91 h 240.91 c 18.46,-159.12 63.09,-287.7 133.95,-385.67"
         style="fill:#aaa89b;fill-opacity:1;fill-rule:nonzero;stroke:none"
         id="path44" />
      <path
         d="M 911.504,1601.99 H 3967.68 v 603.04 H 911.504 v -603.04"
         style="fill:#231f20;fill-opacity:1;fill-rule:nonzero;stroke:none"
         id="path46" />
      <path
         d="m 1300.02,1966.69 h -50.22 v 27.9 l 128.33,-0.02 v -27.89 l -50.22,0.01 -0.03,-156.22 h -27.89 l 0.03,156.22"
         style="fill:#ffffff;fill-opacity:1;fill-rule:nonzero;stroke:none"
         id="path48" />
      <path
         d="m 1441.49,1882.98 41.96,-0.01 c 11.45,0 21.28,4.08 29.46,12.27 8.19,8.18 12.28,18.08 12.28,29.68 0,11.46 -4.09,21.27 -12.26,29.46 -8.19,8.19 -18.01,12.28 -29.47,12.28 h -41.95 z m 53.55,-27.01 c -3.71,-0.6 -7.58,-0.9 -11.6,-0.9 l -41.96,0.01 v -44.63 h -27.91 l 0.04,184.12 69.86,-0.02 c 19.2,0 35.59,-6.8 49.21,-20.43 13.6,-13.61 20.42,-30.02 20.42,-49.2 0,-19.34 -6.79,-35.78 -20.33,-49.32 -3.72,-3.72 -7.66,-6.93 -11.83,-9.6 l 27.89,-55.57 h -31.03 l -22.76,45.54"
         style="fill:#ffffff;fill-opacity:1;fill-rule:nonzero;stroke:none"
         id="path50" />
      <path
         d="m 1708.86,1866.19 -39.71,85.04 -39.75,-85.03 z m 12.94,-27.9 -105.78,0.02 -12.96,-27.9 -30.8,0.01 85.96,184.11 h 21.43 l 86.33,-184.14 h -31.25 l -12.93,27.9"
         style="fill:#ffffff;fill-opacity:1;fill-rule:nonzero;stroke:none"
         id="path52" />
      <path
         d="m 1830.52,1994.49 -0.04,-184.11 h -27.9 l 0.03,184.11 h 27.91"
         style="fill:#ffffff;fill-opacity:1;fill-rule:nonzero;stroke:none"
         id="path54" />
      <path
         d="m 2005.46,1869.04 0.03,125.43 h 27.89 l -0.04,-184.12 h -18.29 l -98.85,128.78 -0.02,-128.77 -27.9,0.01 0.03,184.12 h 20.76 l 96.39,-125.45"
         style="fill:#ffffff;fill-opacity:1;fill-rule:nonzero;stroke:none"
         id="path56" />
      <path
         d="m 2119.08,1994.45 -0.04,-184.12 h -27.9 l 0.04,184.13 27.9,-0.01"
         style="fill:#ffffff;fill-opacity:1;fill-rule:nonzero;stroke:none"
         id="path58" />
      <path
         d="m 2294.02,1869 0.02,125.43 27.9,-0.01 -0.04,-184.13 -18.29,0.02 -98.84,128.77 -0.02,-128.77 -27.91,0.02 0.04,184.11 20.76,-0.01 96.38,-125.43"
         style="fill:#ffffff;fill-opacity:1;fill-rule:nonzero;stroke:none"
         id="path60" />
      <path
         d="m 2534.38,1832.36 c -18.9,-18.45 -41.6,-27.67 -68.08,-27.67 -27.08,0.02 -50.13,9.53 -69.17,28.58 -19.05,19.06 -28.57,42.11 -28.57,69.19 0.01,26.94 9.54,49.91 28.59,68.97 19.04,19.03 42.11,28.56 69.19,28.55 26.93,0 49.91,-9.53 68.95,-28.57 l -19.86,-19.65 c -13.55,13.54 -29.91,20.32 -49.1,20.32 -19.34,0.01 -35.82,-6.8 -49.44,-20.41 -13.62,-13.6 -20.43,-30.01 -20.43,-49.21 0,-19.33 6.8,-35.82 20.42,-49.43 13.61,-13.61 30.08,-20.43 49.43,-20.43 15.03,0 28.42,4.24 40.17,12.71 v 43.07 l -50.21,0.01 v 27.9 l 78.12,-0.01 -0.01,-83.92"
         style="fill:#ffffff;fill-opacity:1;fill-rule:nonzero;stroke:none"
         id="path62" />
      <path
         d="m 2824.96,1851.51 20.3,-19.19 c -18.88,-18.46 -41.58,-27.67 -68.06,-27.67 -27.09,0 -50.14,9.53 -69.18,28.57 -19.06,19.06 -28.57,42.13 -28.57,69.2 0.01,26.93 9.54,49.91 28.59,68.96 19.04,19.03 42.11,28.56 69.19,28.54 26.93,0 49.91,-9.53 68.95,-28.56 l -19.86,-19.64 c -13.54,13.54 -29.89,20.31 -49.1,20.31 -19.34,0 -35.82,-6.8 -49.43,-20.41 -13.63,-13.61 -20.43,-30.02 -20.44,-49.22 0,-19.33 6.81,-35.8 20.41,-49.43 13.62,-13.61 30.1,-20.43 49.44,-20.43 18.44,0 34.37,6.33 47.76,18.97"
         style="fill:#ffffff;fill-opacity:1;fill-rule:nonzero;stroke:none"
         id="path64" />
      <path
         d="m 3010.66,1994.32 v -27.9 l -89.26,0.02 -0.01,-50.23 h 66.95 l -0.01,-27.91 -66.95,0.02 v -50.22 l 89.26,-0.01 -0.01,-27.9 -117.16,0.03 0.03,184.12 117.16,-0.02"
         style="fill:#ffffff;fill-opacity:1;fill-rule:nonzero;stroke:none"
         id="path66" />
      <path
         d="m 3174.45,1868.86 0.03,125.44 27.89,-0.02 -0.04,-184.12 h -18.29 l -98.84,128.79 -0.02,-128.77 h -27.9 l 0.02,184.12 h 20.77 l 96.38,-125.44"
         style="fill:#ffffff;fill-opacity:1;fill-rule:nonzero;stroke:none"
         id="path68" />
      <path
         d="m 3288.07,1966.37 h -50.22 v 27.91 l 128.33,-0.02 -0.01,-27.89 h -50.2 l -0.03,-156.23 h -27.9 l 0.03,156.23"
         style="fill:#ffffff;fill-opacity:1;fill-rule:nonzero;stroke:none"
         id="path70" />
      <path
         d="m 3518.84,1994.23 -0.01,-27.9 -89.27,0.02 v -50.22 l 66.94,-0.01 v -27.9 l -66.95,0.02 -0.01,-50.21 89.27,-0.02 -0.01,-27.89 h -117.17 l 0.04,184.12 117.17,-0.01"
         style="fill:#ffffff;fill-opacity:1;fill-rule:nonzero;stroke:none"
         id="path72" />
      <path
         d="m 3593.36,1882.63 41.95,-0.01 c 11.46,0 21.28,4.09 29.47,12.28 8.18,8.17 12.27,18.07 12.27,29.67 0,11.47 -4.09,21.27 -12.26,29.47 -8.19,8.18 -18.01,12.28 -29.47,12.28 h -41.95 z m 53.54,-27 c -3.72,-0.61 -7.58,-0.91 -11.6,-0.91 l -41.95,0.01 -0.01,-44.63 -27.9,0.01 0.04,184.12 69.85,-0.02 c 19.2,0 35.6,-6.81 49.21,-20.43 13.6,-13.6 20.41,-30.02 20.41,-49.21 0,-19.33 -6.79,-35.78 -20.31,-49.31 -3.73,-3.74 -7.67,-6.93 -11.84,-9.61 l 27.88,-55.57 -31.01,0.01 -22.77,45.54"
         style="fill:#ffffff;fill-opacity:1;fill-rule:nonzero;stroke:none"
         id="path74" />
      <path
         d="m 1201.01,2582.31 c 0,-84.77 -10.88,-137.84 -32.66,-159.2 -21.75,-21.39 -68.9,-32.07 -141.45,-32.07 h -16.03 v -75.61 h 1277.05 c 1.54,87.81 4.01,175.82 7.46,264 3.44,88.21 7.45,186.2 12.03,274.01 l -69.88,-1.15 c -1.53,-173.34 -32.07,-301.88 -91.62,-365.61 -59.55,-63.77 -170.66,-95.64 -333.29,-95.64 h -396.29 v 556.27 h -215.32 v -365"
         style="fill:#aaa89b;fill-opacity:1;fill-rule:nonzero;stroke:none"
         id="path76" />
    </g>
  </g>
</svg>
