<svg xmlns="http://www.w3.org/2000/svg" xmlns:xlink="http://www.w3.org/1999/xlink" width="1080" zoomAndPan="magnify" viewBox="0 0 810 809.999993" height="1080" preserveAspectRatio="xMidYMid meet" version="1.0"><defs><clipPath id="de26a7aad8"><path d="M 174.480469 155 L 631.980469 155 L 631.980469 660.707031 L 174.480469 660.707031 Z M 174.480469 155 " clip-rule="nonzero"/></clipPath></defs><rect x="-81" width="972" fill="#ffffff" y="-80.999999" height="971.999992" fill-opacity="1"/><rect x="-81" width="972" fill="#ffffff" y="-80.999999" height="971.999992" fill-opacity="1"/><g clip-path="url(#de26a7aad8)"><path fill="#ff7428" d="M 332.351562 218.53125 C 334.609375 219.332031 336.226562 221.484375 336.226562 224.015625 L 336.226562 246.804688 C 336.226562 250.015625 333.621094 252.621094 330.410156 252.621094 C 327.199219 252.621094 324.597656 250.015625 324.597656 246.804688 L 324.597656 234.46875 C 324.597656 233.722656 323.835938 233.222656 323.148438 233.523438 L 280.730469 252.089844 C 279.191406 252.761719 277.523438 252.710938 276.097656 252.089844 L 224.101562 229.332031 C 219.378906 227.269531 219.582031 220.675781 224.101562 218.699219 L 276.097656 195.941406 C 277.636719 195.273438 279.304688 195.320312 280.730469 195.941406 L 332.277344 218.503906 C 332.304688 218.515625 332.324219 218.523438 332.351562 218.53125 Z M 495.179688 160.726562 L 511.640625 211.714844 C 511.777344 212.148438 512.167969 212.429688 512.625 212.429688 L 566.273438 212.328125 C 573.542969 212.320312 576.550781 221.679688 570.6875 225.9375 L 570.699219 225.953125 L 527.246094 257.398438 C 526.875 257.664062 526.726562 258.121094 526.867188 258.554688 L 543.542969 309.535156 C 545.765625 316.355469 537.851562 322.589844 531.507812 317.621094 C 531.5 317.613281 531.492188 317.605469 531.480469 317.597656 L 488.605469 286.324219 C 488.238281 286.054688 487.757812 286.054688 487.386719 286.324219 L 444.042969 317.941406 C 438.167969 322.226562 430.238281 316.429688 432.472656 309.542969 L 432.453125 309.535156 L 449.125 258.554688 C 449.265625 258.121094 449.117188 257.664062 448.75 257.398438 L 405.296875 225.953125 C 399.796875 221.972656 401.683594 212.320312 410.285156 212.328125 L 463.371094 212.429688 C 463.828125 212.429688 464.214844 212.148438 464.355469 211.714844 L 480.832031 160.675781 C 483.082031 153.683594 492.996094 153.777344 495.179688 160.726562 Z M 390.859375 603.179688 L 216.691406 603.179688 C 203.933594 603.179688 196.824219 618.851562 206.296875 628.324219 C 208.980469 631.007812 212.664062 632.675781 216.691406 632.675781 L 390.859375 632.675781 C 391.53125 632.675781 392.019531 632.054688 391.863281 631.402344 C 389.734375 622.5625 389.734375 613.296875 391.863281 604.457031 C 392.019531 603.804688 391.53125 603.179688 390.859375 603.179688 Z M 406.355469 575.492188 C 407.273438 575.492188 407.734375 576.601562 407.085938 577.253906 C 404.09375 580.261719 401.429688 583.597656 399.15625 587.207031 C 398.960938 587.515625 398.648438 587.6875 398.28125 587.6875 L 216.691406 587.6875 C 200.082031 587.6875 186.449219 601.320312 186.449219 617.929688 C 186.449219 634.539062 200.082031 648.171875 216.691406 648.171875 L 398.28125 648.171875 C 398.648438 648.171875 398.960938 648.34375 399.15625 648.652344 C 401.429688 652.261719 404.09375 655.597656 407.085938 658.605469 C 407.734375 659.257812 407.273438 660.363281 406.351562 660.363281 L 216.980469 660.363281 C 193.65625 660.363281 174.542969 641.253906 174.542969 617.929688 C 174.542969 594.605469 193.65625 575.492188 216.980469 575.492188 C 280.105469 575.492188 343.230469 575.492188 406.355469 575.492188 Z M 496.394531 502.816406 L 322.226562 502.816406 C 309.46875 502.816406 302.359375 518.484375 311.832031 527.957031 C 314.515625 530.640625 318.199219 532.308594 322.226562 532.308594 L 496.394531 532.308594 C 497.066406 532.308594 497.554688 531.6875 497.398438 531.035156 C 495.269531 522.195312 495.269531 512.929688 497.398438 504.089844 C 497.554688 503.4375 497.066406 502.816406 496.394531 502.816406 Z M 511.886719 475.125 C 512.808594 475.125 513.269531 476.234375 512.621094 476.886719 C 509.628906 479.894531 506.964844 483.230469 504.691406 486.839844 C 504.496094 487.148438 504.179688 487.320312 503.816406 487.320312 L 322.226562 487.320312 C 305.617188 487.320312 291.984375 500.953125 291.984375 517.5625 C 291.984375 534.171875 305.617188 547.804688 322.226562 547.804688 L 503.816406 547.804688 C 504.179688 547.804688 504.496094 547.976562 504.691406 548.285156 C 506.964844 551.894531 509.628906 555.230469 512.621094 558.238281 C 513.269531 558.890625 512.808594 560 511.886719 560 L 322.515625 560 C 299.191406 560 280.078125 540.886719 280.078125 517.5625 C 280.078125 494.238281 299.191406 475.125 322.515625 475.125 Z M 440.792969 386.953125 L 622.382812 386.953125 C 622.746094 386.953125 623.0625 386.78125 623.253906 386.472656 C 625.53125 382.863281 628.191406 379.527344 631.183594 376.519531 C 631.832031 375.867188 631.371094 374.761719 630.453125 374.761719 L 441.078125 374.761719 C 417.753906 374.761719 398.644531 393.871094 398.644531 417.195312 C 398.644531 440.519531 417.753906 459.632812 441.078125 459.632812 L 630.453125 459.632812 C 631.371094 459.632812 631.832031 458.523438 631.183594 457.871094 C 628.191406 454.863281 625.527344 451.527344 623.253906 447.917969 C 623.058594 447.609375 622.746094 447.4375 622.378906 447.4375 L 440.792969 447.4375 C 424.183594 447.4375 410.550781 433.804688 410.550781 417.195312 C 410.550781 400.585938 424.183594 386.953125 440.792969 386.953125 Z M 614.957031 402.449219 C 615.628906 402.449219 616.121094 403.070312 615.960938 403.722656 C 613.832031 412.5625 613.832031 421.832031 615.960938 430.671875 C 616.121094 431.324219 615.628906 431.945312 614.957031 431.945312 L 440.792969 431.945312 C 436.761719 431.945312 433.078125 430.273438 430.398438 427.59375 C 420.921875 418.121094 428.03125 402.449219 440.792969 402.449219 Z M 276.097656 292.398438 C 263.402344 289.882812 250.265625 298.652344 246.625 311.214844 C 245.421875 315.363281 243.730469 320.675781 241.863281 326.542969 C 227.605469 371.28125 229.160156 402.980469 216.554688 446.3125 C 206.859375 479.640625 188.535156 533.429688 184.480469 541.699219 C 178.621094 553.644531 195.015625 578.933594 212.207031 538.417969 C 212.210938 538.398438 212.21875 538.386719 212.226562 538.371094 L 272.390625 414.859375 C 273.644531 412.292969 275.492188 410.710938 278.210938 410.246094 L 278.210938 410.238281 L 319.804688 402.925781 C 325.675781 401.90625 330.328125 407.730469 328.394531 413.144531 L 321.539062 449.417969 C 321.535156 449.4375 321.53125 449.457031 321.523438 449.476562 C 320.257812 454.5625 327.621094 459.820312 332.664062 459.480469 C 335.289062 459.304688 337.921875 457.347656 339.59375 452.621094 L 363.910156 383.90625 C 364.09375 383.386719 365.519531 377.441406 362.046875 376.214844 C 356.132812 374.121094 303.417969 374.355469 285.980469 372.824219 C 280.855469 372.378906 277.054688 367.125 279.960938 361.191406 L 295.550781 329.597656 C 300.792969 318.972656 305.292969 315.734375 316.5 312.589844 L 401.683594 288.621094 C 409.863281 286.328125 414.257812 284.128906 416.523438 281.972656 C 418.578125 280.015625 420.015625 273.464844 415.742188 273.039062 L 412.296875 273.3125 Z M 278.421875 285.382812 C 291.257812 285.382812 301.660156 274.980469 301.660156 262.144531 L 301.777344 252.972656 C 301.789062 252.21875 301.019531 251.710938 300.332031 252.011719 L 280.464844 260.707031 C 279.015625 261.339844 277.449219 261.292969 276.109375 260.707031 L 256.515625 252.132812 C 255.824219 251.832031 255.058594 252.339844 255.066406 253.089844 L 255.183594 262.144531 C 255.183594 274.980469 265.585938 285.382812 278.421875 285.382812 Z M 278.421875 285.382812 " fill-opacity="1" fill-rule="evenodd"/></g></svg>