<svg xmlns="http://www.w3.org/2000/svg" xmlns:xlink="http://www.w3.org/1999/xlink" width="1080" zoomAndPan="magnify" viewBox="0 0 810 809.999993" height="1080" preserveAspectRatio="xMidYMid meet" version="1.0"><defs><clipPath id="4b679dea71"><path d="M 258.796875 244 L 551.296875 244 L 551.296875 567 L 258.796875 567 Z M 258.796875 244 " clip-rule="nonzero"/></clipPath></defs><rect x="-81" width="972" fill="#ffffff" y="-80.999999" height="971.999992" fill-opacity="1"/><rect x="-81" width="972" fill="#007b7f" y="-80.999999" height="971.999992" fill-opacity="1"/><g clip-path="url(#4b679dea71)"><path fill="#ff7428" d="M 359.738281 284.449219 C 361.183594 284.960938 362.21875 286.335938 362.21875 287.957031 L 362.21875 302.527344 C 362.21875 304.582031 360.554688 306.246094 358.5 306.246094 C 356.445312 306.246094 354.78125 304.582031 354.78125 302.527344 L 354.78125 294.640625 C 354.78125 294.164062 354.292969 293.84375 353.855469 294.035156 L 326.734375 305.90625 C 325.75 306.335938 324.683594 306.304688 323.769531 305.90625 L 290.523438 291.355469 C 287.503906 290.035156 287.632812 285.820312 290.523438 284.558594 L 323.769531 270.003906 C 324.753906 269.578125 325.820312 269.609375 326.734375 270.003906 L 359.695312 284.433594 C 359.710938 284.4375 359.722656 284.445312 359.738281 284.449219 Z M 463.855469 247.488281 L 474.382812 280.089844 C 474.472656 280.367188 474.71875 280.546875 475.011719 280.546875 L 509.316406 280.480469 C 513.964844 280.476562 515.886719 286.460938 512.136719 289.183594 L 512.144531 289.195312 L 484.359375 309.300781 C 484.121094 309.472656 484.027344 309.761719 484.121094 310.039062 L 494.78125 342.640625 C 496.203125 347 491.140625 350.988281 487.085938 347.808594 C 487.082031 347.804688 487.074219 347.800781 487.070312 347.796875 L 459.652344 327.796875 C 459.417969 327.625 459.109375 327.625 458.875 327.796875 L 431.160156 348.015625 C 427.402344 350.753906 422.332031 347.046875 423.757812 342.644531 L 423.746094 342.640625 L 434.410156 310.042969 C 434.5 309.761719 434.402344 309.472656 434.167969 309.300781 L 406.382812 289.195312 C 402.867188 286.652344 404.070312 280.476562 409.574219 280.484375 L 443.515625 280.546875 C 443.808594 280.546875 444.058594 280.367188 444.148438 280.089844 L 454.683594 247.457031 C 456.121094 242.984375 462.460938 243.042969 463.855469 247.488281 Z M 397.152344 530.402344 L 285.785156 530.402344 C 277.625 530.402344 273.082031 540.421875 279.136719 546.480469 C 280.855469 548.195312 283.210938 549.261719 285.785156 549.261719 L 397.152344 549.261719 C 397.582031 549.261719 397.894531 548.867188 397.792969 548.449219 C 396.433594 542.796875 396.433594 536.871094 397.792969 531.21875 C 397.894531 530.800781 397.582031 530.402344 397.152344 530.402344 Z M 407.058594 512.699219 C 407.648438 512.699219 407.941406 513.40625 407.527344 513.824219 C 405.613281 515.746094 403.910156 517.882812 402.457031 520.1875 C 402.332031 520.386719 402.132812 520.496094 401.898438 520.496094 L 285.785156 520.496094 C 275.164062 520.496094 266.449219 529.214844 266.449219 539.832031 C 266.449219 550.453125 275.164062 559.171875 285.785156 559.171875 L 401.898438 559.171875 C 402.132812 559.171875 402.332031 559.28125 402.457031 559.480469 C 403.910156 561.785156 405.613281 563.917969 407.527344 565.839844 C 407.941406 566.257812 407.648438 566.96875 407.058594 566.96875 L 285.96875 566.96875 C 271.054688 566.96875 258.835938 554.746094 258.835938 539.832031 C 258.835938 524.917969 271.054688 512.699219 285.96875 512.699219 C 326.332031 512.699219 366.695312 512.699219 407.058594 512.699219 Z M 464.632812 466.226562 L 353.265625 466.226562 C 345.109375 466.226562 340.5625 476.246094 346.621094 482.304688 C 348.335938 484.019531 350.691406 485.085938 353.265625 485.085938 L 464.632812 485.085938 C 465.0625 485.085938 465.375 484.6875 465.273438 484.273438 C 463.914062 478.621094 463.914062 472.691406 465.273438 467.042969 C 465.375 466.625 465.0625 466.226562 464.632812 466.226562 Z M 474.539062 448.523438 C 475.128906 448.523438 475.421875 449.230469 475.007812 449.648438 C 473.09375 451.570312 471.390625 453.707031 469.9375 456.011719 C 469.8125 456.210938 469.613281 456.320312 469.378906 456.320312 L 353.265625 456.320312 C 342.648438 456.320312 333.929688 465.035156 333.929688 475.65625 C 333.929688 486.277344 342.648438 494.992188 353.265625 494.992188 L 469.378906 494.992188 C 469.613281 494.992188 469.8125 495.105469 469.9375 495.300781 C 471.390625 497.609375 473.09375 499.742188 475.007812 501.664062 C 475.421875 502.082031 475.128906 502.792969 474.539062 502.792969 L 353.449219 502.792969 C 338.535156 502.792969 326.316406 490.570312 326.316406 475.65625 C 326.316406 460.742188 338.535156 448.523438 353.449219 448.523438 Z M 429.082031 392.144531 L 545.191406 392.144531 C 545.425781 392.144531 545.625 392.03125 545.75 391.835938 C 547.207031 389.527344 548.910156 387.394531 550.820312 385.472656 C 551.234375 385.054688 550.941406 384.34375 550.351562 384.34375 L 429.261719 384.34375 C 414.347656 384.34375 402.128906 396.566406 402.128906 411.480469 C 402.128906 426.394531 414.347656 438.613281 429.261719 438.613281 L 550.351562 438.613281 C 550.941406 438.613281 551.234375 437.90625 550.820312 437.488281 C 548.90625 435.566406 547.203125 433.433594 545.75 431.125 C 545.625 430.929688 545.425781 430.816406 545.191406 430.816406 L 429.082031 430.816406 C 418.460938 430.816406 409.742188 422.101562 409.742188 411.480469 C 409.742188 400.859375 418.460938 392.144531 429.082031 392.144531 Z M 540.445312 402.050781 C 540.875 402.050781 541.1875 402.449219 541.085938 402.867188 C 539.726562 408.515625 539.726562 414.445312 541.085938 420.097656 C 541.1875 420.511719 540.875 420.910156 540.445312 420.910156 L 429.078125 420.910156 C 426.503906 420.910156 424.148438 419.84375 422.433594 418.128906 C 416.375 412.070312 420.921875 402.050781 429.078125 402.050781 Z M 323.769531 331.679688 C 315.652344 330.074219 307.253906 335.679688 304.925781 343.714844 C 304.15625 346.367188 303.074219 349.761719 301.878906 353.511719 C 292.765625 382.121094 293.757812 402.390625 285.695312 430.097656 C 279.496094 451.410156 267.78125 485.800781 265.1875 491.089844 C 261.441406 498.726562 271.925781 514.898438 282.917969 488.992188 C 282.921875 488.980469 282.925781 488.972656 282.929688 488.960938 L 321.398438 409.988281 C 322.199219 408.347656 323.382812 407.335938 325.121094 407.035156 L 325.121094 407.03125 L 351.714844 402.355469 C 355.472656 401.703125 358.445312 405.425781 357.210938 408.890625 L 352.828125 432.082031 C 352.824219 432.097656 352.820312 432.105469 352.816406 432.121094 C 352.007812 435.371094 356.714844 438.734375 359.941406 438.519531 C 361.621094 438.40625 363.300781 437.15625 364.371094 434.128906 L 379.921875 390.195312 C 380.039062 389.859375 380.949219 386.0625 378.730469 385.273438 C 374.945312 383.9375 341.242188 384.085938 330.089844 383.109375 C 326.8125 382.824219 324.382812 379.464844 326.242188 375.667969 L 336.210938 355.46875 C 339.5625 348.675781 342.4375 346.605469 349.605469 344.589844 L 404.074219 329.265625 C 409.304688 327.800781 412.113281 326.394531 413.5625 325.015625 C 414.875 323.761719 415.792969 319.574219 413.0625 319.300781 L 410.859375 319.476562 Z M 325.257812 327.195312 C 333.464844 327.195312 340.117188 320.542969 340.117188 312.335938 L 340.191406 306.472656 C 340.199219 305.988281 339.707031 305.664062 339.265625 305.859375 L 326.5625 311.417969 C 325.636719 311.820312 324.632812 311.792969 323.777344 311.417969 L 311.25 305.933594 C 310.808594 305.742188 310.316406 306.066406 310.324219 306.546875 L 310.398438 312.335938 C 310.398438 320.542969 317.050781 327.195312 325.257812 327.195312 Z M 325.257812 327.195312 " fill-opacity="1" fill-rule="evenodd"/></g></svg>